<svg xmlns="http://www.w3.org/2000/svg" version="1.0" viewBox="0 0 512.000000 512.000000" preserveAspectRatio="xMidYMid meet">
<metadata>
Created by potrace 1.16, written by Peter Selinger 2001-2019
</metadata>
<g transform="translate(0.000000,512.000000) scale(0.100000,-0.100000)" fill="#000000" stroke="none">
<path d="M176 5109 c-37 -109 -40 -551 -7 -799 41 -300 54 -320 21 -30 -22 195 -29 612 -11 755 9 75 8 106 -3 74z"/>
<path d="M203 4678 c5 -415 10 -507 41 -723 l6 -40 -16 45 c-9 25 -16 59 -16 75 1 21 -1 25 -6 13 -6 -14 -13 -7 -36 35 -47 87 -171 268 -174 257 -2 -6 5 -21 16 -33 34 -37 112 -165 144 -235 64 -140 60 -151 -8 -24 -61 113 -118 212 -138 237 -15 19 -15 19 -8 -5 4 -14 23 -54 43 -90 21 -36 40 -75 44 -88 3 -12 9 -20 13 -18 4 2 7 -6 7 -19 0 -20 -4 -19 -51 21 -28 24 -54 44 -58 44 -3 0 -6 -25 -6 -55 l0 -56 88 -87 89 -88 2 -73 2 -73 -90 94 -90 93 -1 -96 c0 -85 2 -98 21 -115 33 -30 45 -61 69 -174 13 -58 32 -130 42 -160 11 -30 23 -83 28 -117 4 -34 15 -76 24 -94 21 -43 20 -59 -3 -32 -10 12 -22 47 -25 77 -5 39 -16 66 -40 98 -18 23 -45 75 -59 113 -14 39 -26 65 -26 58 -2 -25 30 -143 64 -236 36 -100 75 -289 75 -362 0 -22 9 -59 20 -80 12 -22 26 -62 32 -90 9 -41 21 -60 69 -108 33 -32 70 -81 84 -110 24 -49 24 -50 3 -22 -12 17 -67 75 -121 129 l-98 99 -28 146 c-15 80 -50 239 -77 354 l-49 207 -3 -138 c-2 -127 0 -144 22 -204 31 -82 68 -225 64 -246 -2 -9 -22 31 -45 89 -37 91 -42 99 -43 67 0 -21 11 -63 25 -94 23 -51 23 -56 6 -40 -11 10 -22 28 -24 40 -2 11 -5 -18 -6 -65 l-1 -85 45 -34 c25 -18 47 -41 50 -49 32 -107 91 -446 79 -459 -10 -13 -134 334 -159 443 l-13 60 -1 -76 c-1 -65 4 -86 29 -142 38 -84 38 -96 0 -32 l-30 50 0 -112 0 -113 70 -124 c93 -164 161 -345 167 -446 l5 -75 -38 60 c-90 145 -105 171 -150 275 -27 60 -50 108 -51 106 -4 -3 20 -69 101 -281 25 -65 46 -128 46 -140 0 -15 2 -17 9 -6 10 16 11 14 78 -123 24 -48 61 -118 83 -156 55 -91 68 -162 80 -441 13 -293 22 -368 56 -455 42 -109 44 -168 5 -132 -8 7 6 -12 31 -43 55 -69 102 -151 119 -206 7 -24 17 -43 24 -43 8 0 6 21 -7 72 -22 87 -37 309 -19 293 6 -6 16 -60 21 -120 13 -126 18 -149 20 -85 1 25 5 65 9 90 7 43 8 44 15 17 8 -25 5 -73 -10 -215 l-6 -52 40 0 c38 0 41 2 45 33 l4 32 1 -32 c2 -29 6 -33 28 -33 25 0 26 2 20 33 -12 59 -57 165 -97 227 -21 33 -39 65 -39 70 0 5 -29 38 -64 72 -97 96 -165 209 -166 273 l0 29 53 -52 c53 -52 54 -53 64 -30 l11 23 12 -30 c16 -38 40 -126 40 -144 0 -10 -11 -5 -33 15 -69 63 -79 66 -17 4 36 -36 79 -91 96 -123 l31 -59 7 52 c4 29 7 154 8 279 1 148 4 212 9 186 5 -22 9 -140 9 -263 l0 -223 45 -110 c27 -66 48 -133 52 -169 6 -60 6 -60 39 -60 18 0 35 3 37 8 8 16 -13 286 -33 427 -28 195 -31 215 -30 248 0 16 -3 26 -7 24 -5 -3 -28 67 -53 154 -24 87 -48 155 -52 151 -5 -5 -1 -28 7 -53 54 -149 138 -550 134 -636 -2 -26 -2 -26 -6 -3 -40 257 -174 712 -260 888 -57 117 -144 210 -254 271 -87 48 -77 51 85 22 111 -20 189 -56 237 -108 35 -37 168 -383 209 -542 34 -136 71 -423 68 -534 l-3 -102 -35 157 c-19 86 -36 155 -38 153 -2 -2 10 -86 27 -187 17 -100 34 -218 37 -260 7 -73 8 -78 30 -78 19 0 24 5 24 28 3 276 22 810 30 882 7 52 31 171 55 265 l42 170 21 -48 c30 -68 40 -142 47 -377 9 -263 -4 -409 -44 -495 -16 -33 -43 -104 -61 -158 -20 -61 -36 -95 -43 -90 -6 4 -8 0 -4 -9 3 -9 0 -33 -8 -54 -7 -22 -16 -56 -19 -76 l-7 -38 46 0 c40 0 45 3 45 23 1 12 19 110 40 217 l40 195 -4 -120 c-3 -77 -12 -147 -25 -195 -28 -101 -27 -120 3 -120 21 0 25 8 41 82 28 130 187 412 334 591 64 78 67 84 63 127 -2 25 1 56 8 70 8 21 10 14 6 -37 -2 -35 -2 -63 1 -63 2 0 77 69 166 154 89 85 203 188 253 229 49 41 128 116 175 166 46 51 98 103 116 117 l33 25 0 -73 0 -73 -123 -92 c-254 -191 -386 -318 -442 -424 -20 -39 -35 -72 -33 -74 2 -2 19 26 37 62 21 40 65 97 113 147 l79 81 -63 -85 c-88 -118 -148 -239 -211 -420 -9 -25 -36 -100 -61 -167 -24 -67 -56 -164 -71 -215 -14 -51 -28 -101 -31 -110 -4 -14 1 -18 23 -18 23 0 33 9 55 49 68 123 347 530 397 579 101 98 304 173 466 171 l60 -1 -105 -28 c-151 -40 -211 -65 -294 -120 -102 -69 -217 -193 -322 -350 -100 -149 -184 -283 -184 -293 0 -4 23 -7 51 -7 49 0 50 1 65 37 24 61 36 82 50 87 11 4 11 -2 -2 -32 -22 -52 -34 -83 -34 -88 0 -2 10 -4 23 -4 15 0 29 11 42 33 29 49 233 254 295 297 77 52 169 97 216 105 l39 7 -35 -28 c-109 -87 -257 -248 -349 -381 -21 -32 -22 -33 -3 -33 13 0 24 12 33 33 l14 32 5 -30 c5 -29 6 -30 71 -33 l67 -3 -10 48 c-20 105 -25 142 -17 154 5 9 9 5 13 -12 5 -20 26 -172 26 -185 0 -2 16 -4 36 -4 l36 0 -2 148 c-1 81 -2 152 -1 158 0 7 33 38 72 69 46 37 69 51 65 39 -6 -22 -46 -355 -46 -390 0 -19 5 -24 24 -24 28 0 27 -4 46 210 21 237 25 250 76 250 28 0 28 3 8 -51 -12 -35 -44 -328 -44 -399 1 -33 20 19 60 165 34 124 55 176 125 314 47 90 83 166 81 168 -11 12 -157 -281 -197 -395 -27 -78 -29 -82 -24 -38 9 69 37 156 111 344 80 202 146 335 238 476 l71 109 3 -41 c4 -48 -42 -166 -94 -243 -18 -27 -30 -49 -27 -49 2 0 -14 -34 -36 -75 -40 -73 -41 -76 -26 -105 9 -17 29 -81 45 -143 16 -61 45 -166 64 -232 19 -66 37 -142 41 -170 10 -82 15 -95 32 -95 14 0 15 15 10 148 -3 82 -15 195 -27 256 -12 59 -20 109 -18 110 2 0 13 6 24 13 18 10 25 8 42 -10 39 -43 41 -58 32 -188 -5 -68 -10 -170 -10 -227 l0 -103 28 3 27 3 5 110 c4 92 10 119 33 169 15 32 27 61 27 64 0 12 -38 -46 -48 -73 -10 -29 -10 -29 -11 16 -2 125 95 296 252 445 66 63 79 79 47 57 -54 -37 -160 -141 -203 -202 -43 -59 -47 -30 -7 53 63 134 189 226 394 291 120 38 156 44 137 21 -6 -8 -25 -19 -41 -26 -16 -7 -27 -16 -25 -20 3 -5 -27 -33 -67 -64 -81 -61 -90 -70 -205 -207 -144 -171 -188 -246 -201 -340 -9 -60 -10 -61 -11 -19 -1 44 -1 44 -17 22 -13 -20 -14 -31 -5 -68 7 -25 14 -88 18 -140 5 -82 8 -94 24 -94 21 0 24 14 39 185 5 66 14 134 20 150 14 44 5 -161 -11 -248 -10 -54 -10 -70 0 -80 10 -10 18 -5 39 22 64 82 64 82 59 24 -5 -64 9 -60 19 5 8 54 20 82 36 82 7 0 8 -22 4 -70 l-7 -70 60 0 c38 0 61 4 64 13 4 9 6 9 6 0 1 -7 14 -13 30 -13 32 0 33 3 47 103 10 72 27 42 22 -37 l-4 -66 32 0 c38 0 35 -11 54 225 6 77 17 192 25 255 15 124 35 485 35 643 0 101 15 147 46 147 17 0 17 -12 3 -160 -7 -86 -14 -118 -26 -128 -15 -11 -15 -12 1 -12 15 0 16 -8 11 -72 -3 -40 -10 -183 -15 -318 -5 -135 -19 -319 -30 -410 -11 -91 -20 -166 -20 -167 0 -2 19 -3 43 -3 35 0 49 6 73 31 16 17 50 41 77 54 55 28 60 19 27 -45 -32 -63 1 -51 35 12 84 155 174 274 302 398 140 136 221 206 229 198 2 -3 -42 -60 -98 -127 -184 -218 -208 -253 -269 -380 -32 -68 -59 -128 -59 -132 0 -5 41 -9 90 -9 l90 0 -1 33 c0 17 -4 57 -9 87 -7 50 -6 59 18 93 38 57 43 55 37 -17 -3 -36 -7 -95 -10 -132 l-6 -65 58 3 58 3 8 95 c5 52 6 157 2 233 -6 155 -2 171 61 242 20 22 34 35 31 30 -13 -26 -57 -452 -57 -557 l0 -48 93 0 93 0 18 131 c9 71 22 201 27 287 5 86 16 209 24 272 8 63 15 118 15 122 0 4 5 8 12 8 12 0 10 -46 -16 -360 -19 -227 -27 -460 -16 -460 4 0 11 39 14 88 6 95 26 223 80 522 20 107 36 211 36 231 0 21 4 41 10 44 13 8 13 10 -4 -121 -8 -60 -17 -147 -21 -194 -4 -47 -20 -146 -37 -220 -37 -167 -50 -350 -25 -350 10 0 19 11 22 28 22 102 116 216 257 310 42 29 79 56 83 62 3 5 11 10 17 10 6 0 4 -8 -5 -17 -8 -10 -15 -22 -15 -27 0 -4 -33 -54 -74 -110 -41 -55 -90 -126 -108 -156 -18 -30 -40 -66 -49 -80 l-16 -25 35 25 c19 14 51 41 72 62 20 20 75 56 122 78 100 48 117 73 21 30 -76 -34 -76 -45 9 129 55 112 56 115 56 203 l0 88 -67 -71 c-38 -40 -106 -104 -153 -143 -128 -107 -128 -107 -100 -66 13 19 40 53 59 76 30 34 39 56 54 130 50 248 98 400 167 536 l40 77 -1 133 0 133 -25 -69 c-13 -39 -24 -79 -24 -90 0 -11 -10 -41 -21 -67 -19 -40 -26 -48 -57 -53 -20 -3 -38 -3 -40 -1 -6 6 73 231 110 315 16 36 36 69 44 73 8 4 14 12 14 18 0 14 -89 -34 -151 -82 -30 -23 -92 -79 -139 -124 -47 -44 -110 -95 -140 -112 -30 -18 -95 -64 -144 -103 -84 -68 -87 -69 -51 -26 38 46 114 114 175 156 19 13 82 69 140 124 58 56 114 107 125 114 11 7 4 5 -15 -4 -19 -10 -75 -56 -125 -103 -49 -48 -115 -104 -145 -125 -30 -22 -75 -58 -99 -80 l-44 -41 44 64 c24 35 82 105 129 155 53 56 71 79 46 61 -21 -16 -79 -72 -128 -124 -94 -100 -99 -91 -16 32 97 143 220 237 403 308 l135 52 0 108 c0 74 -4 109 -11 109 -8 0 -8 4 0 14 8 9 11 62 9 158 -2 132 -3 144 -20 145 -10 1 -16 -2 -13 -8 4 -5 2 -9 -3 -9 -5 0 -60 -36 -123 -81 -63 -45 -125 -86 -139 -92 -14 -7 -27 -14 -30 -17 -3 -3 -25 -20 -49 -39 -36 -28 -41 -30 -31 -11 21 39 91 109 142 142 59 38 63 48 7 16 -110 -61 -225 -199 -304 -364 -30 -62 -57 -114 -59 -114 -7 0 19 60 61 145 42 82 35 80 -17 -6 -32 -53 -42 -62 -68 -64 -37 -3 -37 -4 34 85 28 36 82 109 118 163 49 70 87 112 138 152 38 30 74 55 80 55 5 0 7 4 4 9 -13 21 58 64 188 116 44 17 81 36 84 43 3 9 -3 10 -22 2 l-26 -10 15 30 c8 16 19 32 25 35 6 3 10 45 9 93 l0 87 -13 -45 c-15 -53 -34 -100 -40 -100 -6 0 12 78 35 148 12 35 19 65 16 68 -6 6 -67 -179 -67 -205 0 -12 -4 -21 -9 -21 -11 0 -11 82 -1 90 14 10 81 243 78 268 -2 18 -15 -16 -36 -93 -19 -66 -49 -148 -68 -182 -19 -34 -34 -70 -34 -81 0 -44 -98 -197 -116 -180 -12 13 29 164 71 263 54 127 149 391 170 473 11 45 15 100 13 204 l-3 142 -29 -104 c-38 -140 -86 -271 -96 -265 -4 3 -37 -31 -73 -75 l-65 -80 5 78 c4 48 12 85 22 98 66 87 100 133 117 159 26 42 -167 -138 -322 -300 -72 -74 -135 -135 -142 -135 -18 0 8 58 63 139 48 72 243 298 416 483 l109 116 0 56 c0 31 -3 56 -6 56 -18 0 -112 -77 -194 -160 -103 -104 -155 -183 -290 -447 -41 -79 -75 -142 -76 -140 -1 1 15 65 37 142 22 77 41 164 42 192 1 29 7 55 13 57 20 8 99 125 159 236 64 118 152 247 249 365 l66 80 -1 65 0 65 -90 -95 c-50 -52 -88 -86 -85 -75 3 11 12 52 21 90 21 92 89 335 114 405 34 99 34 97 21 78 -29 -45 -100 -265 -158 -489 -26 -100 -48 -150 -157 -360 -102 -197 -125 -235 -119 -199 8 57 37 132 73 190 53 85 88 155 83 169 -3 9 0 11 8 6 8 -5 11 -4 6 3 -3 6 -1 32 5 57 6 25 9 48 6 51 -2 3 -13 -28 -22 -68 -20 -81 -45 -137 -105 -230 -42 -63 -69 -142 -89 -258 -8 -42 -35 -113 -78 -202 -37 -76 -69 -136 -71 -134 -10 10 63 240 108 341 26 61 52 128 56 150 9 47 133 379 198 529 72 164 188 403 235 484 37 64 42 78 39 126 l-3 54 -95 -167 c-52 -91 -127 -230 -166 -308 -39 -79 -73 -140 -76 -137 -3 2 -9 -10 -12 -28 -6 -28 -9 -30 -14 -13 -9 26 -9 274 1 345 l7 55 -19 -55 c-23 -67 -24 -54 -7 69 10 69 11 128 5 219 -7 98 -6 146 6 220 9 52 18 100 22 106 4 7 3 8 -4 1 -16 -15 -89 -264 -114 -385 -12 -58 -25 -110 -30 -116 -5 -6 -10 -55 -12 -108 -1 -52 -5 -96 -8 -96 -3 0 -5 -53 -3 -117 1 -82 -1 -112 -8 -99 -5 10 -8 35 -6 57 2 21 1 39 -3 39 -11 0 -19 -194 -10 -227 7 -25 6 -31 -5 -26 -9 3 -17 -10 -25 -44 -12 -47 -13 -48 -20 -18 -9 34 -34 392 -45 625 l-8 155 -23 -170 c-28 -207 -45 -635 -33 -847 8 -144 6 -188 -10 -188 -16 0 -19 32 -19 175 0 81 -3 174 -7 208 l-7 62 -39 -180 c-21 -99 -42 -200 -45 -225 l-7 -45 -6 35 c-5 28 -11 8 -33 -105 -32 -168 -35 -258 -25 -785 4 -206 5 -364 2 -350 -57 294 -57 287 -48 595 9 352 11 585 4 585 -4 0 -11 -5 -18 -12 -9 -9 -12 15 -13 108 l-2 119 -9 -130 -10 -130 -44 -47 c-67 -72 -149 -214 -205 -358 l-18 -45 -1 46 c0 25 -5 50 -11 56 -9 9 -6 19 10 39 11 15 21 39 21 55 0 15 5 31 10 34 6 3 10 18 9 33 l-1 27 -9 -26 c-7 -20 -24 -32 -66 -47 l-55 -21 28 31 c16 17 46 41 66 54 28 18 47 45 79 109 39 79 41 87 26 102 -15 15 -13 19 18 56 18 21 46 63 62 93 26 50 27 54 11 70 -16 16 -17 16 -11 -4 11 -45 -84 -163 -143 -178 -14 -4 -27 -4 -30 -2 -2 3 20 38 51 79 l56 74 -60 -65 c-60 -64 -74 -65 -50 -3 15 40 57 81 109 108 54 28 87 62 126 130 16 28 39 65 51 84 16 23 20 38 14 44 -7 7 -4 19 9 37 10 15 35 61 54 103 35 78 66 126 120 186 35 38 29 36 -64 -25 -57 -38 -144 -117 -242 -222 -18 -19 -51 -70 -74 -115 l-42 -81 -4 79 c-5 112 7 220 31 289 11 33 19 61 17 64 -7 6 -37 -57 -104 -214 -99 -230 -112 -268 -112 -316 0 -42 -2 -46 -27 -51 -16 -3 -61 -31 -101 -62 -40 -30 -75 -55 -76 -55 -6 0 19 270 29 320 3 14 -4 -2 -15 -35 -28 -85 -42 -170 -42 -242 1 -35 -3 -63 -8 -63 -6 0 -10 -5 -10 -11 0 -5 -37 -47 -83 -92 -123 -122 -206 -238 -344 -477 -23 -41 -43 -71 -43 -67 0 21 27 117 76 269 58 178 73 276 56 358 l-10 45 -1 -50 c-2 -38 -13 -72 -51 -145 -27 -52 -49 -90 -49 -83 -1 10 23 146 44 253 4 18 3 21 -4 10 -11 -19 -51 -235 -50 -275 0 -16 -7 -55 -15 -85 l-14 -55 -1 45 c-1 70 16 221 36 326 l18 96 58 46 c82 64 77 69 -10 10 -23 -15 -44 -28 -47 -28 -3 0 -6 21 -6 46 l0 45 96 45 c105 49 259 104 295 105 l24 0 -22 9 c-44 18 -206 -11 -306 -55 -12 -5 -6 12 22 57 48 80 125 232 182 363 60 139 120 222 251 352 177 176 401 349 563 435 86 46 67 49 -40 5 -197 -80 -420 -241 -620 -449 -162 -167 -223 -260 -354 -538 -6 -14 -9 -16 -5 -5 6 22 18 84 33 182 5 34 21 85 35 113 41 81 191 276 289 378 50 50 86 92 80 92 -54 0 -347 -275 -497 -468 -49 -62 -90 -111 -92 -109 -4 3 73 213 95 258 l12 24 -18 -24 c-10 -14 -43 -83 -73 -154 -42 -99 -63 -136 -87 -155 -30 -22 -33 -23 -33 -6 0 11 14 34 31 52 60 63 92 143 129 322 13 61 10 131 -5 130 -5 0 -8 -20 -6 -44 4 -65 -38 -130 -108 -166 l-24 -12 6 52 c9 76 41 135 94 173 69 49 95 109 101 231 4 81 2 98 -9 94 -8 -3 -14 -11 -14 -19 0 -25 -22 -53 -73 -96 l-50 -43 13 57 c13 57 34 83 66 83 43 0 104 91 110 165 7 91 -14 111 -53 50 -13 -18 -33 -39 -46 -45 -13 -6 -33 -33 -47 -63 -13 -28 -24 -47 -24 -42 -1 16 25 107 42 148 15 34 15 37 -1 37 -12 0 -22 -16 -33 -52 l-17 -53 -2 55 c-1 42 -4 49 -9 30 -4 -14 -6 -41 -3 -61 2 -20 0 -39 -6 -43 -12 -7 -42 64 -42 99 0 38 -29 31 -46 -12 -10 -22 -15 -58 -13 -92 2 -34 -2 -66 -11 -81 -21 -38 -17 -99 9 -160 24 -55 32 -160 16 -209 -6 -19 -11 -16 -58 35 -64 69 -86 108 -87 154 -1 32 -2 33 -11 11 -14 -35 7 -99 52 -152 21 -26 52 -72 69 -104 25 -48 30 -68 29 -124 0 -36 -4 -86 -8 -111 -7 -38 -9 -41 -14 -20 -3 14 -11 61 -16 105 -11 85 -29 151 -30 108 -1 -26 30 -238 59 -406 11 -66 20 -141 20 -169 l0 -50 50 37 c48 35 51 36 46 14 -29 -125 -56 -271 -51 -279 3 -6 2 -10 -3 -10 -5 0 -9 -6 -9 -12 -1 -7 -12 -39 -26 -71 l-25 -59 -1 246 c-1 135 -6 281 -11 324 -14 114 -55 314 -63 306 -4 -4 -5 8 -2 27 4 24 3 28 -3 14 -8 -17 -9 -16 -15 10 -3 17 -24 116 -46 220 -26 122 -61 250 -100 360 l-59 170 -36 3 c-45 4 -45 5 -7 -175 16 -76 37 -190 45 -253 30 -208 92 -381 190 -529 52 -77 63 -119 71 -257 4 -73 3 -95 -5 -84 -6 8 -39 61 -74 117 -55 88 -146 207 -153 200 -5 -6 137 -347 166 -395 36 -61 36 -63 16 -157 -20 -95 -18 -230 4 -345 11 -52 18 -96 16 -98 -14 -15 -124 239 -125 287 l0 24 -24 -22 -24 -22 -5 38 c-9 70 -28 127 -48 146 -10 10 -19 26 -19 37 0 10 -4 22 -10 25 -5 3 -10 23 -10 43 0 51 -18 112 -33 112 -7 0 -18 -5 -25 -12 -9 -9 -12 -9 -12 2 0 8 4 21 9 29 11 16 -3 61 -23 76 -7 6 -19 30 -27 55 -9 28 -22 49 -36 55 -12 5 -25 21 -28 35 -6 23 -28 61 -81 143 -12 18 -26 31 -31 30 -6 -1 -9 5 -6 15 2 10 -17 43 -49 82 -29 36 -66 84 -81 108 -34 52 -44 55 -18 5 54 -106 124 -319 122 -373 -2 -78 64 -232 118 -277 14 -11 23 -24 20 -27 -10 -11 -56 32 -69 64 -13 31 -30 41 -30 17 0 -7 7 -22 15 -33 8 -10 15 -30 15 -44 0 -15 5 -31 10 -36 6 -6 14 -44 19 -85 10 -86 45 -195 71 -224 19 -20 18 -20 -18 -20 -33 0 -37 -3 -40 -27 -8 -66 73 -167 147 -185 14 -3 36 -14 47 -25 17 -15 23 -16 28 -6 3 7 3 2 0 -11 -4 -14 -2 -21 3 -18 6 4 16 -12 22 -34 15 -51 7 -63 -9 -14 -15 44 -88 95 -126 87 -25 -5 -25 -5 -6 -26 14 -16 18 -31 15 -59 -6 -43 11 -92 38 -110 15 -11 7 -13 -50 -14 l-68 -1 -28 106 c-48 187 -101 300 -187 398 -47 53 -52 40 -14 -34 19 -38 41 -93 50 -123 16 -56 76 -343 76 -365 0 -7 -20 -24 -45 -37 l-45 -25 -11 41 c-26 102 -93 289 -130 362 -43 87 -43 87 8 -60 36 -102 83 -303 83 -354 0 -19 -8 -34 -25 -45 -13 -9 -54 -43 -90 -77 l-65 -61 -1 88 c0 49 -4 107 -9 129 -7 28 -8 0 -5 -93 l5 -133 -46 -60 c-25 -33 -76 -112 -114 -177 -38 -64 -81 -137 -97 -162 -39 -64 -40 -69 -4 -35 26 24 35 27 50 18 16 -10 24 -4 63 50 24 34 68 104 96 155 83 147 165 254 243 319 19 15 -1 -10 -43 -57 -76 -84 -95 -112 -169 -262 -22 -43 -54 -97 -72 -121 -17 -23 -59 -84 -92 -134 -33 -51 -63 -92 -67 -93 -17 -1 -7 45 15 68 l22 25 -26 -17 c-14 -9 -31 -27 -37 -41 -6 -13 -60 -88 -119 -167 -101 -133 -195 -288 -176 -288 11 0 150 129 140 130 -4 0 -30 -21 -58 -47 -27 -25 -51 -44 -53 -42 -8 8 66 122 122 188 31 37 72 89 90 116 24 34 36 44 42 35 6 -10 9 -8 12 6 4 16 7 14 17 -10 10 -25 8 -40 -14 -107 -21 -63 -26 -94 -24 -161 2 -74 -1 -90 -28 -149 -24 -53 -42 -74 -89 -110 -32 -24 -70 -56 -86 -71 l-28 -26 0 92 c0 87 2 94 26 117 14 13 33 37 41 53 12 24 6 20 -33 -20 -27 -28 -70 -59 -95 -69 l-46 -19 -5 -176 c-6 -188 -46 -505 -59 -460 -4 14 -7 122 -8 240 -1 205 0 220 28 332 30 120 58 181 136 293 23 33 54 83 70 110 15 28 35 60 43 73 8 12 12 22 9 22 -4 0 -25 -28 -48 -62 -24 -34 -44 -57 -47 -50 -2 7 34 70 81 140 88 131 108 170 146 282 18 55 28 69 65 94 50 34 70 64 80 119 l7 38 -21 -21 c-23 -23 -79 -50 -105 -50 -24 0 -19 53 8 77 12 12 38 26 57 32 l35 11 -35 -5 -34 -5 37 33 c37 35 57 73 61 117 2 14 8 42 15 63 17 50 9 72 -20 56 -17 -9 -20 -8 -14 3 23 39 127 173 188 241 38 42 65 77 61 77 -11 0 -104 -73 -151 -118 -23 -23 -51 -59 -62 -80 -11 -22 -28 -42 -37 -46 -15 -6 -16 6 -12 119 4 104 8 129 24 147 19 21 18 21 -21 -2 -79 -46 -149 -104 -286 -237 -95 -92 -139 -130 -139 -117 0 54 33 195 59 250 60 128 154 254 282 380 68 66 150 138 182 159 31 21 55 40 53 43 -3 2 -35 -6 -73 -18 -139 -45 -325 -165 -394 -254 -24 -30 -44 -54 -46 -52 -1 1 11 34 27 74 18 42 35 105 41 153 5 45 18 98 29 118 45 88 191 257 285 329 l30 23 -45 -23 c-55 -28 -214 -184 -262 -255 l-34 -52 4 92 c3 95 8 107 96 272 9 17 45 91 80 166 37 80 79 153 101 178 26 29 35 45 28 52 -19 19 -82 -18 -160 -93 l-76 -73 7 95 c4 52 14 129 22 170 15 73 91 261 140 348 32 54 15 54 -39 -1 -52 -52 -100 -120 -147 -209 l-36 -67 -12 107 c-7 59 -24 155 -38 215 l-26 107 -40 0 -41 0 7 -222 c4 -123 11 -279 16 -348 24 -314 25 -307 -3 -416 -14 -56 -34 -175 -43 -264 -13 -119 -20 -156 -26 -135 -7 27 -33 235 -41 330 -2 22 -4 -51 -5 -162 -2 -144 2 -224 13 -280 19 -101 19 -130 -5 -401 -14 -145 -29 -256 -43 -307 -21 -78 -22 -79 -25 -38 -2 23 2 66 7 95 6 29 16 76 21 103 10 48 -4 293 -17 305 -3 3 -3 -58 0 -135 l6 -140 -19 70 c-15 57 -17 91 -13 180 4 68 1 151 -8 215 l-13 105 -7 -66 c-10 -96 -39 -156 -85 -175 -51 -21 -59 -14 -30 26 65 89 76 110 56 110 -5 0 -10 -6 -10 -13 0 -15 -47 -63 -55 -56 -2 3 9 30 24 60 26 49 29 64 31 159 1 118 -11 224 -29 259 -14 25 -11 199 3 236 8 20 8 20 -8 0 -18 -21 -69 -174 -82 -240 -4 -22 -13 -49 -19 -60 -14 -21 -14 -195 0 -227 5 -14 2 -18 -14 -18 -25 0 -26 -8 -5 -59 8 -22 14 -50 12 -63 l-3 -23 -28 28 c-25 24 -28 34 -25 72 2 27 0 41 -6 35 -6 -6 -6 -41 0 -92 8 -68 8 -85 -4 -94 -21 -15 -33 -92 -21 -137 6 -21 25 -55 44 -76 42 -46 55 -79 55 -137 0 -54 -11 -51 -45 14 -30 58 -33 41 -3 -25 24 -55 57 -167 57 -200 1 -14 -5 -23 -13 -23 -14 0 -28 33 -41 98 -4 18 -25 72 -48 120 -23 49 -40 99 -38 113 5 50 -115 256 -185 319 l-28 25 25 -35 c37 -50 71 -119 123 -248 25 -62 57 -129 73 -150 l27 -37 -35 31 c-41 38 -76 57 -89 49 -15 -10 -12 -90 6 -135 10 -24 29 -48 49 -60 68 -42 144 -147 163 -225 16 -62 25 -178 14 -171 -5 3 -12 32 -14 64 -7 73 -46 157 -95 202 l-37 35 28 -34 c25 -31 66 -103 66 -116 0 -3 -9 -5 -20 -5 -33 0 -78 28 -94 58 -9 15 -15 21 -16 13 0 -8 22 -36 50 -63 27 -26 50 -53 50 -58 0 -6 13 -36 29 -68 28 -55 58 -168 48 -179 -3 -2 -8 10 -12 28 -5 22 -37 64 -101 130 -51 54 -100 111 -108 127 -9 17 -27 74 -41 128 -22 87 -92 238 -140 307 -14 20 -12 37 -33 -208 l-9 -100 -1 160 c-3 254 44 478 164 783 83 212 147 343 229 467 36 55 65 101 65 104 0 10 -73 -66 -135 -139 -139 -166 -223 -312 -286 -495 -37 -108 -48 -114 -30 -18 14 73 21 141 12 119 -7 -19 -8 -18 -14 5 -4 13 -7 53 -7 89 -1 36 -7 90 -14 120 l-13 55 -13 -100 c-7 -55 -14 -199 -15 -320 -3 -303 -4 -330 -13 -319 -16 17 -44 248 -49 404 -7 202 9 382 42 480 67 197 272 545 460 780 62 77 73 96 58 99 -36 7 -289 -285 -443 -514 -73 -108 -73 -107 -66 -70 6 27 5 28 -3 5 -5 -14 -12 -38 -16 -54 -3 -15 -8 -26 -11 -23 -11 10 49 220 97 343 27 70 48 132 46 138 -2 6 -16 -21 -30 -59 -29 -75 -54 -120 -41 -75 8 30 61 162 98 243 14 31 23 57 20 57 -10 0 -129 -259 -184 -399 -28 -74 -61 -143 -71 -154 -13 -14 -19 -36 -19 -66 0 -25 -5 -53 -10 -61 -7 -11 -10 1 -10 42 0 61 7 91 21 83 23 -15 40 191 19 240 -8 19 -9 19 -9 -3 -1 -12 -12 -39 -25 -60 -13 -20 -32 -66 -40 -101 -29 -116 -29 -122 -26 227 2 240 0 262 -15 262 -16 0 -17 -32 -12 -442z m2727 288 c5 -23 5 -89 1 -151 -5 -60 -9 -89 -10 -64 0 25 -10 79 -21 120 -28 102 -34 141 -25 186 l7 38 20 -44 c10 -25 23 -63 28 -85z m200 72 c-1 -34 -35 -105 -57 -116 -10 -5 -31 -12 -46 -16 l-29 -7 24 42 c27 48 86 119 99 119 5 0 9 -10 9 -22z m-1685 -252 c17 -180 18 -201 5 -169 -10 26 -30 228 -29 298 1 76 7 45 24 -129z m1450 62 c4 -21 4 -42 1 -45 -9 -9 -36 63 -36 94 1 26 2 27 15 10 7 -11 17 -37 20 -59z m-10 -85 c8 -23 14 -69 13 -113 l-1 -75 -7 71 c-4 39 -17 92 -29 119 -11 26 -21 62 -21 79 l1 31 14 -37 c8 -21 22 -55 30 -75z m195 -58 c-15 -51 -53 -101 -92 -121 l-31 -16 6 33 7 34 -27 -30 c-25 -28 -25 -28 -18 -5 20 67 41 100 98 158 l62 63 3 -38 c2 -21 -2 -56 -8 -78z m-2750 -6 c0 -28 -29 -81 -40 -74 -15 9 -12 44 7 75 18 31 33 31 33 -1z m4377 -36 c-3 -10 -5 -2 -5 17 0 19 2 27 5 18 2 -10 2 -26 0 -35z m-3181 -50 c-3 -10 -10 -77 -15 -150 -9 -129 -10 -133 -50 -199 -23 -37 -41 -72 -41 -78 0 -5 -2 -7 -5 -5 -2 3 4 42 15 87 11 46 22 101 25 123 3 22 14 58 26 80 11 23 19 43 16 45 -5 5 -49 -90 -52 -113 -1 -10 -7 -31 -13 -46 -7 -16 -12 -34 -12 -40 0 -7 -5 -19 -11 -27 -32 -48 41 201 85 288 26 51 43 69 32 35z m3174 0 c0 -15 2 -16 10 -3 8 12 10 10 10 -10 0 -14 -5 -32 -10 -40 -8 -13 -10 -12 -10 3 0 10 -4 15 -10 12 -6 -4 -10 7 -10 24 0 17 5 31 10 31 6 0 10 -8 10 -17z m-4409 -44 c-2 -8 -6 -45 -8 -84 -6 -93 -11 -107 -28 -75 -19 34 -19 114 1 151 15 29 43 35 35 8z m2603 -54 c4 -34 3 -43 -3 -30 -9 19 -15 93 -7 84 2 -2 6 -26 10 -54z m13 13 c-3 -7 -5 -2 -5 12 0 14 2 19 5 13 2 -7 2 -19 0 -25z m1785 -25 c-10 -28 -10 -28 -11 12 -1 28 2 36 10 28 8 -8 8 -19 1 -40z m-35 -5 c-3 -8 -6 -5 -6 6 -1 11 2 17 5 13 3 -3 4 -12 1 -19z m47 -66 c-25 -38 -30 -10 -8 41 19 41 19 41 22 14 2 -16 -4 -40 -14 -55z m-44 -12 c0 -47 -3 -60 -15 -60 -8 0 -15 7 -15 16 0 20 21 104 26 104 2 0 4 -27 4 -60z m-1771 -120 c-5 -9 -8 16 -7 65 l1 80 7 -65 c4 -36 4 -72 -1 -80z m-2570 52 c-1 -21 -3 -29 -6 -18 -5 18 -6 18 -19 -5 -13 -23 -13 -23 -14 -2 0 32 18 75 30 68 5 -3 9 -23 9 -43z m2687 -54 c-31 -86 -64 -143 -105 -182 l-31 -30 0 73 c0 40 5 82 11 94 17 35 144 147 147 131 2 -8 -8 -46 -22 -86z m1708 47 c-3 -14 -10 -25 -14 -25 -13 0 -18 47 -7 65 9 16 10 16 19 2 5 -9 6 -28 2 -42z m-4464 -18 c0 -16 -4 -26 -10 -22 -5 3 -10 23 -10 43 0 28 3 33 10 22 5 -8 10 -28 10 -43z m155 -52 c-21 -53 -36 -136 -49 -270 -2 -22 -3 19 -2 90 1 130 1 130 36 187 19 31 35 56 37 55 1 -2 -8 -30 -22 -62z m4270 35 c7 -32 -1 -54 -16 -45 -12 8 -12 75 0 75 5 0 12 -13 16 -30z m-215 -442 c-1 -255 -4 -484 -7 -510 -9 -73 -26 -59 -19 15 4 34 5 85 4 112 -2 28 -3 203 -3 390 0 304 7 455 21 455 3 0 4 -208 4 -462z m-2265 402 c21 -40 19 -48 -5 -17 -19 23 -26 47 -15 47 2 0 11 -13 20 -30z m-1895 -14 c9 -28 8 -44 -4 -78 -8 -24 -15 -36 -16 -27 0 9 -7 22 -15 29 -27 23 -15 110 16 110 4 0 13 -15 19 -34z m1273 7 c-9 -16 -34 -49 -54 -74 -31 -38 -40 -60 -49 -115 -6 -38 -20 -103 -30 -144 -21 -83 -55 -311 -65 -435 -8 -95 -39 -366 -60 -520 -8 -60 -15 -117 -15 -125 0 -15 -80 -134 -86 -128 -1 2 6 48 17 103 38 193 49 282 64 485 19 260 39 419 75 590 37 182 63 237 156 333 31 31 58 57 60 57 3 0 -3 -12 -13 -27z m3088 -73 c7 -35 7 -35 8 -5 1 17 6 37 11 45 11 18 12 -59 1 -99 -5 -19 -8 -21 -17 -10 -16 21 -44 109 -44 138 l1 26 16 -30 c9 -16 20 -46 24 -65z m53 5 c-3 -27 -11 -57 -16 -65 -7 -11 -8 -8 -4 10 3 14 6 50 6 80 0 40 3 51 10 40 6 -8 8 -37 4 -65z m-1530 5 c-15 -30 -37 -90 -49 -135 -22 -79 -62 -171 -71 -163 -2 3 3 21 11 41 8 20 15 42 15 49 0 14 -40 -80 -117 -272 -25 -63 -48 -117 -51 -120 -3 -3 -2 4 2 15 7 18 50 190 92 369 11 45 30 89 55 125 38 56 129 154 136 147 2 -2 -8 -27 -23 -56z m-966 -10 c10 -28 10 -29 -9 -17 -10 6 -19 20 -19 29 0 28 17 21 28 -12z m2449 -135 c2 -17 -10 3 -26 43 -17 40 -31 81 -31 90 1 23 51 -96 57 -133z m-2387 68 c0 -28 -25 -6 -31 28 l-7 34 19 -24 c10 -13 19 -30 19 -38z m-2016 -63 l5 -85 -14 70 c-17 84 -19 123 -6 110 5 -6 12 -48 15 -95z m1186 97 c0 -2 -10 -12 -22 -23 l-23 -19 19 23 c18 21 26 27 26 19z m784 -56 c-7 -7 -34 28 -34 43 1 6 10 0 21 -13 11 -13 17 -27 13 -30z m-1901 -66 l6 -100 -14 65 c-11 52 -11 151 0 138 1 -2 5 -48 8 -103z m1063 59 c-4 -20 -10 -34 -12 -31 -3 3 -2 21 2 41 3 21 9 35 11 32 3 -3 2 -21 -1 -42z m3340 -27 c-4 -19 -13 -40 -21 -47 -23 -19 -30 31 -10 70 21 41 40 27 31 -23z m-2407 -47 c0 -22 -2 -21 -14 10 -19 48 -18 86 0 45 8 -16 14 -41 14 -55z m1915 29 c-27 -40 -132 -139 -146 -139 -5 0 -8 5 -8 12 0 13 172 179 179 172 2 -2 -9 -22 -25 -45z m393 -13 c3 -25 2 -53 -1 -63 -12 -31 -26 6 -26 72 0 70 19 64 27 -9z m-3647 -81 c-12 -39 -13 -39 -22 -15 -10 27 -4 76 15 118 12 26 12 25 15 -18 2 -25 -2 -63 -8 -85z m1299 93 c17 -44 23 -108 11 -108 -15 0 -60 99 -53 116 8 22 33 16 42 -8z m705 -55 c-12 -39 -29 -69 -53 -93 l-36 -35 -3 49 c-2 37 2 56 16 75 20 28 82 74 89 67 3 -2 -3 -31 -13 -63z m1511 -275 c4 -42 4 -85 0 -95 -15 -35 -24 58 -23 247 l2 185 7 -130 c4 -71 10 -165 14 -207z m-4192 139 c-9 -36 -11 -26 -10 73 l0 115 10 -73 c7 -48 6 -86 0 -115z m1949 119 c10 -19 10 -20 -6 -7 -9 8 -22 24 -28 35 -10 19 -10 20 6 7 9 -8 22 -24 28 -35z m2472 -48 c-3 -15 -11 -31 -18 -37 -11 -9 -15 -1 -20 40 -6 43 -4 53 11 64 16 12 19 10 26 -13 4 -15 5 -39 1 -54z m-4257 35 c-3 -10 -5 -4 -5 12 0 17 2 24 5 18 2 -7 2 -21 0 -30z m1913 -25 c0 -22 -5 -48 -11 -59 -10 -20 -11 -20 -24 -2 -17 22 -19 77 -4 104 16 31 39 5 39 -43z m2284 -69 c-9 -10 -13 -23 -9 -29 4 -6 3 -23 -1 -38 l-7 -27 -7 30 c-14 55 -10 125 7 158 l17 32 8 -54 c7 -44 5 -58 -8 -72z m-65 2 c1 -30 -2 -42 -9 -35 -14 14 -31 110 -23 131 10 25 31 -40 32 -96z m-3579 29 c0 -30 -7 -61 -18 -78 l-17 -29 -1 66 c-1 60 -1 62 6 21 8 -49 13 -30 10 39 -1 29 2 41 9 37 6 -4 11 -29 11 -56z m1262 -3 c8 -16 7 -17 -11 -8 -19 11 -41 41 -41 57 0 10 40 -28 52 -49z m1898 40 c0 -25 -67 -92 -120 -121 l-52 -28 16 31 c15 28 130 130 149 131 4 0 7 -6 7 -13z m-3723 -177 c-3 -58 -10 -116 -16 -130 -9 -20 -11 -12 -6 45 3 39 5 115 6 170 1 87 2 95 11 60 5 -22 7 -87 5 -145z m-120 113 c-3 -10 -5 -2 -5 17 0 19 2 27 5 18 2 -10 2 -26 0 -35z m623 -31 c0 -44 0 -45 -20 -27 -20 18 -28 83 -13 99 14 14 33 -28 33 -72z m2925 -225 c-3 -32 -10 -66 -16 -75 -8 -14 -9 -12 -4 8 3 14 8 59 10 100 4 71 4 72 -4 18 -10 -70 -31 -147 -42 -153 -4 -3 -17 21 -29 52 -28 74 -23 146 14 228 l27 60 -5 -75 c-5 -73 -5 -73 5 -20 5 30 15 80 21 110 l12 55 8 -125 c5 -69 6 -151 3 -183z m-1457 258 c-3 -3 -9 2 -12 12 -6 14 -5 15 5 6 7 -7 10 -15 7 -18z m-989 -145 c-6 -105 -15 -174 -28 -215 -18 -56 -19 -58 -20 -24 -2 55 46 405 54 397 2 -2 -1 -73 -6 -158z m-1182 128 c-3 -8 -6 -5 -6 6 -1 11 2 17 5 13 3 -3 4 -12 1 -19z m2163 -32 c-1 -12 -7 -46 -14 -76 l-13 -55 -8 67 c-4 37 -4 80 0 95 6 27 7 27 21 9 8 -11 14 -29 14 -40z m1606 27 c-8 -16 -22 -37 -30 -48 -15 -19 -16 -18 -5 10 9 27 36 65 46 65 2 0 -3 -12 -11 -27z m-1698 -26 c2 -15 -1 -27 -6 -27 -17 0 -34 29 -28 46 9 23 31 11 34 -19z m109 1 c-3 -7 -5 -2 -5 12 0 14 2 19 5 13 2 -7 2 -19 0 -25z m2248 -8 c-4 -12 -9 -19 -12 -17 -3 3 -2 15 2 27 4 12 9 19 12 17 3 -3 2 -15 -2 -27z m-2315 -40 c0 -26 -3 -31 -10 -20 -5 8 -10 31 -10 50 0 26 3 31 10 20 5 -8 10 -31 10 -50z m2220 -11 c8 -30 7 -47 -6 -79 -19 -46 -25 -44 -42 16 -15 51 -15 75 -1 111 10 27 11 27 25 8 8 -11 19 -36 24 -56z m-4243 39 c-3 -8 -6 -5 -6 6 -1 11 2 17 5 13 3 -3 4 -12 1 -19z m693 -19 c0 -34 -15 -69 -30 -69 -14 0 -12 44 2 75 15 34 28 32 28 -6z m3090 11 c-13 -25 -41 -39 -105 -56 l-50 -13 30 25 c33 26 103 63 123 64 10 0 10 -5 2 -20z m-3877 -78 c24 -44 74 -238 64 -248 -2 -3 -7 8 -10 24 -3 16 -31 66 -61 112 -51 76 -56 88 -56 138 0 53 1 54 19 38 10 -9 30 -38 44 -64z m697 4 c0 -35 -2 -38 -14 -26 -15 16 -19 37 -17 80 2 24 2 24 16 6 8 -11 15 -38 15 -60z m3670 49 c5 -14 6 -33 3 -42 -6 -15 -8 -14 -14 7 -15 55 -7 82 11 35z m-3648 -49 c-9 -18 -11 -16 -11 19 0 33 1 37 10 21 8 -12 8 -25 1 -40z m1513 14 c5 -31 2 -50 -16 -85 -26 -52 -36 -48 -44 15 -5 35 -1 52 14 78 27 42 38 41 46 -8z m-117 -48 c13 -20 13 -22 -2 -22 -28 0 -53 18 -74 53 l-20 34 41 -21 c22 -12 47 -32 55 -44z m1700 17 c-13 -23 -36 -52 -51 -65 -16 -13 -25 -24 -20 -24 4 -1 -3 -10 -16 -20 -13 -11 -28 -20 -35 -20 -6 1 3 8 19 17 17 9 25 18 18 20 -7 2 -21 0 -32 -6 -61 -33 -54 12 9 51 60 37 65 46 9 18 -37 -20 -40 -20 -30 -3 11 22 40 38 101 57 25 8 46 14 48 15 2 1 -7 -18 -20 -40z m-3031 -11 c-3 -8 -6 -5 -6 6 -1 11 2 17 5 13 3 -3 4 -12 1 -19z m3559 -73 c-11 -33 -15 -37 -21 -21 -5 11 -2 29 9 46 9 16 17 36 17 47 1 11 4 8 6 -7 2 -14 -3 -43 -11 -65z m-3581 66 c8 -14 -16 -62 -29 -58 -16 5 -19 36 -6 52 14 17 26 19 35 6z m3331 -113 c-7 -125 -14 -150 -34 -125 -9 11 -7 41 10 130 12 65 24 117 26 117 3 0 2 -55 -2 -122z m188 71 c-2 -4 0 -10 6 -14 17 -11 11 -64 -14 -118 -13 -29 -31 -76 -41 -104 -9 -29 -18 -53 -20 -53 -7 0 7 135 16 150 7 13 9 13 10 0 2 -15 12 35 25 123 4 31 10 44 15 36 4 -7 6 -16 3 -20z m-3508 -31 c-8 -39 -45 -93 -46 -66 0 20 42 110 48 103 2 -2 2 -19 -2 -37z m1775 -85 c5 -68 18 -147 31 -188 18 -59 22 -95 23 -225 0 -85 4 -173 8 -195 3 -22 -2 -6 -12 35 -10 41 -23 107 -29 145 -7 39 -23 135 -38 215 -24 135 -25 152 -14 243 7 54 15 96 17 93 3 -2 9 -58 14 -123z m-420 66 c6 -11 8 -23 5 -27 -7 -7 -54 35 -68 61 -9 17 -8 17 21 3 17 -9 35 -26 42 -37z m139 -38 c0 -32 -8 -73 -19 -96 -16 -37 -18 -38 -25 -17 -4 12 -12 22 -17 22 -17 0 -9 94 12 140 19 43 21 44 35 26 8 -12 14 -43 14 -75z m1255 -20 c-8 -8 -25 51 -24 82 1 26 4 22 15 -23 7 -30 11 -56 9 -59z m-2818 51 c3 -15 -1 -53 -10 -89 -15 -56 -15 -66 -1 -98 12 -29 14 -65 8 -188 -5 -117 -3 -171 9 -232 16 -84 16 -257 1 -337 -7 -32 -11 14 -16 177 -10 346 -11 396 -3 460 5 39 3 75 -5 105 -7 25 -14 73 -16 107 -1 34 -5 81 -9 104 -7 39 -6 40 14 30 11 -7 24 -24 28 -39z m1457 32 c3 -9 6 -28 5 -42 l-1 -27 -13 30 c-8 17 -14 36 -15 43 0 17 17 15 24 -4z m-14 -95 c0 -15 -16 -10 -35 11 -10 11 -23 20 -28 20 -6 0 2 -13 18 -30 22 -23 25 -30 12 -30 -17 0 -54 47 -44 56 3 3 2 17 -4 31 -8 22 -5 21 36 -13 25 -20 45 -40 45 -45z m-2150 -104 c62 -81 71 -98 78 -150 4 -33 4 -78 0 -100 -4 -22 -6 -74 -6 -115 l1 -75 11 100 11 100 14 -73 c7 -42 14 -166 16 -300 1 -129 8 -249 15 -279 6 -29 10 -65 8 -80 -2 -15 -11 22 -21 82 -10 61 -25 149 -33 196 -8 48 -15 106 -16 130 l-1 44 -4 -39 c-8 -76 -20 -15 -16 77 5 92 5 92 -47 221 -45 111 -52 136 -47 179 2 28 1 43 -4 35 -5 -7 -9 -21 -9 -30 0 -44 -19 -9 -58 107 -23 69 -42 131 -42 138 1 16 64 -55 150 -168z m2779 98 c-10 -111 -72 -226 -109 -203 -12 7 -11 13 8 33 22 23 67 125 59 133 -2 3 -12 -17 -22 -43 -19 -51 -60 -103 -82 -103 -10 0 -12 13 -7 58 9 86 31 120 100 159 32 18 59 33 59 33 1 0 -2 -30 -6 -67z m1517 -14 c-14 -35 -25 -59 -26 -54 0 16 45 136 48 127 1 -5 -9 -37 -22 -73z m-1995 24 c-9 -15 -10 -12 -10 17 0 29 1 32 10 18 7 -12 7 -24 0 -35z m976 5 c-3 -7 -5 -2 -5 12 0 14 2 19 5 13 2 -7 2 -19 0 -25z m-3173 -85 c26 -103 35 -192 16 -163 -11 17 -13 1 -4 -24 3 -9 11 -13 17 -9 6 3 7 1 3 -5 -3 -6 1 -42 9 -81 9 -39 15 -83 13 -98 -4 -32 -47 136 -53 209 -2 24 -8 61 -14 83 -8 37 -22 199 -15 193 1 -2 14 -49 28 -105z m-218 -48 c21 -66 42 -122 46 -125 27 -20 49 -132 29 -145 -25 -15 -62 72 -47 110 3 9 -1 26 -9 39 -16 25 -49 146 -59 216 -7 53 -8 56 40 -95z m3574 109 c-16 -40 -12 -98 10 -145 21 -46 27 -115 10 -104 -5 3 -10 17 -10 29 0 56 -67 59 -97 3 -19 -36 -24 -163 -9 -252 l8 -50 -27 33 c-26 32 -58 44 -54 20 2 -7 -1 -35 -5 -63 -5 -39 -2 -63 14 -109 l20 -60 -51 -160 c-29 -89 -69 -195 -90 -237 -54 -109 -83 -184 -104 -269 -24 -100 -75 -214 -89 -200 -18 18 46 199 174 495 69 157 79 201 90 373 6 85 15 172 20 195 6 23 13 110 16 192 6 139 8 153 31 185 20 28 141 148 150 150 1 0 -2 -12 -7 -26z m-2816 10 c17 -6 24 -74 8 -74 -10 0 -32 45 -32 65 0 17 2 17 24 9z m2881 -24 c18 -35 19 -84 2 -124 l-13 -30 -22 36 c-23 38 -29 97 -12 129 15 27 27 24 45 -11z m-2645 -95 l0 -90 -35 0 c-30 0 -34 3 -28 20 3 11 7 36 9 56 1 20 9 51 18 67 9 17 16 39 16 49 0 15 2 16 10 3 5 -8 10 -55 10 -105z m1452 -49 c-2 -116 25 -323 48 -366 5 -9 6 -27 3 -40 -5 -18 -3 -21 7 -15 10 6 12 4 6 -10 -4 -10 -3 -21 2 -24 15 -11 65 -192 55 -202 -12 -12 -83 173 -113 293 -12 46 -32 118 -45 160 -13 42 -30 114 -36 160 l-12 83 33 59 c29 51 34 56 44 40 6 -11 9 -68 8 -138z m-92 -50 c11 -44 18 -81 16 -84 -3 -2 -10 16 -15 39 -6 24 -25 85 -41 134 -17 50 -30 95 -30 100 1 22 51 -115 70 -189z m1309 68 c-12 -38 -24 -63 -27 -56 -2 7 6 36 18 64 15 35 20 62 16 87 l-5 36 11 -31 c8 -26 6 -45 -13 -100z m-1383 69 c-3 -3 -1 -14 5 -24 5 -11 7 -19 4 -19 -16 0 -58 36 -71 62 l-15 29 41 -21 c23 -12 39 -24 36 -27z m-1511 -37 c15 -21 20 -42 19 -87 -1 -33 -4 -63 -8 -67 -4 -4 -25 12 -47 35 -33 36 -39 49 -39 85 0 24 3 53 6 66 6 21 8 21 27 9 12 -8 30 -26 42 -41z m1315 -111 c22 -44 50 -127 64 -185 37 -156 39 -170 27 -170 -10 0 -18 26 -41 130 -23 108 -51 185 -100 280 -44 84 -46 91 -19 60 17 -19 48 -71 69 -115z m2142 38 c-8 -13 -12 -6 -20 32 -14 66 -2 91 15 31 9 -30 10 -52 5 -63z m243 60 c-9 -21 -21 -42 -26 -48 -9 -8 14 55 28 78 13 21 11 2 -2 -30z m-3551 -21 c-2 -30 -48 -102 -65 -102 -11 0 -12 90 -1 106 10 15 45 34 57 30 6 -2 9 -17 9 -34z m3268 -10 c1 -33 -18 -66 -33 -56 -13 7 -11 61 2 86 14 26 30 11 31 -30z m-878 -107 c-109 -136 -293 -390 -405 -559 -32 -49 -59 -82 -59 -74 0 26 81 182 160 308 99 157 184 264 291 363 46 43 91 84 98 92 8 8 17 13 19 10 2 -2 -45 -65 -104 -140z m-1003 94 c18 -34 5 -30 -25 7 -24 30 -25 34 -7 25 11 -6 26 -21 32 -32z m198 -13 c-5 -92 0 -113 46 -178 56 -80 83 -128 106 -195 l18 -54 -39 22 c-22 13 -50 39 -63 59 -44 66 -98 194 -109 260 -10 57 -9 70 6 102 22 47 38 39 35 -16z m-242 12 c33 -35 88 -126 81 -133 -9 -9 -84 18 -107 38 -26 24 -51 76 -51 107 0 32 41 25 77 -12z m-1658 -35 c34 -69 53 -128 25 -78 -24 43 -65 135 -59 135 3 0 18 -26 34 -57z m3185 31 c31 -12 17 -44 -34 -75 -27 -17 -61 -45 -75 -62 -23 -30 -25 -31 -41 -15 -43 43 31 131 133 158 1 0 8 -3 17 -6z m-1175 -211 c47 -81 81 -166 81 -197 0 -6 -11 15 -25 48 -21 52 -45 90 -124 203 -17 24 -26 51 -28 91 l-4 57 23 -55 c13 -30 48 -96 77 -147z m965 126 c7 -46 -7 -111 -29 -129 -12 -10 -15 -10 -15 3 0 9 -4 18 -8 21 -5 3 -7 -17 -4 -44 5 -57 -1 -63 -23 -20 -32 61 -12 203 32 229 23 13 38 -5 47 -60z m536 -45 c-21 -81 -24 -124 -13 -187 4 -26 10 -36 19 -33 18 7 61 -46 69 -85 4 -17 4 -46 1 -65 -7 -33 -7 -33 -26 -16 -28 26 -58 99 -66 160 -3 28 -11 52 -16 52 -12 0 -2 123 19 220 13 61 17 71 24 53 5 -15 1 -50 -11 -99z m158 64 c2 -33 -1 -47 -12 -51 -22 -9 -41 54 -26 83 18 33 35 18 38 -32z m-3298 -2 c0 -72 -33 -128 -97 -166 l-33 -19 0 52 c0 29 6 63 13 77 12 24 91 90 108 90 5 0 9 -15 9 -34z m307 -33 c-24 -32 -49 -67 -55 -78 -18 -31 -14 2 4 38 18 35 73 97 87 97 4 0 -12 -26 -36 -57z m3013 -160 c-11 -114 -24 -224 -27 -243 l-6 -35 -19 60 c-19 57 -19 64 -3 150 17 100 66 287 73 281 2 -2 -6 -98 -18 -213z m-1490 188 c19 -36 12 -86 -15 -111 -14 -13 -28 -21 -31 -17 -10 10 -17 94 -10 121 8 31 40 35 56 7z m57 -3 c-3 -8 -6 -5 -6 6 -1 11 2 17 5 13 3 -3 4 -12 1 -19z m1152 -70 l-2 -93 -8 75 c-7 68 -5 110 7 110 2 0 3 -42 3 -92z m198 46 c16 -47 10 -92 -11 -75 -16 14 -39 98 -30 112 11 18 27 4 41 -37z m-4241 -19 c14 -30 24 -59 22 -64 -2 -5 -15 19 -29 55 -33 78 -27 85 7 9z m3394 -17 c-6 -35 -34 -130 -60 -213 -82 -254 -83 -260 -75 -431 6 -132 2 -205 -11 -191 -2 2 -15 49 -29 104 -28 116 -79 264 -105 309 l-18 31 45 64 c24 35 76 116 116 179 121 195 138 222 144 216 3 -3 0 -34 -7 -68z m406 33 c-23 -43 -77 -94 -88 -83 -14 14 5 45 49 81 47 39 58 39 39 2z m417 -119 c13 -14 17 -35 15 -93 l-2 -74 -6 80 -6 80 -2 -63 c-2 -72 -13 -77 -49 -22 -26 38 -29 80 -11 174 l12 64 16 -64 c9 -35 24 -72 33 -82z m-2063 -87 c20 -84 21 -120 5 -103 -5 5 -75 312 -74 325 1 18 49 -133 69 -222z m1879 -35 c1 -74 -22 -294 -37 -367 -8 -37 -9 -35 -16 32 -18 167 -46 389 -51 393 -11 11 -4 -95 20 -284 14 -109 24 -212 24 -229 -1 -46 -45 107 -68 238 -20 111 -20 111 -15 36 2 -42 20 -137 38 -210 45 -182 54 -253 18 -141 -15 46 -31 80 -35 75 -5 -4 -5 5 -1 21 5 21 4 27 -5 22 -6 -4 -11 -15 -11 -24 0 -23 68 -214 124 -350 47 -112 52 -149 15 -116 -10 9 -19 21 -19 26 0 17 -73 168 -81 168 -5 0 -5 7 -2 17 5 11 3 14 -6 8 -10 -5 -11 -2 -6 14 3 11 3 21 -2 21 -9 0 -48 98 -46 118 0 6 -3 12 -9 12 -5 0 -6 5 -3 10 3 6 2 10 -2 10 -5 0 -15 16 -22 36 -7 19 -15 34 -17 32 -2 -3 16 -65 41 -138 26 -77 45 -153 45 -177 l0 -44 -57 62 c-47 50 -66 62 -101 69 -40 7 -44 6 -53 -17 -5 -13 -25 -39 -44 -58 -30 -28 -35 -30 -29 -12 3 12 17 36 30 52 79 98 104 136 123 188 22 61 28 127 11 127 -5 0 -10 -19 -10 -42 0 -61 -16 -86 -92 -140 -94 -67 -88 -40 8 38 10 9 12 12 4 8 -8 -4 -26 -16 -39 -28 l-24 -21 20 35 c30 50 143 319 143 338 -1 10 -22 -31 -47 -91 -25 -59 -48 -106 -49 -104 -7 6 97 272 145 373 50 105 109 203 145 242 l21 24 12 -89 c6 -48 12 -122 12 -163z m-2992 68 c-5 -54 -41 -109 -87 -133 -16 -8 -31 -15 -35 -15 -12 0 -4 37 16 69 30 49 15 50 -20 0 l-31 -42 0 53 c0 51 2 55 54 106 37 35 59 66 68 95 l12 43 14 -65 c7 -35 11 -85 9 -111z m1837 140 c-4 -18 -8 -67 -9 -108 0 -62 -5 -83 -27 -119 l-26 -43 -18 27 c-10 16 -18 47 -18 76 -1 45 2 53 40 89 27 26 44 52 48 75 4 19 9 35 12 35 3 0 2 -15 -2 -32z m-1256 -50 c-2 -35 -12 -79 -22 -98 -28 -55 -44 -116 -35 -131 11 -17 10 -77 -1 -104 -7 -18 -9 -18 -20 10 -6 17 -10 49 -7 72 3 27 1 40 -6 36 -6 -3 -8 -34 -4 -77 3 -39 3 -64 0 -56 -58 191 -87 249 -43 86 18 -68 28 -125 26 -154 -2 -26 -2 -35 1 -19 6 40 23 23 23 -24 0 -28 -4 -38 -12 -33 -8 5 -9 0 -5 -16 3 -13 -1 -39 -10 -59 l-16 -36 -13 40 c-7 22 -13 51 -13 65 -3 56 -57 277 -67 268 -2 -3 3 -34 11 -69 17 -68 33 -496 21 -545 -10 -37 -25 -20 -21 24 2 32 2 33 -4 7 l-7 -30 -16 45 c-24 65 -22 24 2 -46 20 -58 20 -58 1 -136 -11 -42 -38 -112 -61 -155 l-41 -78 5 115 5 115 -14 -55 c-8 -30 -20 -104 -26 -164 -10 -92 -16 -116 -42 -157 -16 -27 -31 -48 -33 -47 -5 6 27 180 51 268 14 52 39 147 55 210 16 64 36 135 45 159 21 61 18 74 -5 23 -38 -85 -45 -87 -45 -13 -1 76 -13 161 -23 161 -4 0 -8 -65 -9 -145 l-2 -144 -62 -138 c-34 -76 -70 -160 -80 -188 l-18 -50 -1 185 c0 139 3 191 13 205 19 27 267 513 267 522 0 20 -123 -193 -193 -334 -45 -90 -81 -162 -82 -160 0 1 2 52 5 112 5 108 6 112 41 160 21 28 74 106 119 175 101 153 233 325 308 403 31 31 58 57 60 57 3 0 2 -28 0 -62z m1773 -132 c-19 -118 -34 -184 -45 -194 -15 -15 -16 -15 -16 3 0 11 7 49 15 84 24 99 11 83 -24 -31 -45 -144 -49 -155 -50 -138 -1 17 32 122 98 310 22 63 41 126 41 140 1 14 4 20 6 14 2 -6 -9 -91 -25 -188z m885 117 c-10 -51 -11 -54 -14 -24 -4 39 5 81 16 81 5 0 4 -26 -2 -57z m-649 -13 c-3 -28 -27 -104 -53 -168 -40 -99 -94 -248 -94 -258 0 -2 16 8 36 21 20 14 45 25 55 25 9 0 38 16 63 35 l46 35 -28 -58 c-15 -31 -28 -58 -28 -60 -1 -2 -15 3 -30 11 -24 13 -32 12 -76 -7 -46 -19 -51 -26 -86 -99 -48 -104 -53 -82 -7 30 54 130 86 226 80 241 -2 7 -1 10 5 7 5 -3 21 34 36 82 30 100 73 213 81 213 3 0 3 -23 0 -50z m-2977 4 c39 -36 70 -106 70 -160 l0 -23 -43 28 c-68 47 -80 65 -85 131 -5 71 2 74 58 24z m1735 -35 l30 -32 -30 20 c-16 12 -39 31 -50 43 l-20 23 20 -11 c11 -6 34 -25 50 -43z m-637 -33 c-56 -68 -69 -77 -44 -28 12 23 80 90 94 92 1 0 -21 -29 -50 -64z m1478 17 c-20 -27 -93 -129 -162 -228 -70 -99 -131 -184 -137 -190 -20 -21 13 34 69 110 31 44 88 126 125 182 65 97 125 173 136 173 3 0 -11 -21 -31 -47z m-3189 5 c-3 -8 -6 -5 -6 6 -1 11 2 17 5 13 3 -3 4 -12 1 -19z m83 -16 c0 -24 -1 -25 -16 -10 -10 9 -14 24 -10 33 9 23 26 9 26 -23z m338 -77 c22 -55 47 -123 55 -151 29 -97 73 -159 220 -309 38 -38 79 -130 75 -166 -3 -27 -5 -26 -91 53 -98 90 -124 133 -176 288 -17 52 -36 102 -42 110 -9 12 -10 11 -4 -5 37 -110 40 -141 21 -234 -15 -74 -17 -113 -12 -202 4 -61 4 -109 -1 -107 -57 27 -61 31 -68 75 -3 24 -8 86 -10 136 -3 88 -33 229 -72 335 -9 23 -13 45 -9 49 3 3 6 0 6 -8 1 -8 7 -27 14 -44 13 -30 13 -29 24 40 6 39 14 110 17 158 4 49 8 87 10 85 2 -2 21 -48 43 -103z m272 60 c0 -5 -5 -3 -10 5 -5 8 -10 20 -10 25 0 6 5 3 10 -5 5 -8 10 -19 10 -25z m1666 -9 c25 -24 44 -53 44 -65 0 -25 -9 -26 -55 -7 -38 16 -72 72 -62 100 10 25 27 19 73 -28z m1861 -13 c-3 -10 -5 -2 -5 17 0 19 2 27 5 18 2 -10 2 -26 0 -35z m-4068 -73 c0 -41 -13 -78 -22 -64 -12 20 -29 145 -22 162 6 14 11 9 26 -23 10 -22 18 -56 18 -75z m-80 55 c29 -37 36 -81 17 -101 -15 -14 -16 -14 -16 0 0 9 -5 16 -11 16 -5 0 -7 5 -4 10 4 6 -5 35 -19 65 -22 49 -23 54 -6 45 10 -5 27 -21 39 -35z m3626 23 c-11 -37 -41 -61 -90 -73 -44 -12 -45 -11 -39 9 10 32 26 48 69 67 55 25 68 24 60 -3z m-1177 -38 c19 -31 51 -62 84 -84 63 -40 87 -77 95 -148 5 -42 8 -48 13 -28 4 14 6 -74 4 -195 -1 -121 -7 -233 -12 -250 -8 -22 -10 21 -10 170 2 196 1 201 -25 258 -15 32 -39 75 -55 95 -50 65 -142 232 -128 232 2 0 17 -22 34 -50z m-1810 -40 l0 -35 -8 30 c-4 17 -8 44 -8 60 0 29 0 29 8 5 4 -14 8 -41 8 -60z m69 48 c-3 -7 -5 -2 -5 12 0 14 2 19 5 13 2 -7 2 -19 0 -25z m788 -34 c-3 -19 -10 -34 -15 -34 -14 0 -12 44 2 76 10 22 14 24 16 10 2 -10 1 -33 -3 -52z m2800 -83 c-47 -138 -99 -251 -114 -251 -10 0 -4 28 30 138 19 63 122 268 127 253 1 -4 -18 -67 -43 -140z m-911 35 c-11 -87 -18 -95 -37 -47 -17 43 -22 106 -10 137 6 15 9 14 30 -11 22 -25 24 -34 17 -79z m956 2 c-12 -46 -29 -97 -39 -114 -10 -16 -24 -53 -30 -82 -7 -28 -19 -56 -27 -63 -23 -19 -18 3 24 104 22 51 50 130 62 176 30 108 39 89 10 -21z m-4365 32 c8 -25 8 -25 -14 -6 -11 11 -21 31 -21 45 0 24 1 25 14 6 7 -11 17 -31 21 -45z m226 -138 c3 -94 12 -181 19 -200 7 -18 10 -35 7 -38 -3 -3 -15 21 -28 53 -19 49 -23 83 -27 218 -3 133 -2 158 9 147 10 -9 15 -60 20 -180z m3216 141 c-3 -10 -5 -2 -5 17 0 19 2 27 5 18 2 -10 2 -26 0 -35z m720 25 c-3 -8 -6 -5 -6 6 -1 11 2 17 5 13 3 -3 4 -12 1 -19z m-3234 -211 c-17 -30 -81 -72 -92 -62 -2 3 5 15 17 28 32 34 27 45 -7 13 l-29 -27 -4 36 c-8 66 2 95 45 134 22 20 49 45 61 56 l21 20 3 -83 c2 -67 -1 -90 -15 -115z m3136 -82 c12 -79 20 -181 19 -235 -1 -52 -3 -75 -5 -50 -2 25 -15 117 -28 205 -13 88 -26 207 -29 265 l-5 105 13 -75 c8 -41 23 -138 35 -215z m-2496 234 c-10 -17 -26 -37 -35 -46 -32 -29 -22 15 11 48 38 37 47 37 24 -2z m3192 -67 c-15 -37 -42 -101 -60 -142 -51 -116 -105 -353 -105 -460 0 -49 -4 -61 -28 -87 l-29 -30 -6 171 c-7 169 -7 172 20 241 15 38 45 104 67 145 51 98 159 256 164 241 2 -6 -8 -42 -23 -79z m-2365 52 c0 -8 -4 -14 -10 -14 -5 0 -10 9 -10 21 0 11 5 17 10 14 6 -3 10 -13 10 -21z m381 -95 c-6 -63 -13 -190 -16 -284 -5 -154 -13 -210 -52 -392 -3 -13 -9 -23 -14 -23 -8 0 -6 80 10 332 6 87 8 207 4 266 -4 79 -2 115 7 133 18 34 62 90 67 86 2 -2 -1 -55 -6 -118z m656 99 c-3 -8 -6 -5 -6 6 -1 11 2 17 5 13 3 -3 4 -12 1 -19z m197 7 c3 -8 1 -26 -4 -39 -16 -43 -126 -112 -160 -101 -17 6 -18 8 -3 50 20 61 72 105 122 105 25 0 41 -5 45 -15z m999 -37 c-23 -81 -38 -112 -83 -175 -68 -97 -200 -254 -200 -239 0 3 25 44 56 90 46 70 58 96 68 156 l12 72 79 74 c44 40 81 73 82 74 1 0 -5 -24 -14 -52z m-4623 27 c10 -13 9 -15 -9 -15 -12 0 -21 6 -21 15 0 8 4 15 9 15 5 0 14 -7 21 -15z m2347 -31 c42 -21 64 -41 80 -69 29 -52 30 -68 0 -24 -15 23 -45 45 -91 67 -38 18 -71 30 -74 27 -3 -2 19 -15 49 -28 l53 -24 -34 -18 c-19 -10 -56 -33 -81 -51 -26 -19 -49 -34 -52 -34 -3 0 -13 35 -22 77 -10 43 -19 83 -22 89 -13 35 118 27 194 -12z m2513 6 c-13 -24 -101 -92 -109 -84 -3 3 7 16 22 27 15 12 42 34 60 49 39 33 41 34 27 8z m-2709 -86 c14 -62 18 -99 12 -105 -6 -6 -18 24 -32 85 -20 82 -21 116 -6 116 2 0 14 -43 26 -96z m-2069 43 c7 -14 7 -17 -1 -13 -13 9 -14 1 -2 -22 4 -9 11 -28 14 -42 6 -25 5 -26 -31 -22 -52 6 -82 36 -82 84 0 49 21 59 61 29 33 -24 38 -18 12 13 -17 20 -17 20 0 7 10 -8 23 -23 29 -34z m1484 -21 c-13 -32 -34 -68 -46 -80 l-22 -21 7 30 c11 48 44 113 62 124 10 5 19 8 20 7 1 -1 -8 -28 -21 -60z m484 50 c0 -2 -7 -7 -16 -10 -8 -3 -12 -2 -9 4 6 10 25 14 25 6z m69 -105 c17 -75 19 -96 9 -103 -16 -10 -28 -10 -28 0 0 4 -9 50 -20 102 -15 72 -16 96 -7 102 18 11 22 1 46 -101z m1497 19 l-14 -45 -1 46 c-1 25 5 51 12 58 19 19 20 -5 3 -59z m-2120 -14 c-23 -82 -44 -90 -26 -10 9 38 33 84 45 84 1 0 -8 -33 -19 -74z m562 -16 l0 -35 -9 40 c-4 22 -8 51 -7 65 0 23 1 22 8 -5 4 -16 8 -46 8 -65z m2121 -12 c1 -64 -5 -88 -24 -88 -30 0 -35 99 -8 156 17 35 18 35 24 13 4 -13 7 -50 8 -81z m-2199 89 c0 -2 -10 -12 -22 -23 l-23 -19 19 23 c18 21 26 27 26 19z m2841 -34 c-10 -21 -43 -94 -71 -163 -64 -152 -103 -217 -65 -110 8 24 14 45 12 47 -7 7 -39 -88 -34 -101 3 -7 1 -19 -4 -27 -6 -10 -9 -5 -9 16 0 28 57 213 59 191 1 -5 14 17 31 50 26 52 84 134 96 134 2 0 -5 -17 -15 -37z m-2781 -60 c6 -49 12 -95 13 -104 1 -9 -17 -37 -40 -62 -50 -55 -50 -56 -56 93 -4 95 -4 95 26 128 17 17 34 32 38 32 4 0 12 -39 19 -87z m-1924 52 c9 -37 0 -40 -13 -5 -6 17 -7 30 -2 30 5 0 11 -11 15 -25z m3978 -2 c25 -51 35 -221 19 -333 -6 -40 -8 -32 -19 70 -20 176 -28 290 -21 290 4 0 13 -12 21 -27z m-1055 -113 c55 -209 76 -397 49 -455 -6 -14 -14 -25 -18 -25 -4 0 -18 26 -32 58 -50 115 -47 109 -47 87 -1 -11 8 -53 19 -93 18 -63 28 -184 15 -170 -12 12 -86 421 -90 498 l-4 85 10 -80 c6 -44 14 -96 19 -115 11 -47 2 101 -11 192 -10 63 -9 68 16 108 15 24 30 38 35 34 5 -5 22 -61 39 -124z m245 114 c6 -16 -9 -142 -19 -152 -13 -14 -29 22 -33 78 -4 51 -1 63 14 75 24 18 31 18 38 -1z m-869 -41 c16 -33 17 -54 10 -183 -5 -80 -8 -260 -7 -400 1 -179 -3 -288 -13 -364 -9 -61 -17 -111 -19 -113 -14 -15 -25 353 -11 389 6 14 -9 245 -20 313 -3 17 2 8 10 -20 9 -27 20 -97 24 -155 l9 -105 -2 105 c-3 115 -41 282 -59 258 -6 -9 -7 -5 -4 10 3 13 3 21 -1 18 -6 -6 -62 127 -62 147 0 10 112 137 121 137 4 0 15 -17 24 -37z m1139 -174 c-40 -149 -59 -168 -51 -53 3 51 14 93 43 162 34 80 39 88 42 62 2 -17 -14 -94 -34 -171z m-2590 -150 c1 -101 0 -107 -27 -142 -27 -36 -58 -57 -104 -71 -22 -7 -23 -5 -23 62 0 63 4 78 41 148 55 104 78 174 87 264 l7 75 9 -115 c4 -63 9 -163 10 -221z m586 318 c0 -20 -59 -85 -60 -65 0 14 45 78 56 78 2 0 4 -6 4 -13z m1045 -17 c15 -28 14 -31 -10 -59 -18 -19 -33 -27 -46 -24 -24 7 -24 24 -1 54 10 13 21 32 25 42 9 24 14 22 32 -13z m1854 -22 c-12 -38 -95 -178 -106 -178 -10 0 10 87 28 122 21 41 79 111 86 104 2 -2 -1 -24 -8 -48z m-2162 31 c-9 -6 -15 -14 -13 -18 3 -4 -11 -23 -32 -42 l-37 -34 35 40 c19 22 4 11 -33 -25 -37 -35 -67 -69 -67 -75 0 -5 16 8 35 30 19 22 34 35 35 29 0 -13 -65 -76 -72 -69 -7 7 -68 -62 -68 -76 0 -17 -60 -98 -83 -113 -12 -8 -33 -17 -45 -21 -21 -6 -23 -4 -17 17 5 16 0 13 -16 -12 -12 -19 -24 -30 -26 -24 -19 56 226 315 367 386 36 19 67 25 37 7z m-2218 -10 c24 -8 37 -24 56 -64 28 -59 35 -130 11 -105 -8 8 -19 31 -25 50 l-11 35 6 -38 5 -38 -25 16 c-13 9 -31 31 -40 50 -16 32 -21 75 -10 75 16 0 46 -24 54 -43 8 -21 9 -21 9 5 1 22 -5 29 -34 38 -19 6 -35 16 -35 21 0 11 0 11 39 -2z m2387 -186 c-8 -254 -16 -336 -27 -305 -5 13 -5 70 1 130 6 59 13 167 17 240 3 72 8 132 11 132 2 0 2 -89 -2 -197z m763 149 c0 -30 -2 -33 -9 -17 -12 28 -12 67 0 60 6 -3 10 -23 9 -43z m-1305 -39 c11 -140 8 -161 -42 -263 -26 -52 -53 -96 -59 -98 -17 -5 -18 159 -2 175 6 6 9 17 7 24 -2 7 -20 -3 -45 -27 -28 -27 -44 -53 -52 -84 -6 -25 -22 -81 -36 -125 -13 -44 -30 -99 -36 -122 -22 -79 -58 -42 -59 60 0 75 6 92 56 153 18 23 49 76 68 117 19 42 49 98 67 124 43 63 109 143 118 143 5 0 11 -34 15 -77z m-1006 0 c-6 -70 -32 -153 -69 -212 -25 -41 -37 -32 -40 31 -2 27 -7 44 -12 41 -10 -6 -3 -416 8 -533 3 -36 2 -48 -3 -35 -5 11 -15 94 -21 185 -7 91 -17 220 -22 286 l-10 121 34 55 c36 55 108 128 128 128 8 0 10 -21 7 -67z m2319 -27 c16 -26 16 -58 1 -90 -8 -20 -14 -23 -24 -15 -15 12 -21 42 -28 139 l-4 65 21 -39 c12 -21 28 -48 34 -60z m-2537 48 c6 -14 10 -35 10 -47 -1 -18 -4 -16 -20 13 -11 19 -19 41 -20 48 0 22 20 13 30 -14z m2821 10 c11 -13 11 -20 -1 -41 -14 -24 -132 -113 -150 -113 -16 0 40 125 66 148 29 26 66 29 85 6z m849 -2 c0 -19 -132 -182 -186 -230 -32 -29 -53 -52 -48 -52 6 0 11 -8 12 -17 1 -23 -32 -211 -58 -328 -10 -49 -22 -112 -25 -138 -12 -93 -16 -39 -5 69 6 60 15 158 20 218 11 121 34 198 95 321 36 72 46 84 105 123 62 41 90 51 90 34z m-2962 -247 c-1 -33 -3 -48 -5 -32 -2 15 -8 25 -13 22 -12 -7 -17 20 -24 110 -3 39 -8 84 -10 100 -3 17 7 -8 23 -55 21 -59 29 -103 29 -145z m1111 95 c13 -52 31 -125 42 -161 19 -66 19 -66 -1 -125 -12 -32 -30 -104 -41 -159 -10 -55 -25 -110 -31 -122 -24 -47 -31 -23 -25 85 4 79 14 133 36 206 36 115 37 140 12 221 -19 61 -38 208 -22 170 4 -11 18 -63 30 -115z m119 93 c2 -13 -9 -35 -27 -55 l-30 -33 -1 35 c0 61 50 107 58 53z m-2135 -113 c0 -53 -46 -261 -58 -256 -5 2 -8 10 -6 17 1 8 2 37 1 64 -4 103 -1 182 11 244 l12 65 19 -50 c11 -27 20 -65 21 -84z m2417 91 c0 -15 16 -126 35 -247 19 -120 35 -239 35 -264 l0 -45 -33 75 c-34 78 -96 178 -124 201 -14 12 -15 11 -8 -10 4 -13 20 -74 36 -135 15 -61 31 -122 35 -135 6 -22 5 -23 -17 -17 -13 4 -50 12 -81 18 -32 6 -58 16 -58 22 0 31 43 278 56 326 21 74 105 251 115 244 5 -3 9 -18 9 -33z m-2858 -53 c70 -66 139 -168 114 -168 -8 0 -29 19 -47 43 -19 23 -64 77 -101 120 -38 42 -68 80 -68 82 0 11 37 -17 102 -77z m2226 25 c45 -127 69 -221 78 -302 3 -36 -1 -50 -21 -77 -26 -34 -221 -171 -230 -162 -3 3 32 33 77 66 102 75 175 138 168 146 -4 3 -32 -13 -63 -35 l-57 -41 0 40 c0 22 -9 106 -20 188 l-20 148 28 43 c15 24 30 43 33 43 4 0 16 -26 27 -57z m272 -3 c0 -71 -14 -78 -28 -13 -11 51 -7 73 14 73 10 0 14 -15 14 -60z m1625 10 c-23 -44 -30 -31 -9 16 9 22 18 34 21 27 2 -6 -3 -26 -12 -43z m349 -35 c-26 -54 -48 -75 -123 -114 -22 -12 -23 -12 -10 6 22 31 153 172 157 169 2 -2 -9 -29 -24 -61z m-4295 -7 c1 -16 5 -28 10 -28 10 0 22 -56 26 -122 3 -53 -8 -55 -24 -5 -9 29 -32 187 -30 212 1 20 18 -31 18 -57z m3362 35 c-12 -20 -14 -14 -5 12 4 9 9 14 11 11 3 -2 0 -13 -6 -23z m-3542 -353 c38 -195 82 -420 96 -500 14 -80 28 -153 31 -163 5 -16 1 -18 -27 -15 -42 4 -41 1 -78 298 -17 129 -46 323 -65 430 -42 236 -53 329 -38 315 6 -6 43 -170 81 -365z m3426 349 c-6 -15 -65 -53 -65 -42 0 8 64 62 68 58 1 -1 0 -8 -3 -16z m807 -48 c-20 -39 -39 -63 -40 -55 -3 12 64 124 74 124 2 0 -14 -31 -34 -69z m145 -23 c-31 -35 -78 -85 -104 -112 -42 -42 -44 -45 -13 -24 19 14 66 42 103 62 56 31 67 34 58 18 -20 -38 -100 -99 -152 -115 -58 -19 -93 -22 -84 -7 4 6 11 7 17 4 7 -5 8 -2 4 5 -5 8 14 36 51 75 32 35 80 89 107 120 34 40 52 54 59 47 7 -7 -7 -29 -46 -73z m-1816 -52 c-19 -19 -22 -19 -37 -4 -21 21 -13 54 23 93 l28 30 3 -49 c3 -39 -1 -53 -17 -70z m-1068 77 c-10 -29 -45 -64 -85 -84 -31 -16 -38 -17 -38 -5 0 19 25 43 79 78 53 33 52 33 44 11z m1922 -51 c-4 -4 -13 2 -21 12 -12 17 -12 22 4 39 17 19 17 19 20 -13 2 -17 0 -35 -3 -38z m-3357 -64 c9 -21 21 -38 25 -38 4 0 49 -14 99 -32 107 -37 235 -118 329 -206 108 -102 48 -91 -71 13 -69 61 -158 117 -172 109 -4 -3 -8 -1 -8 4 0 4 -28 21 -62 37 -35 16 -76 38 -93 50 l-30 20 21 -30 c30 -42 37 -71 37 -145 l0 -65 7 60 7 60 3 -60 3 -60 6 49 6 48 20 -22 c14 -15 20 -36 20 -70 0 -26 3 -46 8 -43 10 6 9 -29 -2 -45 -5 -9 -13 1 -26 34 -12 33 -20 42 -26 33 -11 -18 -11 -52 0 -45 18 11 50 -94 68 -224 l6 -45 -22 19 c-38 34 -64 86 -71 144 l-7 57 -3 -60 c-1 -33 -6 -73 -10 -90 l-7 -30 -7 30 c-53 213 -71 289 -105 458 -23 109 -41 202 -41 205 1 14 81 -85 98 -120z m3270 81 c-35 -51 -210 -283 -221 -294 -32 -34 71 186 106 226 30 33 128 111 134 105 3 -2 -6 -19 -19 -37z m-1233 -179 c-18 -36 -49 -114 -68 -172 -45 -134 -58 -159 -96 -181 -34 -20 -39 -11 -17 31 7 15 19 58 25 97 7 38 17 75 23 83 8 9 6 18 -7 32 -16 18 -16 21 0 72 25 76 38 99 97 169 l52 63 12 -64 c11 -64 11 -66 -21 -130z m1326 11 c-8 -65 -10 -143 -5 -192 7 -81 7 -82 -13 -62 -16 16 -21 44 -31 179 -7 87 -12 181 -12 207 l0 48 36 -35 37 -36 -12 -109z m1347 78 c1 8 4 12 7 10 2 -3 1 -15 -2 -28 l-6 -23 -13 23 c-15 27 -17 59 -6 86 5 13 9 4 13 -32 3 -27 7 -44 7 -36z m-3030 -29 c3 -98 2 -102 -30 -158 l-33 -57 -3 68 c-4 85 12 169 39 213 11 19 21 34 22 34 1 0 3 -45 5 -100z m2451 51 c0 -9 -4 -25 -8 -36 -7 -17 -8 -16 -15 9 -4 15 -4 37 0 49 l6 22 -23 -21 c-40 -35 -56 -38 -20 -4 32 31 35 32 48 14 7 -10 13 -25 12 -33z m-1892 17 c-3 -8 -6 -5 -6 6 -1 11 2 17 5 13 3 -3 4 -12 1 -19z m200 -10 c-3 -7 -5 -2 -5 12 0 14 2 19 5 13 2 -7 2 -19 0 -25z m840 -308 l-3 -35 -12 27 c-14 34 -20 293 -7 328 7 19 12 -14 17 -130 5 -85 7 -171 5 -190z m252 318 c-7 -13 -32 -48 -57 -78 -25 -30 -58 -82 -74 -115 l-29 -60 4 73 c5 83 15 98 107 163 66 45 64 45 49 17z m-2968 -125 c32 -47 44 -100 53 -248 l4 -80 -35 40 c-50 57 -71 103 -84 184 -7 39 -14 69 -17 67 -2 -3 1 -37 8 -76 7 -39 10 -73 8 -75 -2 -2 -26 16 -54 41 l-52 44 19 107 c27 150 23 146 76 89 24 -27 58 -69 74 -93z m1946 70 c-3 -10 -5 -4 -5 12 0 17 2 24 5 18 2 -7 2 -21 0 -30z m1587 -15 c6 -43 5 -49 -24 -80 l-31 -33 4 63 c3 41 11 70 23 83 9 10 18 18 19 17 1 -2 5 -24 9 -50z m-1625 -3 c22 -42 28 -35 10 12 -6 18 -7 24 0 18 16 -16 41 -125 40 -175 l0 -45 -14 45 c-7 25 -24 77 -39 115 -35 95 -34 100 3 30z m2289 19 c-7 -15 -14 -21 -16 -15 -5 16 5 41 17 41 7 0 6 -10 -1 -26z m-92 -38 c-9 -24 -26 -52 -38 -62 -21 -19 -21 -19 1 24 12 23 26 54 32 69 5 14 12 23 16 20 3 -4 -2 -26 -11 -51z m-4051 -71 c7 -17 16 -68 19 -115 4 -47 9 -109 12 -139 4 -32 2 -51 -4 -47 -5 3 -12 54 -16 113 -11 177 -14 190 -63 252 l-44 56 42 -45 c23 -25 47 -59 54 -75z m654 34 c1 -23 -12 -60 -35 -105 -53 -100 -59 -100 -24 -1 17 49 34 112 37 140 6 43 8 48 14 27 4 -14 7 -41 8 -61z m2508 49 c-3 -8 -6 -5 -6 6 -1 11 2 17 5 13 3 -3 4 -12 1 -19z m-558 -78 c1 -38 -2 -50 -9 -40 -14 23 -22 87 -14 112 7 22 7 22 15 3 4 -11 8 -45 8 -75z m1099 60 c-13 -39 -27 -47 -20 -12 4 22 17 41 29 42 1 0 -3 -14 -9 -30z m47 -79 c-26 -57 -88 -131 -101 -118 -16 16 37 126 90 187 29 33 31 34 34 13 2 -13 -9 -49 -23 -82z m-2490 78 c-4 -12 -19 -33 -34 -48 -15 -14 -17 -17 -4 -7 25 21 30 11 9 -16 -17 -23 -94 -58 -126 -57 -19 0 -13 5 22 17 26 9 50 20 54 25 4 4 -12 1 -36 -8 -24 -8 -46 -13 -48 -10 -9 9 70 85 108 105 47 26 63 25 55 -1z m2801 -28 c-15 -15 -16 -13 -4 19 9 26 13 30 16 16 2 -10 -3 -26 -12 -35z m-4472 23 c3 -8 2 -12 -4 -9 -6 3 -10 10 -10 16 0 14 7 11 14 -7z m3391 -45 c52 -48 53 -60 4 -30 -19 12 -43 21 -54 21 -30 0 -46 14 -39 33 10 28 42 19 89 -24z m-3483 -3 c4 3 11 -5 18 -18 11 -22 10 -22 -4 -4 -21 26 -20 13 0 -27 l16 -32 -30 29 c-17 16 -36 43 -42 59 l-10 31 23 -22 c13 -12 26 -20 29 -16z m4078 -120 c-38 -136 -69 -313 -70 -397 0 -19 -7 -44 -15 -55 -13 -17 -14 -10 -9 66 9 134 33 321 48 365 24 68 40 129 39 142 0 7 3 11 7 8 4 -3 13 2 20 10 7 9 15 14 17 11 2 -2 -14 -69 -37 -150z m-1016 75 l7 -43 -27 31 c-24 29 -25 35 -13 57 15 30 23 19 33 -45z m-1124 -128 c-19 -17 -36 -30 -37 -29 -2 1 12 51 30 111 l32 108 5 -79 5 -79 -35 -32z m2120 177 c0 -16 -117 -130 -134 -130 -18 0 -22 25 -6 35 6 4 8 10 6 14 -8 12 58 71 90 81 40 11 44 12 44 0z m-391 -130 c0 -18 -44 64 -53 100 -4 14 7 0 23 -30 17 -30 30 -62 30 -70z m-3590 42 l-1 -47 -13 31 c-8 17 -17 44 -21 59 -6 25 -5 26 15 16 17 -10 21 -20 20 -59z m663 -309 c-2 -247 -6 -372 -12 -361 -52 90 -158 587 -137 641 3 8 21 17 40 21 19 3 52 22 73 41 21 19 39 34 39 35 0 0 -1 -170 -3 -377z m1594 228 c-24 -102 -46 -151 -46 -101 0 32 26 141 48 205 28 82 27 17 -2 -104z m1092 140 c11 -7 11 -14 -1 -44 -18 -43 -42 -57 -96 -57 -34 0 -39 3 -34 18 24 67 90 109 131 83z m-1942 -106 c-3 -52 -11 -107 -17 -122 l-11 -28 -13 37 c-10 27 -11 47 -4 75 18 68 40 133 46 133 3 0 3 -43 -1 -95z m-1237 -5 c36 -31 83 -67 103 -81 21 -14 35 -29 30 -34 -4 -5 -1 -5 5 -1 27 15 132 -67 188 -148 36 -52 64 -144 64 -206 0 -23 -1 -23 -14 8 -14 33 -137 216 -176 262 -30 36 -13 7 58 -98 35 -51 79 -125 99 -165 20 -39 45 -84 56 -99 11 -16 16 -28 12 -28 -4 0 2 -10 14 -23 34 -37 54 -97 59 -182 l5 -80 -31 52 c-17 28 -56 73 -87 100 -96 81 -104 91 -104 119 l0 27 23 -21 c40 -38 39 -24 -1 31 -21 28 -44 62 -51 75 -12 22 -11 23 8 13 11 -6 49 -34 85 -61 36 -28 68 -50 72 -50 14 0 -23 34 -78 71 -31 22 -64 49 -73 62 -34 47 -155 262 -155 276 0 17 -66 108 -100 138 -37 33 -48 28 -15 -7 25 -26 28 -36 26 -82 -1 -29 -4 -54 -6 -56 -1 -2 -15 33 -30 78 -15 45 -24 84 -21 88 4 3 -17 30 -46 60 -48 49 -50 53 -19 36 18 -11 63 -44 100 -74z m1086 -88 c-8 -25 -15 -75 -15 -112 0 -63 -2 -68 -34 -97 l-35 -30 -6 61 c-4 37 -2 80 5 106 21 84 63 205 79 230 16 24 16 23 19 -44 2 -43 -3 -86 -13 -114z m1333 131 c50 -80 98 -213 76 -213 -23 0 -44 24 -44 51 0 18 -4 28 -10 24 -5 -3 -10 -3 -10 2 0 4 -11 47 -24 96 -14 48 -23 87 -21 87 1 0 16 -21 33 -47z m372 28 c5 -11 10 -32 10 -48 l-1 -28 -19 24 c-21 24 -27 71 -10 71 5 0 14 -9 20 -19z m459 -1 c21 -10 41 -26 45 -35 3 -8 -4 -39 -15 -68 -12 -28 -45 -119 -74 -201 -48 -134 -52 -151 -38 -164 26 -27 -6 -147 -55 -204 -25 -30 -32 -21 -32 42 0 51 5 66 32 104 28 40 31 52 29 107 -1 35 -6 70 -11 80 -7 11 -5 32 6 61 9 24 13 58 10 77 -3 20 1 45 10 63 8 16 14 41 12 56 -2 23 28 102 39 102 2 0 21 -9 42 -20z m-1738 -19 l24 -20 -20 -20 c-48 -49 -195 -75 -229 -41 -15 15 36 60 68 60 13 0 43 9 67 20 55 24 61 25 90 1z m1951 -126 c11 -16 1 -18 -34 -6 -41 13 -112 83 -105 103 2 7 -3 22 -12 33 -9 11 20 -12 64 -50 44 -38 83 -74 87 -80z m543 11 l-17 -25 -29 34 -30 33 43 45 43 44 3 -53 c2 -36 -2 -61 -13 -78z m-2118 -68 c-2 -35 -3 -7 -3 62 0 69 1 97 3 63 2 -35 2 -91 0 -125z m-2026 22 c-5 -80 -9 -137 -9 -127 -1 9 -6 17 -12 17 -5 0 -9 -3 -9 -7 1 -5 1 -21 -1 -38 -1 -26 -3 -27 -10 -10 -11 25 -12 107 -2 132 5 13 9 6 13 -27 4 -32 6 -18 7 53 1 57 6 97 12 97 6 0 10 14 10 32 0 17 2 29 4 27 2 -2 1 -69 -3 -149z m2899 79 c0 -15 9 -55 19 -90 45 -152 80 -289 90 -354 20 -136 23 -188 12 -181 -14 9 -27 59 -51 198 -19 102 -57 244 -65 236 -2 -2 6 -37 16 -78 11 -41 22 -100 25 -130 6 -53 6 -54 -10 -33 -17 23 -26 60 -47 205 -7 45 -18 83 -27 90 -13 11 -14 10 -5 -7 16 -29 41 -226 28 -213 -5 5 -33 164 -40 228 -1 14 -8 38 -14 53 -17 44 -13 77 15 115 l27 35 13 -24 c7 -13 13 -36 14 -50z m70 55 c0 -8 -4 -12 -10 -9 -5 3 -10 10 -10 16 0 5 5 9 10 9 6 0 10 -7 10 -16z m-942 -399 c5 -71 6 -140 1 -152 -11 -28 -80 -125 -86 -119 -2 2 0 27 5 55 5 28 6 48 1 45 -4 -2 -11 -31 -15 -64 -4 -33 -10 -60 -13 -60 -4 0 -12 23 -17 50 -10 49 -10 52 17 71 22 15 27 26 26 54 -1 19 -6 35 -10 35 -5 0 -6 28 -3 63 l5 62 -13 -45 -14 -45 -1 88 -1 88 35 -3 c50 -3 53 9 6 23 l-41 12 0 76 0 75 48 49 47 48 7 -138 c4 -76 11 -196 16 -268z m1880 397 c17 -11 7 -35 -26 -59 -29 -21 -92 -46 -100 -39 -8 8 27 50 65 79 40 30 42 30 61 19z m-1617 -115 c-13 -13 -15 33 -3 84 6 32 7 30 10 -20 2 -30 -2 -59 -7 -64z m728 8 c0 -16 -4 -48 -9 -70 -7 -35 -9 -37 -15 -18 -4 13 -11 20 -16 17 -5 -3 -6 15 -3 40 4 29 3 46 -4 46 -5 0 -10 -6 -9 -12 1 -30 -4 -48 -12 -48 -12 0 -34 64 -29 87 3 15 4 15 21 -1 9 -10 17 -12 17 -6 0 6 5 8 10 5 6 -4 10 9 11 32 l1 38 19 -40 c10 -22 18 -53 18 -70z m260 13 c-24 -62 -45 -93 -74 -112 -22 -15 -24 -14 -34 16 -16 46 -13 93 8 119 20 25 102 51 113 35 3 -5 -2 -31 -13 -58z m-3164 -282 c14 -66 25 -153 25 -195 0 -68 -3 -81 -30 -121 -33 -50 -40 -34 -15 35 8 22 14 68 15 101 0 67 -40 243 -65 280 -8 13 -15 31 -15 41 0 15 -2 16 -10 3 -11 -17 -14 139 -3 179 8 30 62 -147 98 -323z m3921 308 c-5 -13 -2 -15 13 -11 12 3 27 -3 37 -14 25 -27 7 -76 -62 -174 l-56 -80 7 55 c10 85 47 240 58 240 5 0 6 -7 3 -16z m-2426 -5 c0 -6 -5 -20 -12 -32 l-12 -22 -6 25 c-4 14 -2 28 4 32 16 11 26 10 26 -3z m2068 -43 c-19 -17 -27 -26 -19 -20 37 26 41 25 41 -1 0 -20 -18 -43 -71 -93 -63 -59 -136 -141 -191 -214 l-18 -23 10 27 c9 26 38 76 50 88 3 3 6 28 8 55 3 62 32 159 44 147 5 -5 11 -25 15 -45 4 -27 -1 -47 -20 -81 -34 -62 -25 -58 18 7 19 28 44 66 57 82 12 17 18 27 14 23 -9 -8 -76 39 -76 52 0 16 70 -13 70 -29 1 -11 4 -9 13 6 7 12 28 34 47 48 47 35 53 12 8 -29z m870 27 c-2 -19 -21 -40 -65 -75 -35 -27 -63 -46 -63 -43 0 17 55 98 82 120 38 32 50 32 46 -2z m-1031 -28 c-29 -131 -67 -229 -171 -438 -63 -128 -135 -263 -160 -302 l-46 -70 0 50 c0 82 16 118 86 197 56 62 74 92 121 203 30 72 56 144 58 160 2 17 20 78 40 137 35 100 38 106 57 95 12 -8 17 -20 15 -32z m946 19 c-9 -15 -19 -21 -21 -15 -4 13 16 41 29 41 5 0 2 -12 -8 -26z m-3194 -21 c-2 -128 -18 -262 -38 -308 -27 -62 -102 -187 -108 -181 -3 3 9 25 27 51 63 92 71 122 71 271 -1 96 3 145 14 169 19 46 35 44 34 -2z m194 25 c-5 -7 -45 -62 -88 -122 -79 -108 -106 -126 -64 -44 28 56 105 165 121 171 26 10 41 8 31 -5z m102 -22 c12 -63 -41 -109 -141 -123 l-47 -6 41 59 c46 69 60 82 99 94 42 12 42 13 48 -24z m2321 26 c-3 -5 -14 -93 -25 -196 -20 -186 -26 -207 -64 -228 -19 -10 -20 -8 -14 51 4 33 14 77 22 97 22 53 11 54 -17 2 l-23 -43 -3 35 c-7 72 7 119 54 171 53 60 58 76 8 28 l-37 -34 24 44 c13 24 35 52 48 62 25 20 35 24 27 11z m-4237 -132 c0 -8 -7 5 -15 30 -7 25 -13 59 -13 75 0 20 5 10 14 -30 8 -33 14 -67 14 -75z m3431 72 c7 -20 26 -68 42 -106 34 -78 38 -144 13 -236 l-14 -55 4 57 c3 32 -1 84 -9 118 -18 74 -27 88 -19 28 6 -38 4 -42 -9 -30 -9 7 -26 36 -38 64 -18 42 -21 65 -18 119 7 99 25 114 48 41z m719 -11 c-18 -28 -34 -50 -36 -48 -2 2 0 21 5 43 5 26 16 43 32 51 13 7 26 11 28 9 1 -2 -12 -27 -29 -55z m-645 -59 c28 -93 29 -99 2 -57 -35 55 -53 94 -60 135 l-7 35 24 -28 c13 -16 32 -54 41 -85z m-2928 28 c3 -14 14 -41 25 -61 23 -45 24 -73 3 -216 -15 -101 -15 -121 -1 -207 14 -87 14 -102 0 -151 -18 -64 -31 -61 -59 11 -16 41 -16 49 2 136 20 102 24 243 10 357 -7 56 -6 72 2 67 20 -12 14 24 -8 51 -11 14 -20 40 -20 57 l0 31 20 -25 c11 -14 23 -36 26 -50z m1061 8 c-2 -13 -4 -3 -4 22 0 25 2 35 4 23 2 -13 2 -33 0 -45z m1542 -68 c6 -41 14 -86 17 -100 l6 -25 -16 22 c-9 12 -20 45 -26 75 l-9 53 3 -48 4 -49 -29 28 c-34 33 -34 31 -12 80 16 38 16 39 25 14 7 -22 7 -21 3 6 -2 17 -1 42 3 55 6 23 6 23 13 -6 4 -16 12 -64 18 -105z m1460 42 c-91 -93 -173 -183 -217 -237 -30 -36 -28 -30 19 60 29 55 63 114 76 132 23 32 182 137 192 128 3 -3 -29 -40 -70 -83z m-2419 28 c0 -50 0 -50 -32 -50 -56 0 -60 11 -21 58 19 23 39 42 44 42 5 0 9 -22 9 -50z m2512 -72 c-16 -56 -35 -128 -41 -159 -7 -31 -21 -65 -31 -74 -26 -23 -25 -13 5 73 14 39 25 88 25 107 0 45 28 134 49 158 25 30 24 5 -7 -105z m-1893 97 c85 -20 165 -64 247 -136 112 -96 251 -283 242 -326 -2 -11 -55 35 -170 150 -92 91 -193 183 -225 205 -62 41 -105 65 -63 35 78 -57 174 -140 235 -205 166 -174 203 -217 197 -224 -4 -4 -2 -4 5 0 18 10 88 -84 106 -141 30 -95 29 -112 -3 -50 -17 31 -32 57 -35 57 -2 0 9 -29 26 -65 16 -35 29 -75 29 -87 0 -19 2 -20 10 -8 8 11 9 7 4 -15 -4 -16 -7 -31 -8 -32 -6 -8 -50 74 -57 107 -9 42 -72 176 -90 195 -6 6 6 -24 25 -65 19 -42 38 -89 42 -105 7 -27 6 -29 -9 -17 -9 8 -37 67 -62 132 -31 79 -62 139 -94 182 -99 131 -232 229 -364 270 -132 40 -301 11 -358 -61 -24 -30 -24 -21 -1 22 48 87 79 110 171 128 46 8 46 8 -12 4 -31 -2 -71 -10 -87 -19 -17 -8 -30 -11 -30 -6 0 12 61 61 95 76 41 18 156 17 234 -1z m-729 1 c0 -2 -8 -10 -17 -17 -16 -13 -17 -12 -4 4 13 16 21 21 21 13z m2746 -65 c-22 -42 -51 -56 -76 -38 -19 13 -19 14 8 39 15 14 38 32 52 42 21 14 25 14 28 2 2 -8 -4 -28 -12 -45z m-1241 12 c-9 -21 -24 -47 -34 -58 -10 -11 -21 -27 -24 -35 -3 -8 -6 2 -6 22 -1 28 7 46 30 73 40 45 53 45 34 -2z m-598 5 c-3 -8 -6 -5 -6 6 -1 11 2 17 5 13 3 -3 4 -12 1 -19z m-1115 -43 c-10 -35 -33 -47 -25 -13 6 24 23 51 29 45 2 -2 0 -16 -4 -32z m2768 -75 c-24 -115 -61 -228 -95 -286 -51 -87 -49 -65 16 194 28 114 73 212 90 195 5 -5 0 -50 -11 -103z m-2819 51 c-22 -42 -104 -120 -130 -123 -45 -5 -81 -3 -81 4 0 5 14 27 30 51 32 44 80 77 115 77 11 1 34 7 50 15 17 7 31 14 33 14 1 1 -6 -16 -17 -38z m2175 2 c7 -37 -18 -311 -31 -345 -4 -10 -11 -15 -16 -12 -5 3 -9 -1 -9 -9 0 -8 -8 -21 -19 -31 -17 -15 -16 -5 10 116 16 73 32 175 35 226 7 97 18 117 30 55z m-41 -40 c-11 -118 -66 -386 -87 -421 -11 -18 -22 -31 -25 -29 -2 3 3 42 11 87 9 45 16 123 17 174 0 137 10 181 49 221 19 19 35 35 37 35 2 0 1 -30 -2 -67z m-1755 48 c23 -7 22 -8 -15 -15 -76 -15 -305 -135 -385 -203 -39 -32 -39 -11 0 41 16 21 27 42 25 46 -7 11 35 47 95 79 30 17 51 31 47 31 -21 0 -113 -56 -180 -109 -84 -68 -111 -81 -168 -81 l-41 0 24 29 c18 23 31 30 60 30 26 1 53 13 100 46 34 24 94 60 133 80 67 34 73 35 175 34 58 -1 116 -4 130 -8z m2664 -17 c55 -21 -28 -108 -122 -129 -31 -6 -33 -5 -24 12 16 29 107 123 119 123 6 0 18 -3 27 -6z m-1285 -84 c1 -26 -5 -52 -11 -59 -10 -11 -10 -12 -1 -7 9 5 11 2 6 -11 -8 -23 -74 -93 -87 -93 -6 0 10 21 34 47 31 31 35 39 15 24 -26 -20 -30 -21 -33 -7 -11 52 54 208 70 168 4 -9 7 -37 7 -62z m1151 58 c0 -27 -16 -55 -25 -46 -9 9 5 68 16 68 5 0 9 -10 9 -22z m-4371 -90 l8 -73 2 55 c2 50 3 53 13 27 7 -21 7 -41 -3 -74 -9 -35 -14 -42 -19 -28 -6 17 -7 16 -13 -6 -11 -40 -8 -88 8 -118 8 -16 18 -48 21 -72 7 -40 6 -43 -9 -30 -9 7 -19 29 -22 50 -3 20 -17 77 -30 126 -31 111 -31 154 -4 207 27 52 36 40 48 -64z m1841 -1 c0 -96 -2 -105 -24 -126 l-23 -22 -6 45 c-4 25 -16 71 -27 103 -11 31 -20 60 -20 64 0 8 68 38 88 38 9 1 12 -26 12 -102z m2570 89 c0 -7 -6 -19 -14 -25 -11 -9 -12 -6 -8 14 5 26 22 35 22 11z m-2076 -21 c3 -8 8 -38 12 -66 6 -42 3 -55 -15 -79 -11 -16 -21 -34 -21 -40 0 -6 -53 -62 -117 -125 -286 -277 -396 -387 -486 -485 -53 -57 -97 -100 -97 -95 0 6 24 42 53 80 29 39 53 73 55 78 1 4 4 6 6 5 8 -6 51 40 109 117 143 188 219 268 332 350 22 16 48 38 58 49 10 12 16 16 13 9 -4 -7 1 -9 14 -6 16 4 18 8 9 19 -8 10 -9 43 -4 109 l7 95 33 0 c20 0 35 -6 39 -15z m166 -21 c5 -5 5 -27 0 -49 -5 -22 -10 -58 -10 -80 l0 -40 -34 50 c-18 28 -42 57 -52 65 -21 18 -22 18 43 -83 79 -122 101 -187 63 -187 -27 0 -60 36 -99 109 -28 54 -31 66 -31 154 l0 95 56 -13 c31 -7 60 -17 64 -21z m-2250 -124 c-7 -52 -11 -136 -9 -187 5 -115 -11 -94 -19 24 -4 76 8 214 25 283 l7 25 4 -25 c2 -14 -1 -68 -8 -120z m907 82 c-8 -72 -29 -124 -67 -164 l-30 -31 0 57 c0 57 18 106 62 169 31 44 42 34 35 -31z m1041 31 c-27 -30 -99 -149 -96 -161 3 -13 -25 -97 -40 -117 -13 -19 -14 -19 -7 4 5 16 4 21 -4 17 -6 -4 -11 -18 -11 -30 0 -13 -7 -29 -15 -36 -53 -44 48 215 118 300 15 20 59 50 71 50 5 0 -2 -12 -16 -27z m1501 -2 c-3 -6 -10 -7 -18 -2 -7 5 -10 14 -6 21 9 14 29 -2 24 -19z m-2015 -132 c-12 -115 -19 -148 -35 -164 -19 -19 -19 -19 -19 60 0 97 46 272 66 252 2 -2 -3 -69 -12 -148z m1283 109 c-3 -7 -5 -2 -5 12 0 14 2 19 5 13 2 -7 2 -19 0 -25z m-1882 -8 c-9 -16 -18 -30 -21 -30 -2 0 2 14 11 30 9 17 18 30 21 30 2 0 -2 -13 -11 -30z m-770 -100 c0 -59 -6 -92 -29 -153 -15 -43 -30 -77 -31 -75 -2 2 1 39 6 83 4 44 11 122 15 173 7 87 8 91 23 70 10 -15 15 -46 16 -98z m1289 66 c-27 -29 -76 -90 -109 -134 -38 -51 -71 -85 -89 -91 -16 -6 -31 -10 -32 -8 -2 2 8 27 22 57 14 30 28 64 30 74 2 11 9 25 16 32 19 19 190 124 201 124 5 0 -13 -24 -39 -54z m436 -78 c-31 -73 -65 -159 -74 -190 -9 -31 -33 -78 -53 -105 -21 -26 -66 -86 -101 -133 -76 -101 -94 -120 -58 -63 14 23 44 84 67 135 23 51 73 138 112 193 39 55 81 127 95 160 27 67 60 135 66 135 2 0 -22 -60 -54 -132z m508 85 c6 -27 14 -82 17 -123 6 -74 5 -75 -11 -45 -9 17 -22 37 -29 45 -7 8 -15 27 -19 42 -7 29 11 128 23 128 4 0 12 -21 19 -47z m-1110 -2 c-12 -15 -28 -37 -35 -47 -6 -11 -12 -14 -12 -7 -1 12 56 83 66 83 3 0 -6 -13 -19 -29z m277 -190 c-13 -14 -15 -13 -15 7 0 13 6 67 13 120 l12 97 3 -104 c2 -84 0 -108 -13 -120z m901 74 c19 -114 15 -193 -14 -256 l-20 -44 -1 185 c-1 102 -4 203 -7 225 -5 40 -5 40 10 14 8 -14 23 -70 32 -124z m443 31 c-2 -155 -29 -169 -37 -19 -3 45 -1 95 3 110 6 27 7 27 21 9 10 -14 14 -45 13 -100z m421 54 c-9 -16 -89 -70 -105 -70 -9 0 52 87 78 110 l21 21 8 -21 c4 -12 4 -30 -2 -40z m-3607 -22 c6 -4 14 -5 17 -3 7 4 9 -42 3 -94 -6 -51 -22 -38 -24 19 -1 31 -2 32 -8 10 -7 -25 -7 -25 -19 9 -7 19 -12 55 -12 80 l1 46 16 -30 c9 -16 21 -33 26 -37z m2826 -15 c22 -26 30 -46 28 -67 -1 -17 -6 -30 -10 -28 -4 1 -12 2 -18 2 -11 0 -54 89 -46 96 2 3 17 -12 32 -31 15 -20 30 -34 33 -30 3 3 -14 26 -38 50 -32 33 -46 41 -53 32 -6 -9 -7 -8 -4 3 2 8 0 24 -6 34 -8 17 -6 17 21 -3 17 -12 45 -38 61 -58z m278 45 c-3 -7 -5 -2 -5 12 0 14 2 19 5 13 2 -7 2 -19 0 -25z m1128 0 c-2 -13 -18 -88 -35 -167 -28 -128 -49 -199 -50 -165 0 24 32 182 51 249 11 39 23 78 25 88 8 25 15 21 9 -5z m-414 -108 c-9 -24 -10 -23 -10 10 -1 19 3 53 7 75 l7 40 3 -50 c2 -28 -2 -62 -7 -75z m790 81 c-10 -22 -26 -34 -68 -50 -30 -12 -57 -21 -59 -21 -13 0 33 53 57 66 37 19 41 18 34 -8 -3 -13 4 -6 15 15 24 44 39 43 21 -2z m-4564 -13 c-3 -7 -5 -2 -5 12 0 14 2 19 5 13 2 -7 2 -19 0 -25z m1950 10 c-3 -8 -6 -5 -6 6 -1 11 2 17 5 13 3 -3 4 -12 1 -19z m-487 3 c0 -9 -24 -21 -43 -21 -6 0 -2 7 9 15 22 17 34 19 34 6z m2530 -7 c0 -9 -59 -73 -130 -141 -72 -69 -151 -153 -176 -187 -50 -65 -116 -191 -156 -296 -14 -36 -29 -74 -33 -85 -5 -11 -8 -23 -7 -27 2 -10 -92 -376 -118 -458 l-20 -65 6 65 c10 105 39 228 77 330 20 52 34 96 33 98 -6 6 -74 -166 -95 -240 -12 -41 -30 -137 -41 -214 -11 -76 -24 -152 -29 -169 -17 -55 -12 5 14 163 27 164 27 168 20 161 -9 -10 -55 -303 -55 -357 -1 -59 -33 -248 -44 -259 -18 -18 3 214 40 432 89 532 147 732 262 903 89 131 228 254 367 325 81 42 85 43 85 21z m403 -21 c-19 -47 -24 -54 -62 -76 -19 -11 -31 -14 -31 -7 0 10 97 120 106 120 2 0 -4 -17 -13 -37z m-4686 -61 c14 -24 23 -45 20 -48 -6 -6 -77 106 -77 121 1 13 24 -17 57 -73z m3839 53 c-9 -14 -23 -36 -32 -50 -9 -13 -36 -36 -60 -50 -25 -15 -60 -40 -79 -57 -19 -16 -35 -27 -35 -23 0 3 21 37 46 73 38 55 58 73 108 99 33 17 63 32 65 32 2 1 -4 -10 -13 -24z m889 5 c-20 -22 -31 -20 -22 5 4 8 14 15 23 15 16 0 16 -2 -1 -20z m-1718 -12 c-3 -8 -6 -5 -6 6 -1 11 2 17 5 13 3 -3 4 -12 1 -19z m-326 -133 c-34 -82 -73 -236 -91 -362 -10 -70 -18 -90 -51 -134 -38 -51 -39 -52 -39 -23 0 61 22 163 57 259 20 55 51 151 69 213 18 62 43 131 56 154 l23 41 3 -37 c2 -25 -7 -62 -27 -111z m-913 123 c-5 -13 -41 -39 -96 -70 -24 -13 -35 -29 -47 -70 -19 -66 -22 -71 -65 -97 -48 -29 -53 -27 -46 17 9 51 -10 22 -24 -38 -6 -25 -20 -56 -31 -70 l-20 -25 3 96 c3 91 5 99 40 155 20 32 47 67 61 78 38 28 233 49 225 24z m-1459 -57 c6 -19 11 -48 11 -65 l-1 -31 -13 25 c-15 29 -31 129 -17 115 4 -6 13 -25 20 -44z m1475 37 c-20 -34 -125 -141 -131 -134 -2 2 -1 15 2 29 5 17 26 38 58 59 29 18 56 38 60 45 10 17 21 17 11 1z m1042 -120 c11 -9 31 -21 47 -27 17 -7 27 -18 27 -31 0 -23 -4 -24 -30 -10 -18 10 -19 9 -3 -18 20 -35 11 -71 -12 -52 -8 7 -15 20 -15 28 0 12 -3 13 -11 5 -6 -6 -11 -32 -11 -58 l-1 -48 -28 55 c-15 30 -34 60 -43 67 -9 8 -13 23 -11 39 2 15 7 62 11 105 l6 78 28 -58 c15 -32 36 -66 46 -75z m711 83 c-3 -28 -13 -64 -22 -81 -27 -51 -26 -42 1 108 3 12 9 22 16 22 7 0 9 -16 5 -49z m-39 5 c6 -30 -30 -166 -43 -166 -7 0 -15 7 -18 15 -7 17 7 108 22 148 12 31 34 32 39 3z m307 -96 c-23 -118 -32 -109 -15 13 9 61 26 114 35 105 1 -1 -8 -55 -20 -118z m540 88 c-3 -13 -12 -90 -20 -171 -17 -167 -38 -237 -30 -97 7 108 13 163 21 197 4 16 4 25 0 22 -14 -13 -55 -177 -60 -239 l-5 -65 13 70 c8 40 14 57 15 40 1 -44 -26 -203 -43 -250 -14 -40 -15 -39 -15 64 -1 57 -3 102 -6 99 -3 -2 -7 -59 -9 -126 -3 -119 -4 -121 -41 -186 -22 -36 -40 -64 -42 -63 -1 2 2 41 8 88 6 46 11 97 10 114 -2 67 98 334 180 482 27 49 31 52 24 21z m-2454 -58 c-7 -33 -16 -113 -20 -177 l-8 -116 -39 -34 c-21 -19 -47 -38 -56 -43 -21 -13 -17 2 62 230 33 94 60 181 60 192 0 12 3 18 6 15 4 -4 1 -34 -5 -67z m1021 23 c28 -64 32 -241 5 -293 -13 -26 -16 -29 -12 -10 3 14 8 72 11 130 5 89 3 114 -13 163 -24 69 -20 74 9 10z m-1770 -50 c7 -123 -8 -416 -27 -553 -9 -63 -20 -176 -25 -250 -5 -74 -15 -153 -23 -175 -14 -35 -15 -56 -3 -44 2 2 22 56 44 119 84 241 131 337 234 481 27 37 69 104 94 150 25 46 58 97 72 112 30 32 184 126 249 152 73 29 72 13 -1 -63 -50 -52 -95 -86 -163 -124 -101 -56 -179 -132 -201 -196 l-11 -33 37 22 c20 12 44 28 52 35 8 7 27 17 43 23 21 8 27 8 27 -3 0 -18 -51 -61 -103 -87 -43 -23 -127 -97 -159 -141 -29 -42 -13 -34 47 23 30 28 59 48 64 44 7 -3 11 2 11 14 0 11 8 25 19 30 17 9 18 7 10 -32 -4 -23 -8 -72 -9 -108 0 -41 -5 -72 -15 -85 -13 -17 -14 -10 -15 71 -1 69 -4 84 -11 66 -5 -14 -49 -66 -97 -115 -104 -107 -141 -181 -207 -406 -18 -61 -54 -153 -66 -165 -13 -13 -11 31 5 119 8 41 12 92 8 113 -6 36 -7 35 -18 -32 -9 -57 -12 -62 -12 -30 -1 22 3 72 9 110 55 379 119 937 119 1036 0 5 4 9 9 9 5 0 11 -39 13 -87z m829 -36 c-13 -13 -14 28 -3 88 7 39 7 39 10 -19 2 -32 -2 -64 -7 -69z m2209 -13 c-74 -232 -120 -463 -120 -607 0 -84 -65 -382 -91 -419 -13 -17 -25 -26 -27 -20 -2 6 6 58 17 114 21 107 24 129 67 438 36 269 63 394 109 505 7 18 -101 -76 -132 -115 -7 -8 -13 -10 -13 -4 0 19 218 250 228 240 1 -2 -16 -61 -38 -132z m-970 29 c30 -81 26 -119 -37 -304 -31 -93 -57 -168 -58 -167 -1 2 2 93 6 203 5 130 13 217 23 250 9 28 16 64 16 80 1 29 1 29 15 11 8 -11 24 -44 35 -73z m-1871 55 c-6 -11 -33 -76 -59 -142 -44 -109 -49 -118 -55 -91 -4 17 -13 49 -20 72 l-14 43 77 70 c42 38 78 70 80 70 1 0 -2 -10 -9 -22z m867 -25 c-16 -116 -29 -131 -39 -46 -4 40 -2 52 16 71 11 12 22 22 25 22 2 0 1 -21 -2 -47z m1564 40 c1 -21 -64 -365 -77 -413 -19 -69 -25 -56 -44 92 -10 86 -10 115 0 148 7 23 15 39 18 36 4 -3 15 -41 25 -84 20 -84 20 -88 1 96 -6 61 -5 64 27 97 33 34 50 43 50 28z m-640 -28 c0 -60 -53 -140 -113 -172 -28 -14 -29 -14 -22 9 36 121 135 241 135 163z m-1410 -15 c0 -9 -32 -30 -46 -30 -4 0 1 9 11 20 19 21 35 26 35 10z m-1598 -53 c81 -36 90 -55 94 -195 4 -96 2 -113 -8 -92 -6 14 -33 70 -59 125 -26 55 -64 127 -85 160 -20 33 -28 53 -18 44 11 -9 44 -28 76 -42z m579 -26 c-6 -38 -12 -154 -13 -258 -1 -204 -4 -202 -18 12 l-8 140 2 -140 3 -140 -29 85 c-27 82 -28 86 -12 125 25 63 61 176 69 218 13 66 17 32 6 -42z m39 -82 c-5 -79 -10 -220 -11 -314 l-2 -170 -8 135 c-8 124 0 326 17 455 12 86 14 38 4 -106z m665 -107 c-6 -17 -55 72 -55 100 0 9 12 50 28 90 l27 73 3 -124 c1 -69 0 -131 -3 -139z m703 240 c-21 -28 -108 -105 -113 -100 -3 3 22 30 54 61 59 57 84 73 59 39z m609 -113 c-5 -121 -8 -134 -33 -170 -15 -22 -28 -38 -29 -37 -4 5 60 338 64 338 2 0 1 -59 -2 -131z m-500 74 c-3 -10 -5 -2 -5 17 0 19 2 27 5 18 2 -10 2 -26 0 -35z m1423 -29 c-28 -66 -67 -114 -90 -114 -18 0 -17 6 14 63 37 67 88 126 94 109 2 -6 -6 -32 -18 -58z m-2770 -39 c0 -25 -53 -150 -58 -136 -2 7 -1 56 3 109 l7 96 24 -27 c13 -16 24 -35 24 -42z m1630 1 c-27 -81 -47 -181 -60 -316 -13 -140 -20 -183 -26 -177 -4 4 2 82 22 277 9 82 68 289 80 277 2 -2 -5 -30 -16 -61z m-774 -72 c-24 -65 -49 -146 -55 -178 -11 -58 -21 -85 -21 -54 0 9 9 60 20 113 11 53 20 111 20 127 0 20 12 44 38 73 20 24 38 42 40 40 1 -1 -17 -56 -42 -121z m3014 37 c-22 -70 -33 -90 -44 -72 -8 13 18 105 39 138 27 41 29 14 5 -66z m-1966 11 l28 -59 -22 -31 c-22 -29 -22 -30 -5 -88 9 -32 26 -76 37 -97 10 -21 18 -46 16 -55 -6 -25 -43 51 -62 125 -16 60 -36 274 -26 268 3 -2 18 -30 34 -63z m1316 42 c-6 -14 -30 -50 -55 -78 -73 -85 -131 -230 -180 -444 -19 -82 -44 -153 -93 -260 -38 -81 -86 -191 -107 -245 -21 -53 -40 -96 -42 -93 -6 6 61 182 118 313 46 103 104 281 96 289 -2 2 -16 -32 -32 -76 -15 -45 -29 -79 -32 -76 -8 8 18 89 77 241 101 258 137 328 218 417 41 45 45 47 32 12z m-634 -5 c3 -6 3 -45 -2 -87 -7 -72 -8 -74 -14 -37 -21 114 -22 135 -6 135 8 0 18 -5 22 -11z m-1009 -21 c-3 -8 -6 -5 -6 6 -1 11 2 17 5 13 3 -3 4 -12 1 -19z m-298 -104 c-72 -119 -187 -276 -274 -374 -32 -35 -78 -92 -103 -125 -51 -70 -65 -84 -33 -35 12 19 42 76 66 125 47 95 137 223 239 340 34 39 83 96 110 128 27 32 51 56 54 53 3 -3 -24 -53 -59 -112z m934 -4 c-8 -377 -7 -353 -30 -390 -25 -39 -29 -36 -12 7 6 15 11 61 11 102 -1 41 4 84 10 95 6 11 -10 2 -38 -23 -29 -25 -50 -38 -52 -31 -6 16 24 121 50 181 17 39 18 49 7 67 -12 19 -10 24 11 47 13 14 18 25 12 25 -6 0 -19 -11 -28 -25 -17 -26 -54 -52 -54 -38 0 8 101 103 110 103 3 0 4 -54 3 -120z m-203 17 l-1 -42 -24 28 c-18 21 -25 39 -25 70 l1 42 24 -28 c18 -21 25 -39 25 -70z m-2604 -20 c0 -61 9 -113 33 -202 29 -103 39 -171 27 -182 -1 -2 -20 57 -41 130 -37 130 -57 291 -41 333 13 33 21 2 22 -79z m2149 -13 c-9 -55 -18 -103 -19 -109 -2 -5 -7 30 -11 78 -7 83 -6 89 15 113 13 13 25 22 27 20 3 -2 -3 -48 -12 -102z m800 -14 c-27 -55 -50 -98 -52 -96 -4 4 67 177 80 194 5 7 12 10 15 8 3 -3 -17 -51 -43 -106z m-1572 68 c-2 -18 -11 -87 -20 -153 l-17 -120 -46 -49 -47 -49 9 74 c5 41 17 101 28 133 11 33 18 62 15 64 -2 3 -25 -1 -51 -7 -25 -7 -48 -10 -51 -8 -10 11 55 70 115 107 37 22 67 40 68 40 0 0 -1 -15 -3 -32z m1327 11 c-7 -11 -14 -18 -17 -15 -3 3 0 12 7 21 18 21 23 19 10 -6z m1075 -64 c-8 -39 -21 -117 -30 -175 -9 -58 -23 -115 -30 -126 -24 -38 -137 -165 -142 -160 -9 8 47 100 102 169 54 65 55 69 55 130 0 77 17 171 37 210 8 16 16 27 18 25 2 -2 -3 -35 -10 -73z m-2695 9 c27 -63 25 -82 -15 -139 -76 -111 -76 -111 -55 -15 11 47 25 111 31 143 6 31 13 57 16 57 2 0 13 -21 23 -46z m3241 -100 c-10 -76 -19 -125 -20 -109 0 17 6 77 14 135 8 58 15 109 15 114 0 5 2 7 5 5 2 -3 -4 -68 -14 -145z m-2270 -54 c-22 -294 -19 -278 -47 -272 -23 4 -24 8 -19 51 11 97 25 268 25 315 0 38 5 56 23 74 20 22 22 22 26 5 2 -10 -2 -88 -8 -173z m508 80 c21 -127 9 -145 -33 -51 -28 63 -33 110 -14 129 20 20 36 -6 47 -78z m176 70 c14 -23 -55 -120 -86 -120 -14 0 -11 74 4 92 25 32 70 47 82 28z m1676 -54 c-15 -62 -14 -66 15 -66 14 0 23 -4 20 -9 -3 -5 12 -5 35 0 23 6 43 8 45 7 1 -2 -3 -19 -9 -39 -11 -35 -12 -36 -85 -48 -40 -7 -76 -10 -79 -8 -2 3 8 55 23 116 17 67 32 107 37 102 6 -6 5 -27 -2 -55z m-4364 22 c-3 -8 -6 -5 -6 6 -1 11 2 17 5 13 3 -3 4 -12 1 -19z m2981 -85 c-25 -49 -53 -112 -63 -140 -9 -29 -21 -55 -26 -58 -12 -8 -13 -9 20 86 42 125 91 223 104 210 8 -8 -2 -36 -35 -98z m327 2 c3 -28 2 -62 -3 -75 -8 -22 -11 -16 -26 47 -17 78 -20 116 -9 127 11 11 30 -40 38 -99z m-851 -73 c26 -51 44 -122 30 -122 -4 0 -16 7 -26 17 -17 15 -18 13 -18 -67 0 -69 -2 -81 -14 -71 -9 8 -16 45 -20 109 -3 53 -9 119 -12 145 -3 27 -3 74 1 105 l8 57 13 -62 c7 -34 24 -84 38 -111z m-397 -71 c-5 -146 -14 -197 -32 -179 -3 2 0 97 7 209 9 161 14 197 21 169 5 -19 7 -109 4 -199z m-130 197 c-3 -8 -6 -5 -6 6 -1 11 2 17 5 13 3 -3 4 -12 1 -19z m-9 -79 c1 19 5 32 8 29 5 -6 -13 -241 -22 -285 -3 -18 -11 -23 -34 -23 -17 0 -30 1 -31 3 0 1 -4 58 -8 127 -9 136 -7 145 43 198 l31 33 6 -58 c3 -36 6 -45 7 -24z m1091 14 c-18 -57 -78 -173 -89 -173 -11 0 15 71 62 170 31 67 49 69 27 3z m101 -53 c14 -76 10 -89 -24 -83 -25 5 -26 8 -26 77 0 39 -3 82 -6 96 l-6 25 25 -26 c18 -18 29 -46 37 -89z m-460 66 c0 -11 -31 -75 -39 -80 -5 -3 -7 -14 -4 -25 2 -10 -4 -36 -15 -57 l-20 -38 -8 54 c-4 30 -7 62 -5 70 3 24 91 97 91 76z m1526 -68 c-6 -66 -16 -87 -39 -88 -12 0 1 77 20 123 9 20 18 37 21 37 3 0 2 -32 -2 -72z m-3309 30 c-3 -7 -5 -2 -5 12 0 14 2 19 5 13 2 -7 2 -19 0 -25z m327 -32 c-3 -15 -8 -25 -11 -23 -2 3 -1 17 3 31 3 15 8 25 11 23 2 -3 1 -17 -3 -31z m-39 5 c-3 -5 -12 -56 -20 -112 -8 -56 -19 -107 -24 -112 -14 -14 -14 -4 0 103 9 75 28 130 45 130 3 0 3 -4 -1 -9z m2076 -49 c-4 -54 -11 -53 -11 3 0 27 3 45 7 41 4 -4 6 -24 4 -44z m-1757 13 c-9 -14 -18 -25 -21 -25 -5 0 5 18 20 38 17 22 18 13 1 -13z m2310 -78 c-12 -86 -43 -181 -44 -135 -1 67 40 251 54 237 2 -2 -2 -48 -10 -102z m-3715 62 c6 -18 10 -57 10 -88 l-2 -56 -7 67 c-6 64 -20 104 -20 62 -1 -20 -29 -76 -30 -58 0 6 6 30 14 52 8 22 12 43 9 46 -4 3 -2 6 4 6 6 0 16 -14 22 -31z m1690 -6 c-13 -21 -39 -58 -59 -83 -20 -25 -56 -75 -80 -112 -39 -61 -124 -138 -136 -125 -8 7 38 86 99 172 49 69 79 105 61 75 -9 -17 80 55 110 89 29 32 30 25 5 -16z m2336 -10 c-6 -42 -26 -72 -47 -73 -16 0 -7 34 17 77 14 23 28 43 32 43 3 0 2 -21 -2 -47z m-4141 -5 c8 -24 17 -56 20 -73 2 -16 10 -43 17 -58 11 -24 10 -30 -4 -44 -22 -22 -29 -13 -32 41 -2 25 -12 61 -24 79 -22 36 -25 54 -15 81 10 26 22 18 38 -26z m2600 -34 c5 -25 1 -66 -8 -108 -9 -37 -16 -84 -16 -104 0 -20 -4 -42 -8 -48 -4 -7 -7 59 -7 145 0 150 8 202 25 170 4 -8 11 -32 14 -55z m156 5 c0 -53 -27 -134 -57 -170 l-27 -32 -13 49 c-25 98 -14 144 47 189 39 29 50 21 50 -36z m1765 50 c-11 -4 -32 -8 -47 -8 -44 -1 -349 -118 -373 -143 -7 -7 -4 -7 10 0 40 20 227 83 232 79 2 -3 -33 -26 -79 -52 -46 -25 -129 -79 -185 -119 -98 -70 -233 -141 -253 -134 -34 11 174 204 308 284 87 53 247 97 362 100 32 1 39 -1 25 -7z m-2088 -61 c-3 -7 -5 -2 -5 12 0 14 2 19 5 13 2 -7 2 -19 0 -25z m2004 -42 c-14 -41 -29 -72 -33 -70 -4 3 -5 -1 -2 -9 3 -8 -6 -59 -20 -113 -14 -54 -37 -156 -51 -226 -24 -121 -52 -217 -41 -143 3 17 8 57 11 90 8 73 36 192 69 300 14 43 23 81 21 83 -2 2 -22 -54 -45 -125 -23 -70 -44 -130 -47 -133 -11 -10 8 196 25 275 17 78 18 81 66 113 72 48 77 43 47 -42z m-4295 -61 c-39 -223 -36 -209 -30 -125 2 41 11 102 19 135 8 33 15 74 16 90 1 21 3 24 6 10 3 -11 -2 -60 -11 -110z m2015 15 c-11 -30 -20 -46 -20 -34 -1 27 32 123 36 104 2 -8 -5 -40 -16 -70z m-2177 -21 c9 -42 18 -83 21 -91 3 -8 -1 -21 -9 -28 -13 -10 -17 -9 -22 5 -4 9 -2 21 5 28 6 6 11 16 11 21 -1 6 -10 0 -20 -13 l-20 -23 0 98 c0 114 11 115 34 3z m433 69 c-3 -8 -6 -5 -6 6 -1 11 2 17 5 13 3 -3 4 -12 1 -19z m1401 -40 c14 -72 2 -83 -20 -19 -10 30 -15 57 -12 62 12 20 22 6 32 -43z m716 30 c16 -22 22 -88 9 -88 -21 0 -43 37 -43 72 0 43 12 48 34 16z m621 -123 c-4 -74 -10 -135 -15 -135 -10 0 -23 201 -14 236 7 27 24 48 32 39 3 -2 1 -65 -3 -140z m-725 108 c8 -16 16 -31 18 -35 2 -5 -2 -8 -7 -8 -16 0 -51 38 -51 55 0 25 26 17 40 -12z m1581 -11 c-5 -10 -18 -25 -27 -33 -11 -9 -9 -2 6 19 26 35 36 42 21 14z m-301 -79 c-11 -61 -15 -73 -21 -53 -4 14 -7 20 -8 13 -2 -17 -38 -95 -58 -123 -11 -14 -13 -21 -5 -16 8 5 27 29 43 54 l29 46 0 -31 c0 -19 -10 -43 -25 -61 -17 -21 -35 -70 -59 -163 -31 -127 -104 -300 -113 -272 -2 7 9 55 26 108 17 52 31 100 31 106 0 41 -71 -89 -110 -203 -21 -61 -27 -69 -72 -93 -27 -15 -51 -25 -52 -23 -6 6 146 272 221 387 43 66 72 120 68 129 -3 8 12 53 34 101 22 47 43 99 47 114 5 22 9 25 16 15 7 -10 8 -8 7 7 -2 32 1 49 7 42 4 -4 1 -42 -6 -84z m-3603 0 c-2 -16 -4 -3 -4 27 0 30 2 43 4 28 2 -16 2 -40 0 -55z m3168 -38 c4 -46 0 -81 -19 -150 l-25 -90 5 155 c3 85 8 166 11 180 6 25 6 25 14 -5 5 -16 11 -57 14 -90z m-3196 -58 c1 -27 -3 -46 -8 -43 -4 3 -18 33 -30 67 l-23 61 24 25 23 25 7 -44 c3 -23 7 -65 7 -91z m1708 111 c-3 -8 -6 -5 -6 6 -1 11 2 17 5 13 3 -3 4 -12 1 -19z m-77 -6 c0 -11 -12 -24 -26 -30 l-25 -12 18 30 c20 34 33 39 33 12z m930 -21 c10 -38 6 -71 -10 -71 -5 0 -10 25 -12 55 -4 64 7 72 22 16z m-1639 -52 c-10 -41 -21 -82 -26 -90 -13 -21 -125 -172 -125 -168 0 19 42 144 60 179 27 52 100 163 105 158 2 -2 -4 -37 -14 -79z m1434 -59 c-6 -105 -10 -122 -27 -131 -11 -6 -22 -8 -25 -5 -5 5 35 244 44 259 13 21 15 -12 8 -123z m46 88 c12 -24 29 -52 39 -63 10 -11 21 -37 24 -58 l7 -37 -47 43 c-43 41 -48 49 -52 101 -2 31 -2 56 2 56 3 0 15 -19 27 -42z m69 -15 c0 -40 -18 -41 -37 -3 -8 16 -9 30 -2 43 15 27 39 3 39 -40z m-155 -18 c-7 -33 -16 -87 -20 -120 -5 -46 -9 -55 -17 -42 -10 19 -1 74 28 175 21 70 26 63 9 -13z m211 19 c-4 -20 -10 -34 -12 -31 -3 3 -2 21 2 41 3 21 9 35 11 32 3 -3 2 -21 -1 -42z m-550 -86 c-9 -157 -11 -161 -54 -155 -19 4 -36 7 -37 9 -2 2 0 57 3 123 7 116 8 119 32 126 65 18 64 20 56 -103z m905 22 c-10 -47 -29 -130 -44 -185 -14 -55 -28 -112 -31 -126 -3 -15 -12 -29 -19 -32 -17 -6 -12 21 38 233 19 81 35 150 35 154 0 4 5 4 12 0 7 -4 8 -3 4 5 -7 10 12 46 20 39 1 -2 -6 -41 -15 -88z m1119 -117 c-18 -144 -76 -420 -86 -410 -2 1 3 57 11 122 8 66 23 193 34 283 15 126 23 168 38 184 16 17 18 18 21 4 2 -9 -6 -92 -18 -183z m-1941 155 c0 -18 -4 -42 -9 -53 -6 -15 -9 -6 -9 33 -1 28 4 52 9 52 6 0 10 -15 9 -32z m950 -36 c-17 -50 -23 -25 -8 30 8 26 14 36 16 25 3 -9 -1 -34 -8 -55z m-1679 -57 c-7 -42 -15 -74 -17 -71 -2 2 -1 46 3 97 6 73 9 89 17 71 7 -15 6 -46 -3 -97z m530 63 c-1 -58 -13 -51 -25 15 -6 30 -4 37 9 37 13 0 16 -11 16 -52z m-90 20 c0 -2 9 -46 19 -98 20 -102 18 -110 -30 -110 -33 0 -39 18 -39 122 0 52 4 78 13 81 13 6 37 8 37 5z m-535 -73 c-4 -31 -10 -54 -12 -51 -3 3 -2 30 2 61 3 31 9 54 12 52 2 -3 1 -31 -2 -62z m1566 -102 c-16 -76 -32 -157 -36 -179 -4 -26 -16 -51 -32 -65 -23 -22 -25 -22 -20 -4 3 11 8 49 12 85 12 128 36 224 68 278 19 31 33 47 35 38 2 -8 -10 -77 -27 -153z m1159 135 c-1 -26 -3 -30 -10 -16 -6 9 -7 23 -4 32 9 25 14 19 14 -16z m-3993 -32 c-6 -19 -25 -17 -32 3 -10 31 5 48 22 25 7 -10 12 -23 10 -28z m2283 -102 c43 -104 56 -155 70 -274 20 -169 12 -176 -31 -25 -21 77 -52 192 -69 255 -16 63 -33 129 -39 147 -5 17 -6 34 -3 38 8 8 27 -29 72 -141z m1689 101 c0 -5 -4 -3 -9 5 -5 8 -9 22 -9 30 0 16 17 -16 18 -35z m-2269 -63 l0 -98 -35 -17 c-34 -16 -35 -16 -35 4 0 47 23 166 36 187 27 41 34 24 34 -76z m764 37 c26 -31 31 -61 17 -124 l-6 -29 -33 42 c-39 48 -53 92 -45 133 4 23 8 27 23 19 10 -5 30 -23 44 -41z m53 -36 c-2 -16 -4 -3 -4 27 0 30 2 43 4 28 2 -16 2 -40 0 -55z m553 41 c0 -24 -4 -34 -12 -32 -24 8 -22 68 2 68 5 0 10 -16 10 -36z m-1737 -48 c3 -41 1 -63 -4 -55 -8 13 -13 137 -5 128 2 -2 6 -35 9 -73z m-1108 -153 c-4 -59 -11 -103 -17 -103 -11 0 -3 230 10 285 11 47 15 -59 7 -182z m2744 162 c0 -5 -4 -3 -9 5 -5 8 -9 22 -9 30 0 16 17 -16 18 -35z m-1694 -47 c-15 -64 -94 -263 -101 -256 -1 2 22 79 53 171 56 173 80 214 48 85z m299 -41 l-17 -96 -46 -30 -46 -30 -3 26 c-3 17 16 58 59 129 34 57 64 102 66 100 2 -2 -4 -46 -13 -99z m2372 -9 c-8 -128 -34 -365 -45 -418 l-8 -35 -8 28 c-11 41 29 464 50 525 13 37 17 -1 11 -100z m-936 58 c0 -26 -6 -18 -14 19 -5 22 -4 26 4 15 5 -8 10 -24 10 -34z m-506 -40 c-3 -21 -8 -35 -11 -32 -2 2 -1 20 3 40 3 21 8 35 11 32 2 -2 1 -20 -3 -40z m-1308 -52 c-8 -21 -15 -34 -15 -28 -1 15 20 76 25 71 2 -2 -2 -21 -10 -43z m1774 19 c0 -16 -9 -39 -20 -53 -19 -24 -20 -24 -20 -4 0 29 20 84 31 84 5 0 9 -12 9 -27z m37 -15 c-3 -8 -6 -5 -6 6 -1 11 2 17 5 13 3 -3 4 -12 1 -19z m-2981 -112 c1 -34 5 -88 9 -120 9 -67 -3 -69 -34 -8 -14 27 -20 65 -23 144 l-4 108 25 -32 c20 -25 25 -44 27 -92z m2461 92 c-3 -8 -6 -5 -6 6 -1 11 2 17 5 13 3 -3 4 -12 1 -19z m184 -210 c-7 -26 -9 -8 -10 83 -1 64 2 119 7 123 11 12 14 -169 3 -206z m1058 165 c-12 -21 -53 -86 -90 -145 -37 -59 -75 -121 -84 -138 -9 -18 -19 -30 -22 -27 -10 10 76 177 123 239 81 107 115 140 73 71z m-671 5 c-3 -7 -40 -26 -84 -43 -110 -44 -135 -58 -175 -102 -132 -141 -139 -148 -139 -130 0 48 86 153 171 208 82 52 237 98 227 67z m-78 -59 c-18 -12 -123 -74 -170 -102 l-35 -21 30 33 c17 18 62 48 100 67 65 31 109 45 75 23z m-69 -115 c-5 -16 -10 -21 -10 -12 -1 18 10 51 15 45 2 -1 -1 -16 -5 -33z m-464 -127 c-2 -28 -3 -5 -3 53 0 58 1 81 3 53 2 -29 2 -77 0 -106z m389 71 c-3 -29 -6 -78 -7 -108 l-1 -55 -14 50 c-7 28 -15 67 -16 87 l-1 37 -31 -25 c-17 -13 -36 -28 -41 -33 -6 -4 -30 -30 -54 -57 -33 -37 -39 -42 -28 -19 32 63 150 171 191 174 5 1 6 -23 2 -51z"/>
<path d="M3091 4024 c0 -11 3 -14 6 -6 3 7 2 16 -1 19 -3 4 -6 -2 -5 -13z"/>
<path d="M3833 3635 c0 -22 2 -30 4 -17 2 12 2 30 0 40 -3 9 -5 -1 -4 -23z"/>
<path d="M3944 2914 c-20 -42 -33 -78 -30 -81 3 -4 18 20 32 53 36 81 44 104 38 104 -3 0 -21 -34 -40 -76z"/>
<path d="M3976 2837 c2 -16 7 -62 9 -104 3 -41 8 -80 12 -86 4 -7 6 -23 4 -37 -2 -19 0 -22 9 -13 9 8 9 24 1 63 -6 28 -11 68 -12 88 0 20 -7 55 -15 77 -8 25 -12 29 -8 12z"/>
<path d="M3942 2830 c0 -14 2 -19 5 -12 2 6 2 18 0 25 -3 6 -5 1 -5 -13z"/>
<path d="M2961 3054 c0 -11 3 -14 6 -6 3 7 2 16 -1 19 -3 4 -6 -2 -5 -13z"/>
<path d="M1511 2524 c0 -11 3 -14 6 -6 3 7 2 16 -1 19 -3 4 -6 -2 -5 -13z"/>
<path d="M1512 2435 c0 -16 2 -22 5 -12 2 9 2 23 0 30 -3 6 -5 -1 -5 -18z"/>
<path d="M602 2740 c0 -14 2 -19 5 -12 2 6 2 18 0 25 -3 6 -5 1 -5 -13z"/>
<path d="M588 2588 c-2 -57 -1 -114 3 -128 4 -14 8 32 8 103 1 70 -1 127 -3 127 -2 0 -6 -46 -8 -102z"/>
<path d="M552 2515 c0 -16 2 -22 5 -12 2 9 2 23 0 30 -3 6 -5 -1 -5 -18z"/>
<path d="M4970 2719 c-7 -11 -10 -23 -7 -25 2 -2 9 7 15 21 14 30 7 33 -8 4z"/>
<path d="M4920 2619 c-7 -11 -10 -23 -7 -25 2 -2 9 7 15 21 14 30 7 33 -8 4z"/>
<path d="M3184 2565 c3 -11 12 -58 21 -104 8 -46 24 -99 36 -117 26 -43 33 -44 14 -1 -8 17 -24 73 -36 122 -12 50 -25 97 -31 105 -7 12 -8 11 -4 -5z"/>
<path d="M3181 2414 c0 -11 3 -14 6 -6 3 7 2 16 -1 19 -3 4 -6 -2 -5 -13z"/>
<path d="M3276 2287 c3 -10 9 -15 12 -12 3 3 0 11 -7 18 -10 9 -11 8 -5 -6z"/>
<path d="M2612 2080 c0 -19 2 -27 5 -17 2 9 2 25 0 35 -3 9 -5 1 -5 -18z"/>
<path d="M671 2455 c-12 -37 -21 -75 -20 -84 0 -9 11 20 24 64 13 44 22 82 20 83 -2 2 -13 -26 -24 -63z"/>
<path d="M451 2454 c0 -11 3 -14 6 -6 3 7 2 16 -1 19 -3 4 -6 -2 -5 -13z"/>
<path d="M382 2060 c0 -19 2 -27 5 -17 2 9 2 25 0 35 -3 9 -5 1 -5 -18z"/>
<path d="M435 1930 c10 -11 20 -20 23 -20 3 0 -3 9 -13 20 -10 11 -20 20 -23 20 -3 0 3 -9 13 -20z"/>
<path d="M4369 2223 c-13 -17 -13 -17 6 -3 11 8 22 16 24 17 2 2 0 3 -6 3 -6 0 -17 -8 -24 -17z"/>
<path d="M830 2006 c0 -2 8 -10 18 -17 15 -13 16 -12 3 4 -13 16 -21 21 -21 13z"/>
<path d="M4000 1939 c0 -8 -12 -32 -27 -54 l-26 -40 26 23 c25 23 44 69 32 80 -3 3 -5 -1 -5 -9z"/>
<path d="M742 1450 c0 -14 2 -19 5 -12 2 6 2 18 0 25 -3 6 -5 1 -5 -13z"/>
<path d="M3000 1976 c0 -2 7 -7 16 -10 8 -3 12 -2 9 4 -6 10 -25 14 -25 6z"/>
<path d="M2868 1933 c12 -2 30 -2 40 0 9 3 -1 5 -23 4 -22 0 -30 -2 -17 -4z"/>
<path d="M2798 1923 c7 -3 16 -2 19 1 4 3 -2 6 -13 5 -11 0 -14 -3 -6 -6z"/>
<path d="M2938 1923 c6 -2 18 -2 25 0 6 3 1 5 -13 5 -14 0 -19 -2 -12 -5z"/>
<path d="M3996 1185 c-9 -26 -7 -32 5 -12 6 10 9 21 6 23 -2 3 -7 -2 -11 -11z"/>
<path d="M3976 1135 c-9 -26 -7 -32 5 -12 6 10 9 21 6 23 -2 3 -7 -2 -11 -11z"/>
<path d="M3951 1069 c-6 -18 -9 -34 -7 -36 2 -2 9 10 15 28 6 18 9 34 7 36 -2 2 -9 -10 -15 -28z"/>
<path d="M3902 913 c-30 -110 -63 -265 -59 -270 2 -2 23 74 46 168 42 175 51 244 13 102z"/>
<path d="M4452 1195 c0 -16 2 -22 5 -12 2 9 2 23 0 30 -3 6 -5 -1 -5 -18z"/>
<path d="M4382 1140 c-12 -29 -20 -55 -17 -58 7 -7 47 87 43 100 -2 6 -14 -13 -26 -42z"/>
<path d="M2442 1000 c0 -19 2 -27 5 -17 2 9 2 25 0 35 -3 9 -5 1 -5 -18z"/>
<path d="M4539 833 c-13 -16 -12 -17 4 -4 9 7 17 15 17 17 0 8 -8 3 -21 -13z"/>
<path d="M4439 753 c-13 -16 -12 -17 4 -4 16 13 21 21 13 21 -2 0 -10 -8 -17 -17z"/>
<path d="M4374 704 l-39 -35 43 32 c38 30 48 39 39 39 -2 0 -21 -16 -43 -36z"/>
<path d="M4182 800 c0 -14 2 -19 5 -12 2 6 2 18 0 25 -3 6 -5 1 -5 -13z"/>
<path d="M3047 5084 c-32 -37 -23 -48 10 -11 26 28 36 47 26 46 -4 0 -21 -16 -36 -35z"/>
<path d="M4942 4098 c-17 -51 -44 -145 -61 -208 -16 -63 -32 -124 -36 -135 -6 -18 -5 -18 5 -3 6 10 24 70 41 135 17 65 44 158 60 207 16 49 27 91 25 93 -2 2 -18 -38 -34 -89z"/>
<path d="M4886 3994 c-4 -14 -5 -28 -3 -31 3 -2 8 8 11 23 4 14 5 28 3 31 -3 2 -8 -8 -11 -23z"/>
<path d="M4866 3924 c-4 -14 -5 -28 -3 -31 3 -2 8 8 11 23 4 14 5 28 3 31 -3 2 -8 -8 -11 -23z"/>
<path d="M521 3864 c0 -11 3 -14 6 -6 3 7 2 16 -1 19 -3 4 -6 -2 -5 -13z"/>
<path d="M4851 3864 c0 -11 3 -14 6 -6 3 7 2 16 -1 19 -3 4 -6 -2 -5 -13z"/>
<path d="M3502 3450 c0 -14 2 -19 5 -12 2 6 2 18 0 25 -3 6 -5 1 -5 -13z"/>
<path d="M4967 3190 c-48 -30 -61 -44 -29 -33 20 8 92 54 92 59 0 10 -20 2 -63 -26z"/>
<path d="M753 2870 c0 -30 2 -43 4 -27 2 15 2 39 0 55 -2 15 -4 2 -4 -28z"/>
<path d="M4990 2246 c-67 -24 -130 -53 -130 -61 0 -2 21 5 48 17 26 11 79 31 117 44 39 13 61 23 50 23 -11 0 -49 -11 -85 -23z"/>
<path d="M5010 2190 c-8 -5 -10 -10 -5 -10 6 0 17 5 25 10 8 5 11 10 5 10 -5 0 -17 -5 -25 -10z"/>
<path d="M4950 2165 c-14 -8 -20 -14 -15 -14 6 0 21 6 35 14 14 8 21 14 15 14 -5 0 -21 -6 -35 -14z"/>
<path d="M1622 2005 c0 -16 2 -22 5 -12 2 9 2 23 0 30 -3 6 -5 -1 -5 -18z"/>
<path d="M1 1798 c-1 -54 5 -79 30 -135 38 -83 99 -236 96 -239 -1 -1 -29 52 -62 119 -53 109 -60 118 -63 90 -2 -20 10 -62 33 -113 50 -116 140 -372 176 -502 16 -61 50 -158 75 -216 24 -58 42 -107 40 -109 -4 -5 -162 298 -172 332 -7 20 -6 20 14 1 21 -18 21 -16 -4 74 -14 51 -39 129 -56 174 -16 44 -31 88 -33 97 -2 8 -18 53 -37 100 l-33 84 -3 -133 -3 -134 81 -156 c82 -159 100 -213 140 -409 27 -133 25 -140 -14 -53 -18 41 -50 108 -70 149 -21 40 -46 101 -57 135 -21 65 -78 180 -79 158 0 -7 7 -26 15 -42 8 -15 24 -52 35 -82 l21 -53 -32 38 c-45 54 -48 39 -3 -20 42 -55 69 -110 117 -243 42 -115 90 -271 85 -276 -2 -2 -19 38 -38 89 -45 125 -94 235 -149 336 -65 118 -65 74 -1 -64 53 -113 114 -275 106 -282 -2 -2 -14 22 -26 54 -11 32 -45 105 -73 163 -47 94 -52 102 -55 73 -2 -19 7 -51 22 -81 94 -186 226 -515 251 -627 3 -16 -20 22 -52 85 -32 64 -94 167 -138 230 l-80 114 -3 -62 -3 -61 84 -108 c94 -120 147 -201 171 -256 14 -34 18 -37 57 -37 l41 0 -6 43 c-3 23 -13 110 -21 192 -9 83 -25 191 -35 240 -40 194 -32 216 14 40 25 -96 47 -244 63 -425 7 -70 11 -85 26 -88 16 -3 17 3 11 90 -3 51 -15 174 -25 273 -11 99 -31 326 -44 504 -25 321 -40 423 -76 491 -17 32 -18 33 -19 10 0 -14 7 -60 15 -103 27 -140 14 -107 -40 108 -30 116 -54 201 -54 190 -1 -11 15 -99 34 -195 19 -96 35 -182 34 -190 0 -8 -15 37 -34 100 -19 63 -70 221 -114 350 l-79 235 -1 -67z"/>
<path d="M5060 1583 c-39 -4 -133 -33 -128 -39 2 -2 26 3 53 11 26 8 68 15 92 15 23 0 43 5 43 10 0 6 -6 9 -12 8 -7 0 -29 -3 -48 -5z"/>
<path d="M4878 1524 c-39 -21 -35 -28 5 -8 37 19 44 24 31 24 -5 -1 -21 -8 -36 -16z"/>
<path d="M580 1405 c0 -5 5 -17 10 -25 5 -8 10 -10 10 -5 0 6 -5 17 -10 25 -5 8 -10 11 -10 5z"/>
<path d="M601 1357 c-3 -24 104 -335 111 -324 9 15 11 33 2 24 -4 -4 -31 64 -60 151 -28 86 -53 153 -53 149z"/>
<path d="M5083 927 c-18 -53 -47 -149 -63 -212 -36 -137 -63 -210 -87 -238 -10 -11 -13 -18 -6 -16 17 6 193 176 193 188 0 5 -30 -22 -67 -60 -36 -38 -68 -67 -71 -64 -7 6 34 105 90 218 l49 98 -3 92 -3 92 -32 -98z"/>
<path d="M2815 934 c-9 -15 -12 -23 -6 -20 11 7 35 46 28 46 -3 0 -12 -12 -22 -26z"/>
<path d="M2783 888 c-15 -20 -25 -38 -20 -38 3 0 12 11 21 25 17 26 16 35 -1 13z"/>
<path d="M3495 885 c-25 -12 -26 -14 -5 -9 28 7 60 23 45 23 -5 0 -23 -6 -40 -14z"/>
<path d="M2740 820 c-6 -11 -8 -20 -6 -20 3 0 10 9 16 20 6 11 8 20 6 20 -3 0 -10 -9 -16 -20z"/>
<path d="M2755 785 c-16 -18 -31 -40 -33 -47 -3 -14 41 35 58 65 16 26 8 21 -25 -18z"/>
<path d="M1664 732 c-82 -78 -175 -180 -139 -152 14 11 10 0 -13 -40 -43 -73 -166 -314 -213 -420 -21 -47 -39 -79 -39 -71 0 17 89 230 141 335 22 45 31 70 20 56 -28 -35 -144 -261 -174 -340 -14 -36 -28 -73 -32 -83 -7 -16 -3 -18 36 -15 l43 3 42 110 c23 61 53 135 67 165 l26 55 0 -41 c1 -22 6 -66 12 -98 l10 -58 -68 -66 -68 -67 89 -3 c49 -2 91 -1 93 2 2 2 11 37 20 77 8 40 27 111 43 158 16 47 26 89 23 95 -4 5 -1 6 7 1 9 -5 10 -2 6 13 -8 25 21 176 41 216 8 15 10 25 4 22 -23 -15 -5 24 83 177 15 26 26 47 24 47 -1 0 -40 -35 -84 -78z m-129 -285 c-21 -102 -35 -121 -35 -44 0 38 7 71 22 102 30 61 33 43 13 -58z m40 -87 c-19 -89 -24 -101 -20 -56 7 70 37 208 42 186 2 -8 -8 -67 -22 -130z"/>
<path d="M1701 655 c-12 -31 -21 -63 -21 -73 0 -9 11 15 24 53 29 84 27 99 -3 20z"/>
<path d="M1659 613 c-13 -16 -12 -17 4 -4 16 13 21 21 13 21 -2 0 -10 -8 -17 -17z"/>
<path d="M2726 583 c-4 -13 -31 -60 -60 -106 -60 -96 -128 -263 -147 -357 -6 -36 -21 -77 -31 -92 -11 -16 -15 -28 -10 -28 5 0 17 11 26 25 9 14 21 25 27 25 7 0 9 -10 5 -25 -6 -22 -3 -25 19 -25 18 0 25 5 25 18 0 24 75 328 90 367 11 27 13 28 19 11 10 -26 -4 -99 -39 -216 -37 -120 -50 -180 -40 -180 4 0 10 18 14 40 3 22 18 77 33 122 14 46 32 108 39 138 13 53 13 50 9 -70 -3 -69 -8 -149 -11 -177 -6 -49 -5 -53 15 -53 18 0 21 6 22 38 0 20 4 46 9 57 6 14 9 4 9 -37 l1 -58 35 0 35 0 2 68 c5 126 1 159 -40 323 -23 90 -42 175 -44 189 -4 25 -4 25 -12 3z m32 -303 c0 -40 -1 -42 -8 -15 -4 17 -8 48 -8 70 0 34 1 36 8 15 4 -14 8 -45 8 -70z m-11 -82 c-3 -7 -5 -2 -5 12 0 14 2 19 5 13 2 -7 2 -19 0 -25z"/>
<path d="M851 554 c0 -11 3 -14 6 -6 3 7 2 16 -1 19 -3 4 -6 -2 -5 -13z"/>
<path d="M1489 543 c-13 -16 -12 -17 4 -4 16 13 21 21 13 21 -2 0 -10 -8 -17 -17z"/>
<path d="M1645 477 c-39 -106 -39 -108 -16 -67 21 39 56 139 50 145 -3 2 -18 -33 -34 -78z"/>
<path d="M427 350 c3 -25 7 -47 9 -49 8 -9 2 55 -6 74 -6 13 -7 5 -3 -25z"/>
<path d="M5002 333 l-38 -38 36 30 c19 16 39 33 45 37 5 5 6 8 2 8 -4 0 -25 -17 -45 -37z"/>
<path d="M1975 166 c-65 -73 -122 -142 -128 -152 -8 -17 -8 -17 5 -4 14 14 206 236 237 273 8 9 12 17 9 17 -3 0 -58 -60 -123 -134z"/>
<path d="M4889 233 c-56 -60 -93 -106 -125 -158 -26 -43 -12 -29 38 40 25 33 68 86 97 118 29 31 51 57 49 57 -3 0 -29 -26 -59 -57z"/>
<path d="M0 205 c0 -65 5 -92 27 -142 l27 -63 48 0 c27 0 48 2 48 5 0 9 -55 114 -104 200 l-46 80 0 -80z"/>
<path d="M444 250 c3 -19 8 -64 11 -100 11 -127 16 -150 30 -150 7 0 16 10 18 23 l4 22 2 -22 c1 -18 7 -23 27 -23 31 0 29 8 -28 130 -23 47 -47 101 -55 120 l-14 35 5 -35z"/>
<path d="M5090 123 c-36 -14 -193 -117 -183 -120 19 -7 208 92 211 110 4 18 -2 20 -28 10z"/>
<path d="M3990 49 c-12 -23 -20 -43 -18 -45 3 -2 14 17 26 41 27 56 20 60 -8 4z"/>
</g>
</svg>