<svg xmlns="http://www.w3.org/2000/svg" version="1.0" viewBox="0 0 512.000000 512.000000" preserveAspectRatio="xMidYMid meet">
<metadata>
Created by potrace 1.16, written by Peter Selinger 2001-2019
</metadata>
<g transform="translate(0.000000,512.000000) scale(0.100000,-0.100000)" fill="#000000" stroke="none">
<path d="M355 5050 c32 -95 60 -139 108 -175 45 -34 65 -60 54 -72 -5 -4 -21 0 -36 8 l-28 16 13 -51 c7 -28 24 -84 39 -123 24 -67 25 -83 23 -218 l-3 -146 -75 126 c-133 225 -232 330 -382 406 -32 16 -60 29 -63 29 -3 0 -5 -20 -5 -44 0 -34 7 -53 33 -87 19 -24 86 -123 149 -219 63 -96 149 -218 191 -270 53 -66 74 -101 71 -115 -9 -42 -22 -370 -15 -383 11 -19 31 108 32 200 0 40 4 95 7 122 l7 50 40 -50 c22 -27 47 -58 55 -69 15 -20 14 -20 -8 -1 -37 32 -36 11 2 -60 36 -64 56 -156 56 -257 l0 -27 -36 15 c-20 8 -40 15 -45 15 -5 0 -9 -64 -9 -142 l0 -143 85 -120 c104 -148 188 -293 259 -448 30 -66 57 -121 59 -123 3 -3 10 48 17 113 8 65 18 121 23 124 12 8 26 89 25 139 0 19 -6 -1 -13 -45 -7 -44 -13 -69 -14 -55 -2 42 27 265 57 438 l28 163 11 -53 c6 -29 28 -136 49 -238 l39 -185 7 85 c22 266 30 340 39 383 11 46 10 49 -30 115 -45 74 -48 87 -26 116 17 23 15 26 45 -49 13 -33 52 -107 86 -165 34 -58 65 -116 68 -130 l7 -25 -15 25 c-9 15 -15 19 -16 10 0 -25 56 -285 95 -439 36 -143 85 -362 85 -380 0 -5 -26 16 -57 47 -75 74 -163 147 -163 134 0 -15 93 -133 177 -224 97 -105 119 -150 147 -298 19 -103 21 -111 27 -75 3 22 14 85 24 139 14 78 16 133 13 255 -6 158 -14 215 -28 176 -4 -12 -9 8 -14 50 -20 203 -42 284 -143 520 -72 170 -230 438 -276 470 -25 18 -17 40 23 60 29 15 34 15 56 0 28 -18 28 -18 13 24 -14 39 -25 39 -80 -2 -24 -18 -60 -40 -79 -48 -70 -32 -180 -110 -207 -147 -55 -76 -55 -65 1 18 16 25 36 49 44 54 11 6 12 10 2 16 -13 8 29 166 114 430 l43 135 6 -95 c4 -52 9 -162 13 -243 5 -103 10 -147 18 -144 8 3 10 88 8 303 -2 183 1 293 6 284 10 -17 51 -180 56 -220 1 -14 6 -31 10 -38 4 -7 4 -22 1 -33 -4 -12 -3 -24 2 -28 7 -5 40 -162 58 -271 1 -8 7 -26 12 -40 6 -14 13 -56 16 -93 l5 -69 -31 29 -31 28 31 -40 c56 -75 153 -224 183 -283 16 -33 40 -101 51 -151 12 -50 23 -90 25 -88 4 4 -15 184 -32 307 -46 311 -137 739 -166 777 -5 6 -6 24 -3 40 5 19 4 24 -3 15 -7 -11 -10 -10 -14 5 -3 10 -9 27 -13 38 -4 13 -1 12 9 -5 15 -24 15 -24 15 30 -1 42 -3 49 -9 30 -4 -14 -8 -20 -9 -14 -1 5 -8 19 -16 30 -14 18 -14 17 -5 -10 20 -55 4 -35 -25 32 -15 37 -59 129 -97 205 -69 139 -82 175 -33 91 15 -25 29 -43 32 -40 6 6 -83 152 -99 162 -7 4 -8 2 -4 -4 4 -7 5 -12 2 -12 -3 0 -10 10 -17 21 -9 17 -8 20 3 14 7 -4 4 2 -8 12 -12 10 -41 44 -65 77 -24 32 -45 54 -46 49 -2 -6 21 -66 51 -135 30 -70 76 -176 101 -238 l46 -111 -29 -57 c-16 -31 -57 -100 -91 -152 -126 -195 -201 -371 -261 -615 -18 -72 -23 -127 -26 -275 -2 -102 -8 -207 -12 -235 l-8 -50 -7 40 c-3 22 -14 91 -23 153 -11 77 -22 120 -35 135 -19 22 -19 22 -13 -23 4 -25 3 -42 -1 -38 -4 4 -13 91 -21 195 -7 103 -16 200 -18 215 -5 27 7 38 43 38 21 0 31 -51 31 -164 0 -39 3 -102 7 -141 12 -116 20 -31 15 146 -4 111 -2 158 7 163 6 4 11 14 11 23 0 12 -7 14 -36 9 -19 -4 -43 -10 -51 -13 -10 -4 -14 -2 -10 4 4 6 22 14 42 17 19 4 37 11 40 16 3 5 1 77 -5 162 -20 303 -28 376 -49 423 -24 54 -12 52 15 -2 l18 -38 8 85 c4 46 6 85 5 86 -1 1 -19 4 -39 7 -36 5 -38 4 -46 -26 l-8 -32 -18 52 c-10 29 -22 55 -27 58 -5 4 -9 47 -9 98 0 88 1 92 30 122 l30 31 -14 69 -14 70 -1 -50 c-1 -57 -15 -90 -24 -59 -3 11 -9 43 -12 72 l-7 52 -37 0 -38 0 3 -52 3 -53 -17 53 -17 52 -62 0 -62 0 24 -70z m775 -220 c6 -11 8 -20 6 -20 -3 0 -10 9 -16 20 -6 11 -8 20 -6 20 3 0 10 -9 16 -20z m-866 -212 c143 -160 140 -172 -5 -16 -57 61 -94 106 -82 100 12 -7 51 -45 87 -84z m330 -148 c3 -107 3 -219 -1 -249 l-6 -55 -20 50 c-18 45 -19 64 -12 249 3 110 9 203 12 208 16 26 23 -28 27 -203z m43 -112 c-3 -7 -5 -2 -5 12 0 14 2 19 5 13 2 -7 2 -19 0 -25z m10 -275 c-1 -43 -3 -8 -3 77 0 85 2 120 3 78 2 -43 2 -113 0 -155z m740 -165 c-3 -7 -5 -2 -5 12 0 14 2 19 5 13 2 -7 2 -19 0 -25z m97 -365 c9 -27 -14 -32 -34 -8 -11 14 -60 302 -59 345 1 8 20 -59 43 -150 24 -91 46 -175 50 -187z m-507 5 c-3 -7 -5 -2 -5 12 0 14 2 19 5 13 2 -7 2 -19 0 -25z m-137 -14 c-16 -40 -12 -42 11 -5 11 18 22 31 24 29 3 -2 -7 -38 -22 -79 -20 -58 -27 -102 -32 -202 -6 -121 -8 -129 -34 -154 l-27 -28 0 25 c0 77 32 304 50 355 29 85 29 85 34 85 3 0 1 -12 -4 -26z m121 -100 c-5 -49 -15 -140 -22 -202 -6 -62 -14 -111 -16 -108 -6 6 15 255 29 339 15 94 21 77 9 -29z m484 -284 c75 -232 120 -389 112 -397 -2 -2 -12 27 -21 64 -14 56 -151 493 -172 548 -3 8 -4 15 0 15 3 0 39 -104 81 -230z m202 -587 c-2 -37 -3 -9 -3 62 0 72 1 102 3 68 2 -34 2 -93 0 -130z m-80 145 c-3 -8 -6 -5 -6 6 -1 11 2 17 5 13 3 -3 4 -12 1 -19z"/>
<path d="M690 5081 c0 -21 -6 -69 -14 -107 -8 -38 -20 -103 -27 -144 -6 -41 -18 -92 -25 -112 -12 -36 -12 -38 7 -38 13 0 23 8 26 20 5 19 7 20 23 5 17 -15 20 -15 39 4 24 24 65 150 79 246 16 106 23 169 17 163 -3 -2 -21 -40 -40 -84 -37 -86 -43 -83 -20 11 8 33 14 63 15 68 0 4 -18 7 -40 7 -40 0 -40 0 -40 -39z m46 -264 c-7 -24 -18 -52 -24 -63 -11 -19 -11 -19 -11 1 -1 21 34 105 43 105 3 0 -1 -19 -8 -43z"/>
<path d="M827 5046 c-5 -60 -92 -530 -113 -611 -4 -16 -3 -17 5 -5 16 26 109 410 125 521 20 132 20 169 2 169 -9 0 -15 -22 -19 -74z"/>
<path d="M1130 5114 c0 -4 21 -66 46 -139 37 -108 49 -133 63 -128 12 3 10 0 -5 -14 -17 -15 -20 -28 -18 -80 3 -65 16 -98 70 -173 18 -25 43 -67 54 -91 25 -57 25 -43 0 171 -11 91 -20 186 -20 212 0 64 43 188 75 213 34 28 32 35 -15 35 -37 0 -40 -2 -30 -19 7 -15 4 -29 -15 -63 -14 -23 -25 -35 -25 -26 0 10 -9 22 -21 29 -20 10 -21 9 -15 -33 6 -40 5 -39 -13 16 -14 42 -17 65 -10 78 9 17 5 18 -56 18 -36 0 -65 -3 -65 -6z m97 -91 c-2 -16 -4 -3 -4 27 0 30 2 43 4 28 2 -16 2 -40 0 -55z m63 -127 c0 -3 -4 -8 -10 -11 -5 -3 -10 -1 -10 4 0 6 5 11 10 11 6 0 10 -2 10 -4z m-10 -106 c0 -12 -8 -12 -35 0 -18 8 -17 9 8 9 15 1 27 -3 27 -9z m-13 -142 c-3 -7 -5 -2 -5 12 0 14 2 19 5 13 2 -7 2 -19 0 -25z"/>
<path d="M1822 5048 c-12 -40 -26 -102 -31 -138 -28 -183 -40 -737 -19 -865 16 -97 21 -386 9 -545 -10 -130 -15 -158 -46 -239 -34 -87 -72 -238 -63 -247 3 -2 19 44 37 103 40 129 59 170 117 245 24 31 44 59 44 62 0 13 -29 5 -55 -16 l-28 -22 6 48 c4 27 7 66 7 87 0 28 4 39 15 39 10 0 15 10 15 29 0 16 6 32 13 34 9 4 9 7 -1 15 -11 7 -12 35 -6 130 6 104 9 121 25 125 26 7 39 63 54 247 28 325 36 465 30 534 -7 77 -30 210 -40 239 -4 9 -3 17 3 17 14 0 33 60 41 131 l7 59 -56 0 -57 0 -21 -72z m55 -205 c-2 -21 -4 -4 -4 37 0 41 2 58 4 38 2 -21 2 -55 0 -75z m-16 -155 l-11 -33 5 34 c3 18 6 52 7 75 l1 41 4 -42 c2 -22 -1 -56 -6 -75z m-14 -60 c-3 -8 -6 -5 -6 6 -1 11 2 17 5 13 3 -3 4 -12 1 -19z m-10 -50 c-3 -7 -5 -2 -5 12 0 14 2 19 5 13 2 -7 2 -19 0 -25z"/>
<path d="M2187 5018 c5 -83 11 -108 30 -136 12 -19 23 -45 23 -56 0 -12 5 -27 11 -33 8 -8 4 -22 -14 -50 -129 -205 -272 -643 -312 -958 -3 -27 -13 -69 -22 -93 -8 -24 -13 -46 -10 -49 13 -12 40 67 63 185 31 155 101 405 161 572 50 140 168 394 181 388 4 -1 27 -24 51 -50 l43 -48 -40 -62 c-49 -75 -91 -166 -123 -266 -15 -48 -25 -67 -29 -56 -5 12 -20 -9 -52 -72 -51 -100 -73 -165 -117 -339 -17 -66 -34 -130 -37 -142 -5 -19 -2 -23 16 -23 21 0 21 -3 15 -52 -14 -99 -21 -168 -18 -168 2 0 30 57 64 128 33 70 76 159 95 198 41 83 172 260 240 324 l48 45 -55 -63 c-125 -146 -127 -149 -144 -230 -9 -42 -23 -99 -31 -126 -16 -57 -17 -76 -5 -76 4 0 23 41 41 90 17 50 38 96 45 104 8 7 13 16 12 18 -1 3 27 -25 63 -62 72 -74 162 -210 308 -464 53 -92 112 -186 131 -207 l33 -40 -7 -262 c-6 -206 -11 -264 -22 -272 -11 -8 -11 -17 -3 -42 11 -30 12 -31 38 -17 15 8 44 17 65 20 41 7 41 7 26 35 -6 11 -10 65 -10 119 l1 99 -30 -6 c-36 -7 -42 13 -7 26 19 7 22 15 22 67 0 58 0 59 30 62 28 3 36 14 102 140 39 75 80 160 91 187 28 69 165 346 157 315 -4 -14 -22 -59 -40 -100 -32 -74 -97 -288 -111 -365 -7 -37 -8 -38 -16 -15 -7 22 -7 21 -5 -7 2 -18 0 -34 -4 -35 -4 -2 -26 -43 -49 -91 -25 -52 -60 -107 -86 -135 -43 -45 -45 -48 -42 -101 l3 -55 52 85 c29 47 64 109 78 139 l26 55 -6 -95 c-14 -222 -27 -336 -46 -396 -22 -71 -107 -296 -116 -304 -2 -3 -3 79 -1 182 l3 186 -35 -15 c-19 -8 -41 -17 -47 -20 -15 -6 -16 -17 -4 -80 37 -186 53 -323 47 -390 -3 -40 -4 -73 -2 -73 3 0 10 24 16 54 6 29 55 179 110 332 54 154 114 324 134 379 19 55 49 151 67 213 18 61 34 110 36 108 2 -2 0 -21 -5 -42 -21 -85 -24 -99 -13 -89 16 16 101 226 101 249 0 18 -4 16 -28 -13 -15 -19 -33 -48 -40 -65 l-12 -31 6 30 c3 17 14 39 23 50 66 73 174 298 193 404 11 60 3 211 -12 211 -5 0 -19 -32 -32 -71 -12 -39 -24 -67 -25 -62 -2 5 22 80 53 168 32 94 97 326 156 560 55 220 112 429 128 465 29 67 90 248 90 269 0 7 -19 11 -48 11 l-48 0 -17 -132 c-10 -73 -17 -146 -17 -162 0 -43 -373 -808 -395 -809 -5 -1 -12 12 -15 29 l-6 29 -7 -25 c-4 -14 -7 -40 -7 -59 0 -19 -11 -53 -24 -75 -49 -86 -37 -100 14 -16 63 102 89 141 110 158 8 8 9 10 2 7 -10 -5 -9 1 2 24 19 35 32 43 16 9 -11 -22 -10 -22 4 -4 9 10 13 22 11 26 -3 4 16 43 40 86 47 81 156 324 195 432 13 34 25 61 27 59 2 -3 -7 -33 -20 -68 -14 -35 -42 -111 -64 -169 -22 -58 -61 -163 -87 -235 -26 -71 -80 -195 -120 -275 -40 -80 -92 -192 -115 -250 -29 -74 -58 -127 -96 -175 -143 -181 -181 -236 -222 -320 -24 -49 -42 -85 -41 -80 12 45 125 313 195 460 46 99 93 208 103 243 24 81 41 410 20 397 -16 -10 -30 12 -30 49 l0 30 35 -34 35 -34 0 55 c0 66 -28 130 -78 182 -20 20 -31 37 -25 37 20 0 81 -81 97 -128 9 -25 16 -71 17 -101 1 -31 4 -67 8 -81 6 -20 10 -9 20 50 7 41 19 103 27 137 8 34 14 64 14 67 0 11 -57 59 -109 93 -40 26 -50 37 -40 44 26 16 -8 9 -57 -12 -54 -22 -176 -117 -200 -154 -11 -18 -20 -75 -30 -198 -8 -95 -21 -197 -30 -227 -13 -44 -26 -136 -33 -237 -1 -6 -9 -14 -18 -16 -17 -4 -17 -5 0 -6 20 -1 21 -45 10 -356 l-7 -190 -14 60 c-10 43 -14 146 -15 362 l-2 302 25 4 c25 4 25 4 -2 6 -31 1 -30 0 -58 140 -28 140 -60 218 -118 293 -27 35 -74 101 -104 148 -47 74 -53 89 -47 118 4 19 12 39 18 45 20 20 12 39 -45 115 -31 41 -50 72 -43 68 8 -4 6 -1 -3 7 -10 8 -18 19 -18 24 0 6 -7 17 -16 24 -14 12 -24 5 -80 -54 -35 -37 -64 -65 -64 -63 0 2 23 37 50 77 28 40 50 76 50 80 0 5 -16 -3 -36 -16 -28 -19 -48 -25 -83 -23 l-46 1 43 4 c40 4 42 6 42 36 0 18 3 62 7 100 l6 67 -57 0 -56 0 7 -102z m337 -521 c58 -117 59 -112 -41 -192 -49 -38 -121 -99 -162 -134 -41 -36 -71 -56 -67 -45 5 10 17 42 28 69 11 28 54 130 95 228 87 204 83 202 147 74z m-222 -56 c-31 -66 -58 -118 -60 -117 -7 8 102 236 113 236 2 0 -22 -54 -53 -119z m743 -7 c-11 -8 -29 -21 -40 -28 -18 -12 -20 -28 -26 -192 l-5 -179 -2 162 c-1 89 2 173 7 186 5 13 24 34 43 45 38 25 53 29 23 6z m122 -16 c-3 -8 -6 -5 -6 6 -1 11 2 17 5 13 3 -3 4 -12 1 -19z m14 -356 l8 -294 -24 -47 c-13 -27 -55 -102 -93 -167 -93 -160 -121 -216 -149 -299 l-23 -70 5 55 c3 30 12 138 20 240 9 102 20 212 26 245 27 153 102 425 150 546 46 115 54 128 62 108 5 -13 13 -156 18 -317z m-523 78 c43 -118 87 -246 97 -285 9 -38 23 -85 31 -104 15 -35 18 -212 5 -326 -7 -70 -8 -69 -66 70 -53 129 -102 210 -176 290 l-28 30 14 91 c7 50 19 173 26 273 7 99 13 180 15 178 1 -1 38 -99 82 -217z m-133 44 c-13 -54 -32 -148 -41 -209 -9 -60 -18 -112 -20 -114 -2 -2 -33 15 -68 39 l-65 42 16 32 c14 28 95 161 167 274 15 24 29 42 32 40 2 -3 -7 -49 -21 -104z m232 -266 c-3 -7 -5 -2 -5 12 0 14 2 19 5 13 2 -7 2 -19 0 -25z m-707 -244 c-20 -98 -20 -98 -15 -30 4 59 23 141 32 133 1 -2 -6 -48 -17 -103z m1367 -66 c-3 -8 -6 -5 -6 6 -1 11 2 17 5 13 3 -3 4 -12 1 -19z m-10 -40 c-3 -8 -6 -5 -6 6 -1 11 2 17 5 13 3 -3 4 -12 1 -19z m-10 -40 c-3 -8 -6 -5 -6 6 -1 11 2 17 5 13 3 -3 4 -12 1 -19z m-10 -40 c-3 -8 -6 -5 -6 6 -1 11 2 17 5 13 3 -3 4 -12 1 -19z m-10 -40 c-3 -8 -6 -5 -6 6 -1 11 2 17 5 13 3 -3 4 -12 1 -19z m-10 -40 c-3 -8 -6 -5 -6 6 -1 11 2 17 5 13 3 -3 4 -12 1 -19z m-10 -50 c-3 -8 -6 -5 -6 6 -1 11 2 17 5 13 3 -3 4 -12 1 -19z m-10 -60 c-3 -7 -5 -2 -5 12 0 14 2 19 5 13 2 -7 2 -19 0 -25z m-10 -40 c-3 -8 -6 -5 -6 6 -1 11 2 17 5 13 3 -3 4 -12 1 -19z m-440 -120 c-3 -8 -6 -5 -6 6 -1 11 2 17 5 13 3 -3 4 -12 1 -19z m14 -55 c-12 -20 -14 -14 -5 12 4 9 9 14 11 11 3 -2 0 -13 -6 -23z m3 -376 c7 -6 6 -7 -4 -4 -8 2 -16 16 -17 33 -1 25 0 26 4 4 3 -14 10 -29 17 -33z"/>
<path d="M3014 3928 c-16 -53 5 -236 27 -222 17 10 6 244 -12 244 -4 0 -11 -10 -15 -22z"/>
<path d="M2380 5114 c0 -12 35 -64 43 -64 4 0 6 -4 3 -9 -8 -13 4 -42 15 -35 5 3 6 -1 4 -8 -6 -14 86 -256 109 -289 7 -10 16 -16 21 -11 5 4 5 1 1 -6 -9 -16 3 -54 15 -47 5 3 6 -1 3 -9 -4 -10 -1 -16 7 -16 7 0 9 -3 6 -7 -4 -3 23 -62 59 -131 36 -69 83 -168 104 -221 21 -53 50 -121 64 -151 18 -39 26 -73 27 -115 1 -59 1 -59 14 -30 47 104 44 418 -7 865 l-33 285 -77 3 -77 3 -4 -28 -4 -28 -2 28 c0 15 -6 27 -12 27 -14 0 -6 -46 15 -93 8 -18 16 -63 19 -102 3 -38 19 -126 37 -194 17 -68 29 -125 27 -127 -2 -2 -16 35 -31 82 -26 81 -136 306 -191 394 -25 40 -25 40 -90 40 -36 0 -65 -3 -65 -6z m110 -199 c0 -5 -5 -3 -10 5 -5 8 -10 20 -10 25 0 6 5 3 10 -5 5 -8 10 -19 10 -25z m60 -150 c0 -5 -5 -3 -10 5 -5 8 -10 20 -10 25 0 6 5 3 10 -5 5 -8 10 -19 10 -25z m270 -320 c11 -82 20 -157 19 -165 -2 -22 -48 210 -49 245 0 24 -2 27 -11 15 -9 -12 -10 -12 -5 3 3 10 7 46 7 80 l1 62 9 -45 c4 -25 17 -112 29 -195z m27 -217 c-3 -7 -5 -2 -5 12 0 14 2 19 5 13 2 -7 2 -19 0 -25z m10 -50 c-3 -8 -6 -5 -6 6 -1 11 2 17 5 13 3 -3 4 -12 1 -19z"/>
<path d="M2930 5112 c0 -16 59 -216 95 -327 39 -117 67 -179 86 -191 18 -11 6 47 -56 265 -30 106 -57 208 -61 227 -5 29 -10 34 -35 34 -16 0 -29 -4 -29 -8z"/>
<path d="M3030 5103 c0 -55 107 -425 136 -470 10 -16 24 -23 45 -23 22 0 43 -12 79 -46 l49 -46 15 54 c21 79 28 114 21 106 -4 -3 -14 -32 -24 -65 l-18 -58 -10 55 c-6 30 -18 91 -26 135 -8 44 -41 146 -73 228 l-57 147 -69 0 c-58 0 -68 -3 -68 -17z"/>
<path d="M3268 5053 c19 -38 38 -70 42 -73 5 -5 50 -147 75 -239 6 -24 14 -40 17 -35 5 8 16 48 86 307 l30 108 -26 -3 c-22 -3 -28 -12 -48 -83 -12 -44 -30 -102 -40 -129 l-17 -49 -29 114 c-15 63 -28 122 -28 131 0 13 -8 18 -31 18 -27 0 -30 -3 -23 -22 12 -40 11 -44 -4 -10 -8 17 -20 32 -27 32 -8 0 1 -26 23 -67z m42 -48 c0 -5 -5 -3 -10 5 -5 8 -10 20 -10 25 0 6 5 3 10 -5 5 -8 10 -19 10 -25z"/>
<path d="M3352 5063 c13 -91 16 -93 17 -15 1 54 -2 72 -12 72 -11 0 -12 -12 -5 -57z"/>
<path d="M3546 4986 c-25 -72 -63 -194 -85 -271 -22 -77 -52 -173 -66 -214 -14 -41 -23 -76 -21 -78 2 -2 19 38 39 89 20 51 63 163 97 248 33 85 62 173 64 195 1 22 10 54 19 70 l16 30 -5 -45 c-4 -33 1 -64 20 -115 21 -58 24 -63 20 -29 -5 30 2 63 26 130 17 49 34 97 37 106 5 15 -2 17 -55 17 l-60 -1 -46 -132z"/>
<path d="M3915 5020 c-37 -55 -69 -100 -70 -100 -1 0 2 25 7 56 12 76 3 80 -17 8 -8 -33 -31 -106 -51 -164 -92 -270 -107 -336 -107 -465 0 -66 7 -172 15 -235 14 -112 14 -114 22 -65 11 77 35 165 58 219 11 28 24 70 28 95 5 29 7 0 3 -79 -4 -94 -12 -153 -35 -240 -16 -63 -41 -155 -54 -205 -24 -93 -54 -252 -54 -288 0 -16 3 -17 15 -7 18 15 30 57 115 395 38 149 75 295 84 326 29 109 141 341 212 441 18 25 45 79 59 120 27 73 95 278 95 285 0 1 -10 3 -22 3 -19 -1 -36 -24 -94 -133 -101 -186 -124 -244 -124 -315 0 -52 -6 -69 -50 -148 -28 -49 -64 -123 -81 -164 -38 -91 -40 -93 -33 -44 22 160 115 557 163 698 17 50 31 93 31 98 0 4 -10 8 -23 8 -18 0 -38 -22 -92 -100z"/>
<path d="M4344 5037 c-105 -108 -145 -163 -240 -327 -121 -209 -177 -337 -223 -505 -58 -212 -78 -319 -91 -485 -12 -169 -32 -263 -71 -342 -33 -66 -54 -85 -45 -42 12 62 27 167 23 171 -2 2 -20 -22 -39 -54 -19 -32 -42 -71 -52 -88 -17 -28 -16 -27 12 5 l31 35 -5 -100 c-7 -137 -27 -235 -79 -383 -30 -84 -45 -141 -44 -172 l1 -45 9 40 c15 69 32 126 35 122 2 -2 -3 -38 -11 -81 -8 -43 -16 -103 -16 -134 l-2 -57 -7 50 c-5 28 -14 69 -21 92 -11 37 -10 61 9 180 12 76 27 185 33 243 6 57 17 120 25 140 l14 35 -31 -35 c-169 -190 -165 -183 -250 -427 -65 -187 -70 -196 -63 -103 4 54 2 70 -5 59 -18 -29 -41 -131 -42 -189 0 -30 -4 -75 -9 -100 -6 -33 -8 -12 -7 82 1 70 -1 121 -5 113 -13 -22 -37 -136 -48 -230 -14 -120 -30 -173 -96 -316 -30 -67 -53 -123 -51 -126 3 -2 35 55 72 129 74 148 75 148 12 -7 -42 -103 -98 -271 -112 -340 l-7 -30 -13 30 c-7 17 -27 44 -46 59 -31 27 -38 28 -104 24 -173 -12 -624 -236 -813 -404 -147 -129 -308 -387 -422 -675 -62 -155 -90 -261 -106 -409 -8 -74 -25 -180 -38 -235 l-25 -100 0 93 c-1 101 18 270 50 447 29 162 37 197 79 340 35 118 39 145 45 289 3 87 10 195 16 240 11 94 38 196 50 196 5 0 9 -61 9 -135 l0 -135 61 0 c59 0 61 1 54 23 -15 46 -24 156 -24 287 l-1 135 26 -43 c25 -42 38 -50 49 -32 3 6 14 10 24 10 10 0 30 9 45 21 l26 20 10 -26 c5 -14 10 -30 10 -34 0 -5 7 -14 15 -21 13 -11 14 -8 10 19 -16 97 -16 97 -1 78 16 -20 29 -93 20 -108 -3 -5 1 -21 10 -34 9 -13 16 -28 16 -33 0 -4 -26 -39 -58 -78 -58 -69 -120 -150 -167 -220 -24 -35 -35 -32 -16 4 8 15 3 17 -47 14 l-57 -4 -2 -98 c-2 -91 -5 -104 -43 -186 -22 -48 -38 -85 -35 -82 14 14 168 284 168 295 0 7 4 11 7 10 4 -1 28 26 53 60 97 131 329 372 423 439 78 56 207 110 310 129 44 9 135 15 220 15 l144 0 0 79 c0 94 -25 342 -41 409 -7 26 -29 85 -49 132 l-37 85 10 248 c7 174 7 251 -1 259 -11 11 -16 -30 -27 -207 -4 -66 -2 -86 6 -75 8 12 10 10 5 -10 -3 -14 -7 -61 -8 -105 l-2 -80 -6 85 c-3 47 -8 72 -9 55 -2 -16 -6 -41 -10 -55 -7 -23 -10 -20 -40 39 -18 36 -37 85 -41 110 l-8 46 -1 -39 c-1 -39 -2 -38 -107 115 -58 85 -108 166 -111 182 -3 15 -9 30 -14 33 -10 6 -77 -127 -143 -281 -34 -81 -60 -124 -96 -164 -28 -30 -50 -52 -50 -48 0 4 30 83 66 175 66 169 120 279 176 362 111 163 188 279 188 284 0 3 -12 22 -26 43 -31 46 -47 46 -181 -2 -110 -39 -148 -64 -307 -199 -163 -139 -197 -178 -250 -288 -75 -158 -90 -221 -83 -357 10 -182 25 -306 46 -379 11 -37 23 -102 26 -144 4 -43 10 -78 15 -78 8 0 20 47 21 89 1 25 1 24 16 -9 22 -50 53 -243 53 -327 0 -42 4 -73 10 -73 6 0 10 3 10 8 1 4 21 30 46 57 52 57 49 48 -17 -50 -56 -84 -72 -99 -98 -90 -28 9 -108 99 -144 163 -16 29 -31 52 -32 50 -2 -2 0 -31 4 -65 4 -35 4 -66 0 -70 -15 -17 -89 -204 -127 -323 -28 -90 -42 -151 -46 -215 -4 -59 -3 -83 3 -70 5 11 10 50 10 88 1 37 5 67 10 67 5 0 11 14 15 32 11 53 14 27 5 -47 -15 -133 -60 -470 -64 -480 -2 -5 -4 103 -4 240 -1 181 3 274 14 335 16 91 18 190 6 255 l-7 40 -18 -79 c-10 -43 -24 -95 -30 -115 l-13 -36 -8 65 c-4 36 -6 198 -6 360 2 217 -2 334 -14 440 -27 235 -30 226 -29 -87 1 -164 0 -280 -2 -258 -22 227 -64 470 -139 803 -41 183 -41 140 0 -198 14 -107 32 -260 40 -340 22 -197 55 -413 65 -424 5 -5 6 -14 4 -20 -3 -7 9 -73 25 -147 70 -316 71 -325 78 -708 3 -196 3 -353 -1 -349 -4 3 -9 107 -11 230 -4 238 -16 347 -66 584 -103 499 -204 772 -345 936 -25 29 -54 72 -64 95 -41 92 -93 99 -343 42 -53 -12 -62 -12 -89 4 l-30 17 8 -67 c10 -85 10 -103 0 -238 -4 -60 -7 -179 -8 -263 0 -85 -2 -151 -5 -148 -3 3 -7 89 -9 193 -4 213 -13 254 -78 360 -55 89 -66 91 -67 11 l0 -63 -24 68 c-29 84 -71 155 -148 249 -32 40 -72 92 -89 116 -16 24 -32 41 -35 38 -3 -2 13 -51 35 -108 21 -57 47 -137 56 -178 10 -41 27 -104 39 -140 20 -62 21 -64 29 -35 5 19 6 5 4 -39 -3 -46 -1 -64 6 -55 6 10 8 2 3 -23 -8 -50 5 -144 17 -126 6 9 7 6 3 -10 -6 -22 21 -149 50 -231 8 -24 13 -46 11 -48 -2 -3 -7 6 -11 18 -4 12 -43 88 -86 167 -44 80 -79 150 -79 155 0 8 -55 1 -73 -10 -4 -2 -7 -27 -7 -56 l0 -51 40 39 c22 21 41 37 44 34 16 -17 193 -696 183 -705 -2 -3 -19 37 -37 88 -36 102 -122 278 -127 261 -2 -6 14 -57 36 -114 73 -195 210 -641 242 -794 12 -56 11 -233 -1 -240 -24 -15 -6 -25 43 -25 66 0 96 24 77 61 -20 36 7 222 44 310 6 13 0 18 -27 23 -42 8 -104 -3 -85 -15 7 -5 32 -9 56 -9 23 0 42 -5 42 -11 0 -12 -109 -2 -124 12 -5 5 -4 15 4 24 7 9 13 29 12 44 -1 28 1 29 38 24 36 -5 39 -4 43 23 3 20 4 14 6 -18 1 -47 17 -71 31 -49 4 7 2 37 -3 69 -7 39 -6 75 2 118 6 34 11 75 11 91 0 16 5 34 12 41 9 9 4 12 -23 13 -23 1 -27 3 -11 6 22 4 22 7 22 146 0 165 -17 690 -25 792 l-5 70 54 58 54 58 47 -143 c26 -79 49 -168 51 -198 8 -85 12 -97 45 -131 17 -17 31 -29 32 -28 2 2 11 38 21 79 26 104 29 109 52 68 44 -75 64 -137 64 -200 0 -35 4 -80 9 -101 l9 -39 -23 22 c-13 13 -23 25 -23 29 2 6 -88 99 -161 166 l-44 40 42 -63 c82 -122 170 -345 206 -517 9 -44 18 -91 21 -105 4 -20 3 -22 -5 -10 -9 13 -11 13 -11 -1 0 -16 89 -303 111 -356 12 -29 10 -42 -24 -150 -28 -89 -38 -140 -41 -206 -2 -49 -8 -93 -12 -97 -5 -5 -25 -13 -44 -18 -19 -6 -27 -11 -17 -11 10 -1 33 6 53 14 25 10 42 12 60 5 14 -6 28 -10 32 -10 4 0 6 55 4 122 -4 157 5 275 21 259 8 -8 13 -78 15 -214 1 -111 6 -222 12 -247 9 -43 51 -336 49 -349 0 -3 -13 37 -28 90 -40 140 -78 240 -104 273 -20 24 -28 27 -54 22 -17 -4 -49 -23 -71 -41 l-40 -35 -21 36 c-32 54 -51 43 -88 -56 -19 -50 -32 -75 -33 -60 0 57 -24 383 -27 375 -1 -6 -10 -167 -18 -360 -9 -192 -18 -365 -22 -383 l-5 -32 44 0 c38 0 50 6 84 39 38 36 41 44 47 105 3 36 16 107 29 157 l23 91 39 -43 c57 -64 148 -205 181 -282 l29 -67 53 0 53 0 -5 108 c-16 356 -16 424 2 437 15 11 15 15 4 29 -8 10 -11 28 -7 46 4 22 1 36 -12 48 -9 10 -17 34 -18 54 -1 19 -17 76 -37 124 -98 247 -118 299 -156 423 -23 73 -41 135 -39 137 2 2 19 -43 37 -99 57 -175 131 -368 183 -475 38 -78 56 -131 74 -220 13 -64 30 -138 38 -165 15 -48 36 -270 36 -385 0 -54 3 -63 17 -60 13 2 28 49 65 203 27 110 53 236 58 280 l9 80 -4 -91 c-3 -83 -45 -282 -89 -426 l-15 -48 33 0 34 0 22 83 c40 155 80 263 126 343 114 196 138 240 180 336 25 56 68 163 96 237 81 217 215 472 291 551 13 14 39 38 58 55 19 16 12 6 -15 -22 l-50 -53 17 -162 c13 -129 21 -169 37 -190 11 -15 20 -32 20 -38 0 -10 -39 -132 -44 -137 -1 -1 -3 15 -3 35 -1 20 -11 129 -23 241 -11 112 -20 206 -20 210 0 3 -5 -1 -10 -9 -5 -8 -10 -46 -10 -85 0 -75 25 -321 39 -393 6 -29 4 -66 -5 -115 -54 -279 -79 -563 -64 -747 5 -69 10 -128 10 -132 0 -5 10 -8 21 -8 20 0 21 4 14 42 -37 223 -32 397 21 717 14 84 22 161 19 170 -5 12 -3 13 6 4 9 -9 7 -41 -6 -140 -20 -142 -27 -576 -12 -715 l9 -78 50 0 51 0 -6 212 c-3 135 -15 290 -31 422 -14 115 -26 244 -26 288 0 82 16 168 31 168 9 0 11 -8 30 -95 7 -30 13 -242 16 -522 4 -370 8 -473 18 -473 13 0 19 142 31 810 5 249 10 344 20 369 8 18 14 61 14 95 0 81 -19 321 -29 366 -8 35 -7 37 39 62 l47 26 12 -206 c7 -114 17 -232 23 -262 5 -30 13 -136 16 -235 7 -170 12 -205 31 -205 21 0 30 72 35 291 4 170 2 239 -6 247 -9 9 -5 65 12 227 14 118 27 215 31 215 17 0 24 -135 22 -435 -2 -284 0 -315 12 -276 32 103 37 176 33 463 -2 158 -1 285 3 283 3 -2 22 1 42 7 47 14 72 -2 132 -84 l45 -60 0 63 c0 35 -4 80 -10 99 l-9 35 34 -37 c31 -34 35 -44 35 -93 0 -64 16 -66 26 -3 7 41 47 107 115 189 l38 46 4 114 3 114 2 -113 2 -113 23 12 c21 12 21 11 8 -7 -8 -10 -25 -30 -37 -44 -12 -14 -31 -43 -41 -65 -11 -22 -24 -39 -30 -38 -6 1 -19 -8 -29 -20 l-19 -22 23 19 c30 26 28 14 -12 -52 -165 -278 -356 -651 -395 -772 -32 -97 -63 -261 -57 -298 3 -22 1 -30 -6 -26 -6 4 -8 3 -5 -3 3 -5 -5 -52 -18 -104 -39 -154 -84 -454 -85 -572 0 -4 26 -7 57 -5 l57 3 9 40 c18 83 82 286 142 450 71 193 91 270 135 510 49 265 105 441 213 668 55 113 127 240 127 222 0 -5 -18 -39 -40 -75 l-40 -65 0 -161 c0 -181 -3 -174 76 -174 24 0 44 -4 44 -9 0 -14 -98 -23 -121 -11 -11 7 -23 10 -25 7 -3 -2 2 -30 11 -63 20 -76 22 -443 3 -463 -11 -11 -1 -12 57 -6 39 4 68 5 65 2 -3 -2 -47 -17 -99 -31 -52 -15 -112 -36 -134 -47 -43 -23 -123 -92 -139 -122 -13 -24 -7 -21 87 49 83 61 128 85 218 114 36 12 71 28 77 35 8 10 14 90 17 242 7 274 7 270 0 308 -3 17 -7 155 -8 307 -3 226 -6 273 -16 255 -12 -22 -12 -22 -13 -1 0 12 -7 27 -15 34 -10 9 -13 27 -10 73 3 34 7 111 9 171 4 101 7 112 38 163 24 39 34 49 36 36 14 -73 201 -596 219 -613 3 -3 3 27 -1 65 -4 41 -30 139 -61 235 -29 91 -67 209 -84 262 l-31 98 68 104 c37 58 69 105 72 105 7 1 50 -151 50 -177 0 -19 6 -22 39 -22 21 0 54 -3 72 -6 31 -5 32 -4 16 9 -15 13 -17 24 -11 81 8 81 43 139 115 192 27 19 46 40 43 46 -3 5 16 31 44 56 41 39 60 69 107 175 56 125 87 177 105 177 11 0 13 7 -65 -180 -31 -74 -68 -163 -82 -197 -20 -50 -35 -70 -81 -105 -49 -38 -62 -56 -103 -143 -40 -85 -55 -129 -95 -267 -4 -14 -16 -18 -47 -18 l-42 0 -3 -240 -4 -239 51 -7 51 -7 0 -156 c0 -94 6 -190 15 -241 16 -90 18 -337 5 -550 -6 -113 -7 -112 -8 70 -1 102 -6 212 -12 244 -6 37 -6 84 0 125 5 37 5 81 0 101 l-8 35 -1 -45 c-1 -39 -19 -93 -22 -65 -11 127 -49 315 -84 420 -39 118 -117 300 -143 333 -16 20 -41 60 -56 87 -15 28 -24 41 -20 30 4 -11 20 -85 36 -165 16 -80 40 -185 53 -235 29 -104 44 -191 21 -115 -17 56 -19 31 -5 -61 6 -38 9 -75 7 -81 -3 -7 -13 38 -23 100 -10 62 -22 115 -26 118 -12 7 -11 -187 1 -318 11 -114 42 -279 84 -446 40 -157 42 -202 15 -382 -13 -88 -26 -156 -30 -152 -12 14 -48 137 -63 219 -9 45 -22 99 -31 119 l-15 36 -62 -36 c-35 -19 -120 -65 -190 -102 -158 -82 -252 -159 -296 -242 -33 -61 -76 -186 -70 -203 5 -16 83 30 142 84 31 29 59 51 61 48 3 -2 5 -22 5 -44 0 -34 2 -38 15 -27 11 9 15 34 15 99 l0 86 88 86 c48 47 96 92 107 99 11 8 -13 -16 -52 -54 -57 -52 -73 -74 -73 -96 0 -52 69 -418 89 -470 30 -79 47 -100 81 -100 l29 0 -15 43 c-9 23 -26 78 -39 122 l-23 80 -1 -69 c-1 -38 -3 -67 -6 -64 -16 16 -46 228 -51 365 l-7 158 22 -19 c17 -15 21 -30 21 -77 0 -55 12 -81 41 -91 7 -2 6 -30 -6 -90 -14 -76 -14 -90 -2 -110 13 -20 75 -179 91 -230 4 -15 18 -18 79 -18 l74 0 -48 198 c-27 108 -58 216 -69 240 -23 48 -9 47 22 -2 l19 -31 -5 40 c-28 218 -27 214 -51 229 -12 8 -25 12 -29 9 -9 -9 -7 -122 3 -165 5 -22 5 -38 0 -38 -13 0 -11 -46 7 -159 9 -55 14 -108 12 -118 -2 -10 -14 45 -27 122 -15 91 -29 147 -41 160 -29 34 -35 51 -8 28 13 -13 27 -23 31 -23 4 0 7 54 7 119 l0 120 -27 3 -28 4 28 8 c18 5 32 4 42 -4 30 -25 130 -187 151 -245 22 -60 74 -350 74 -415 0 -65 9 -80 46 -80 19 0 34 2 34 5 0 3 -9 25 -20 48 -12 23 -14 33 -6 22 9 -11 20 -25 26 -32 5 -7 10 -19 10 -28 0 -8 7 -15 15 -15 21 0 19 12 -12 56 -30 45 -63 125 -63 154 0 17 3 19 19 11 17 -10 19 -4 25 72 3 45 11 293 16 551 6 258 12 472 15 474 2 3 16 -3 31 -13 l26 -17 -9 -91 c-4 -51 -8 -128 -7 -172 0 -44 2 -226 4 -405 2 -179 0 -358 -4 -399 l-8 -73 32 7 33 7 -7 -43 c-3 -24 -9 -61 -12 -82 l-6 -38 38 3 39 3 27 185 c15 101 34 206 42 233 8 26 11 47 8 45 -60 -30 -64 -32 -82 -20 -24 15 -30 0 -31 -81 -1 -35 -4 -49 -7 -32 -5 36 16 287 29 335 9 36 6 -27 -8 -148 -6 -50 -5 -52 18 -51 63 2 60 -10 60 269 -1 214 3 285 23 440 13 102 22 187 20 189 -2 2 -15 -20 -28 -50 -15 -34 -34 -113 -50 -214 -44 -274 -46 -283 -40 -190 3 44 14 132 25 196 25 155 25 155 -13 163 -38 7 -32 17 11 18 24 1 38 9 54 32 12 17 41 56 66 86 63 78 102 166 177 405 60 190 67 219 68 300 0 50 -3 108 -7 129 l-9 39 -31 -64 c-18 -35 -63 -116 -99 -179 -63 -107 -129 -271 -199 -495 l-19 -60 4 107 c3 60 3 108 1 108 -3 0 -9 -15 -14 -32 -9 -33 -9 -33 -10 -5 -1 16 13 82 29 147 17 66 50 213 75 327 57 266 67 297 111 358 l36 50 -6 -35 c-19 -101 -45 -308 -50 -400 l-6 -105 20 60 c11 33 20 68 20 78 0 10 5 15 10 12 7 -4 9 2 6 17 -3 12 3 57 14 98 17 65 19 52 4 -30 -14 -79 27 65 50 175 32 150 84 317 129 413 17 37 33 71 36 76 8 18 -144 -112 -194 -165 -28 -30 -73 -83 -100 -119 -27 -36 -80 -102 -117 -147 -37 -45 -68 -85 -68 -89 0 -20 101 93 190 211 54 72 122 153 151 180 l53 50 -54 -60 c-62 -70 -174 -217 -252 -330 -56 -82 -112 -175 -105 -175 2 0 28 36 57 80 30 43 55 78 57 76 2 -1 4 -43 5 -92 1 -79 -5 -116 -58 -328 l-59 -239 -12 64 c-18 93 -28 410 -15 490 12 75 67 229 117 330 43 85 94 129 235 204 64 34 139 83 175 115 34 30 94 84 134 119 40 34 90 88 113 120 22 31 55 71 71 89 17 17 28 32 25 32 -4 0 -54 -38 -113 -84 -58 -47 -118 -94 -134 -106 l-30 -20 25 92 c40 153 133 410 179 497 l13 26 11 -40 c5 -22 15 -63 21 -91 l11 -51 -66 -64 c-69 -66 -104 -116 -129 -184 -13 -38 -10 -36 87 58 55 54 105 96 110 94 15 -5 37 -71 51 -152 l12 -70 -31 -50 c-103 -162 -207 -515 -280 -950 -46 -274 -50 -287 -51 -162 -1 108 -25 239 -70 387 -25 83 -26 109 -7 190 3 14 3 22 -1 19 -9 -8 -76 -269 -76 -297 0 -12 9 -41 20 -62 11 -22 27 -69 35 -105 17 -72 44 -339 41 -395 -2 -19 -22 -84 -45 -145 -52 -137 -153 -488 -150 -522 0 -4 33 89 73 207 81 241 116 333 122 327 3 -2 0 -17 -7 -33 -19 -50 -190 -774 -188 -798 0 -6 29 102 65 239 64 251 154 549 162 541 2 -3 -28 -116 -67 -253 -98 -346 -127 -466 -135 -553 l-7 -75 49 90 c27 50 83 149 125 222 42 72 88 167 103 210 35 102 133 259 296 475 107 141 137 188 150 235 l17 58 -6 -47 c-3 -27 -3 -48 0 -48 3 0 38 18 79 39 40 21 139 60 221 85 81 26 147 51 147 57 0 22 -217 -37 -298 -81 -42 -23 -52 -25 -47 -12 4 9 40 115 81 235 81 244 112 315 172 404 70 101 52 125 -30 41 -47 -48 -49 -49 -33 -17 10 18 49 79 86 133 l69 99 0 129 c0 78 -4 128 -10 128 -5 0 -33 -29 -62 -64 -29 -36 -54 -63 -55 -62 -5 5 56 212 91 309 35 96 36 100 36 250 l-1 152 -18 -50 c-10 -27 -44 -108 -75 -180 -143 -322 -252 -650 -241 -725 4 -28 3 -31 -5 -15 -7 15 -9 6 -5 -35 4 -41 2 -50 -5 -35 -8 16 -10 12 -7 -20 3 -22 -1 -94 -8 -160 -9 -82 -13 -103 -14 -66 0 29 -10 92 -21 140 -25 114 -42 387 -30 516 16 180 58 501 74 561 11 45 66 382 66 408 0 3 13 12 29 21 l29 15 7 -88 c3 -48 12 -133 20 -190 14 -97 13 -106 -4 -140 -52 -107 -110 -313 -160 -570 -40 -202 -48 -297 -32 -367 5 -19 9 12 13 90 5 104 11 136 47 244 22 68 64 224 91 345 28 122 54 228 57 236 3 8 16 -23 29 -69 13 -46 25 -88 27 -94 1 -5 27 46 56 114 30 68 60 137 67 153 8 16 14 41 14 55 0 25 -1 25 -17 -7 -24 -49 -28 -30 -4 23 20 44 21 64 19 299 l-1 251 -7 -242 c-4 -150 -10 -246 -17 -255 -6 -7 -18 -35 -26 -63 l-16 -50 0 40 c-2 77 -41 319 -67 414 -65 237 -62 222 -48 260 44 126 105 331 102 346 -2 13 -17 3 -63 -42 -33 -32 -66 -67 -73 -78 -6 -11 3 12 22 51 19 39 60 107 91 150 32 43 68 100 81 127 l24 47 -85 0 c-47 0 -85 -3 -85 -7 0 -5 -10 -19 -21 -33 -21 -25 -21 -19 -2 28 4 8 -8 12 -42 12 l-47 0 6 -127 c4 -71 7 -141 7 -156 0 -15 6 -30 14 -34 23 -8 18 -45 -14 -95 -54 -85 -81 -138 -92 -184 -18 -69 -21 -45 -5 32 32 150 58 335 63 447 l6 117 -46 0 c-45 0 -46 -1 -42 -27 9 -49 11 -343 3 -330 -4 6 -8 62 -8 123 0 61 -3 139 -6 173 -6 50 -10 61 -25 61 -17 0 -19 -9 -19 -79 l0 -80 -61 -92 c-33 -50 -69 -111 -79 -135 -19 -44 -50 -176 -50 -213 0 -11 -18 -37 -41 -58 -23 -21 -68 -73 -100 -116 l-59 -79 -35 74 -35 73 6 -105 6 -105 -61 -65 c-74 -77 -143 -164 -178 -222 -13 -24 -22 -35 -19 -25 3 9 24 87 46 173 66 249 117 374 233 569 69 115 210 311 291 402 l69 78 -56 3 -57 3 -60 -65 c-198 -211 -341 -437 -440 -693 -24 -62 -45 -111 -47 -109 -7 7 79 221 126 316 87 173 180 311 299 443 31 34 65 72 76 85 l19 22 -24 0 c-17 0 -47 -24 -105 -83z m543 -39 c-3 -8 -6 -5 -6 6 -1 11 2 17 5 13 3 -3 4 -12 1 -19z m-160 -271 c22 3 23 1 16 -75 -7 -97 -13 -105 -13 -19 0 53 -3 67 -15 67 -10 0 -15 -10 -15 -27 -1 -27 -24 -336 -36 -482 l-7 -73 29 6 c16 3 45 8 65 12 36 6 37 7 32 42 -4 33 32 280 43 291 7 8 3 -41 -14 -159 -9 -63 -16 -125 -14 -137 4 -24 30 -32 36 -10 2 6 16 64 31 127 40 165 41 165 37 13 -2 -87 -8 -142 -15 -149 -7 -6 -39 -21 -72 -33 -196 -73 -336 -159 -455 -280 -132 -134 -215 -259 -266 -404 -15 -43 -29 -76 -31 -73 -9 8 58 192 108 293 32 69 49 116 49 141 0 43 41 184 48 164 2 -7 -1 -26 -6 -42 l-11 -29 52 33 c29 18 112 61 185 96 72 35 132 67 132 72 0 12 -6 10 -50 -12 -58 -29 -62 -24 -8 11 55 36 51 18 69 369 9 198 30 397 47 445 4 12 11 -20 17 -80 10 -95 11 -100 32 -98z m153 109 c0 -3 -4 -8 -10 -11 -5 -3 -10 -1 -10 4 0 6 5 11 10 11 6 0 10 -2 10 -4z m-153 -328 c-3 -7 -5 -2 -5 12 0 14 2 19 5 13 2 -7 2 -19 0 -25z m110 -20 c-3 -7 -5 -2 -5 12 0 14 2 19 5 13 2 -7 2 -19 0 -25z m-100 -40 c-3 -8 -6 -5 -6 6 -1 11 2 17 5 13 3 -3 4 -12 1 -19z m-263 -80 c-3 -46 -7 -137 -7 -203 l-2 -120 -53 -28 c-29 -16 -55 -27 -57 -25 -2 2 -9 24 -16 49 -11 42 -10 51 21 129 42 110 113 280 117 280 2 0 0 -37 -3 -82z m253 40 c-3 -8 -6 -5 -6 6 -1 11 2 17 5 13 3 -3 4 -12 1 -19z m-10 -40 c-3 -8 -6 -5 -6 6 -1 11 2 17 5 13 3 -3 4 -12 1 -19z m-10 -60 c-3 -7 -5 -2 -5 12 0 14 2 19 5 13 2 -7 2 -19 0 -25z m-488 -277 c-13 -66 -25 -119 -26 -117 -6 6 16 165 28 207 22 71 21 33 -2 -90z m565 -20 c-4 -23 -9 -40 -11 -37 -3 3 -2 23 2 46 4 23 9 39 11 37 3 -2 2 -23 -2 -46z m-600 -63 c-2 -64 -13 -130 -35 -213 -39 -149 -44 -160 -52 -101 -4 26 -21 89 -38 142 l-32 95 24 27 c25 28 132 142 135 142 0 0 0 -42 -2 -92z m129 21 c-5 -5 -6 11 -3 34 4 41 5 41 8 8 2 -18 0 -37 -5 -42z m337 -44 c0 -50 -10 -57 -30 -20 -12 22 -11 27 5 45 10 11 20 20 22 20 1 0 3 -20 3 -45z m117 -7 c-3 -7 -5 -2 -5 12 0 14 2 19 5 13 2 -7 2 -19 0 -25z m-214 -83 c19 -9 22 -17 22 -70 -1 -72 -13 -137 -24 -131 -5 3 -14 34 -21 68 -6 35 -18 78 -26 97 -13 31 -13 36 3 54 14 14 19 16 21 5 1 -7 13 -18 25 -23z m204 -27 c-2 -13 -4 -3 -4 22 0 25 2 35 4 23 2 -13 2 -33 0 -45z m-126 -141 c-8 -8 -11 1 -11 29 0 53 14 67 18 19 2 -21 -1 -42 -7 -48z m-643 -162 c11 -55 21 -104 23 -110 2 -5 -34 -84 -80 -174 -70 -137 -95 -176 -158 -245 -41 -44 -81 -93 -89 -108 -8 -16 -17 -28 -20 -28 -3 0 -2 5 1 10 3 6 4 10 1 10 -3 0 -17 -17 -32 -37 l-26 -38 7 45 c4 25 9 73 10 106 4 66 13 88 118 278 68 125 134 277 172 398 37 118 38 119 46 53 4 -33 16 -105 27 -160z m-1566 134 c-104 -102 -188 -279 -267 -567 -31 -111 -62 -217 -70 -235 l-14 -32 -1 41 c0 22 5 67 11 100 21 115 150 598 167 628 13 22 42 41 112 72 52 24 99 43 104 43 6 1 -14 -22 -42 -50z m1886 -24 c-6 -14 -13 -23 -15 -21 -5 5 15 46 22 46 3 0 -1 -11 -7 -25z m319 -82 c-2 -16 -4 -3 -4 27 0 30 2 43 4 28 2 -16 2 -40 0 -55z m-2434 -8 c-15 -30 -29 -53 -31 -51 -4 5 46 106 53 106 3 0 -7 -25 -22 -55z m2044 -75 c-23 -58 -67 -185 -97 -282 -30 -97 -56 -175 -58 -173 -8 7 42 185 83 295 51 139 106 272 111 268 1 -2 -16 -51 -39 -108z m-161 63 c-8 -15 -15 -25 -16 -21 0 12 23 58 27 54 3 -2 -2 -17 -11 -33z m487 -65 c8 -68 -4 -207 -14 -163 -10 45 -10 215 0 215 4 0 11 -24 14 -52z m-2216 -26 c-14 -21 -41 -71 -61 -110 -38 -76 -57 -97 -31 -36 21 50 108 195 113 189 3 -3 -7 -22 -21 -43z m2270 1 c-3 -10 -5 -2 -5 17 0 19 2 27 5 18 2 -10 2 -26 0 -35z m-2468 -2 c-6 -18 -13 -30 -15 -28 -2 2 1 18 7 36 6 18 13 30 15 28 2 -2 -1 -18 -7 -36z m1887 2 c-8 -15 -15 -25 -16 -21 0 12 23 58 27 54 3 -2 -2 -17 -11 -33z m-2036 -49 c-34 -90 -66 -540 -56 -799 5 -138 4 -147 -10 -117 -8 19 -26 75 -41 125 -14 51 -34 101 -44 111 -18 19 -19 19 -38 2 -11 -10 -23 -32 -27 -50 l-7 -31 -9 40 c-17 72 34 431 72 504 42 84 151 241 165 241 3 0 0 -12 -5 -26z m96 -100 c-19 -54 -35 -95 -35 -89 -1 15 60 197 65 192 2 -2 -12 -48 -30 -103z m2511 59 c-3 -10 -5 -4 -5 12 0 17 2 24 5 18 2 -7 2 -21 0 -30z m-556 -14 c-5 -13 -10 -19 -10 -12 -1 15 10 45 15 40 3 -2 0 -15 -5 -28z m546 -146 c-2 -16 -4 -5 -4 22 0 28 2 40 4 28 2 -13 2 -35 0 -50z m-31 -152 c5 -12 9 -8 15 14 4 17 5 -14 3 -70 -7 -142 -23 -1129 -18 -1136 2 -3 -29 -44 -68 -90 -39 -46 -87 -108 -106 -136 -19 -29 -36 -53 -39 -53 -2 0 15 36 37 80 75 150 138 374 70 252 -16 -30 -55 -85 -86 -124 -31 -39 -63 -83 -71 -98 -10 -22 -73 -286 -73 -309 0 -2 -2 -2 -5 1 -5 4 31 183 69 348 8 36 31 157 50 268 32 186 34 207 21 238 -20 48 -29 42 -21 -13 3 -30 2 -43 -3 -34 -7 10 -20 -6 -51 -63 -23 -42 -44 -76 -46 -76 -7 0 25 71 52 117 24 42 24 45 13 128 -15 104 -1 251 36 395 14 52 25 109 26 125 1 27 2 26 9 -9 4 -21 5 -48 2 -59 -3 -12 -1 -18 5 -14 27 17 129 -483 142 -698 l6 -110 14 160 c8 101 11 251 9 410 l-5 250 -46 132 c-26 73 -47 141 -47 153 0 11 17 57 37 102 l38 82 12 -74 c7 -41 15 -81 19 -89z m-2135 -54 c16 -60 45 -149 64 -199 42 -109 44 -124 5 -43 -31 66 -42 46 -11 -21 l19 -42 -41 4 -42 3 45 -9 c46 -10 129 -61 170 -105 20 -21 12 -19 -56 16 l-79 41 -157 -7 c-139 -6 -158 -5 -158 8 0 11 14 18 48 23 72 10 173 32 180 38 6 7 -43 -1 -97 -15 -19 -4 -38 -6 -43 -3 -22 14 38 310 84 416 25 60 23 64 69 -105z m1606 91 c-3 -8 -6 -5 -6 6 -1 11 2 17 5 13 3 -3 4 -12 1 -19z m-1468 -128 c71 -98 98 -161 104 -240 l5 -65 -17 68 c-9 38 -20 65 -24 61 -4 -5 -5 -1 -2 8 4 9 -1 29 -10 45 -9 15 -14 20 -11 11 3 -10 8 -26 12 -35 3 -10 -17 25 -43 77 -27 52 -61 118 -76 145 -29 52 -27 49 62 -75z m1458 68 c-3 -7 -5 -2 -5 12 0 14 2 19 5 13 2 -7 2 -19 0 -25z m1047 10 c-21 -36 -106 -158 -110 -158 -5 0 33 60 77 124 30 42 50 63 33 34z m-1059 -78 c-4 -23 -9 -39 -11 -37 -3 2 -2 23 2 46 4 23 9 40 11 37 3 -3 2 -23 -2 -46z m792 -72 c-3 -8 -6 -5 -6 6 -1 11 2 17 5 13 3 -3 4 -12 1 -19z m-2612 -114 c-33 -154 -47 -232 -43 -254 2 -10 -22 -51 -52 -91 -30 -40 -79 -104 -109 -143 -29 -39 -65 -95 -79 -123 -14 -29 -30 -53 -35 -53 -21 0 6 68 48 121 40 51 45 63 46 111 1 29 5 64 9 78 5 15 6 -5 3 -50 l-5 -75 41 54 c37 49 41 61 41 110 0 97 26 187 75 270 25 42 53 97 63 123 9 26 18 46 19 44 2 -2 -8 -57 -22 -122z m-154 26 c-6 -65 -9 -73 -10 -35 -1 49 9 129 15 122 2 -1 -1 -41 -5 -87z m2630 -203 c15 -94 5 -242 -26 -382 -13 -60 -28 -130 -33 -155 -5 -29 -9 100 -9 360 l-2 405 30 -78 c16 -43 34 -111 40 -150z m-1935 57 c-3 -8 -2 -13 3 -10 11 7 23 -22 15 -35 -3 -5 0 -9 6 -9 7 0 10 -6 7 -14 -3 -7 -2 -17 3 -22 4 -5 10 -38 13 -74 7 -71 4 -67 -36 65 -14 44 -27 100 -31 125 l-6 45 16 -28 c8 -16 13 -35 10 -43z m-2609 24 c-3 -7 -5 -2 -5 12 0 14 2 19 5 13 2 -7 2 -19 0 -25z m797 -210 c76 -158 142 -424 201 -812 l37 -240 65 -130 c77 -155 129 -306 149 -436 27 -183 17 -174 -60 55 -80 237 -136 376 -223 548 -30 60 -59 120 -64 133 -16 45 1 24 32 -37 16 -34 33 -59 36 -56 3 3 -9 64 -26 136 -18 71 -47 238 -66 370 -19 132 -41 269 -49 304 -31 132 -82 241 -150 318 -17 19 -5 9 26 -23 36 -36 70 -84 92 -130z m-787 160 c-3 -8 -6 -5 -6 6 -1 11 2 17 5 13 3 -3 4 -12 1 -19z m1640 -115 c-2 -16 -4 -3 -4 27 0 30 2 43 4 28 2 -16 2 -40 0 -55z m423 47 c-22 -31 -49 -54 -35 -29 10 17 47 59 52 59 3 0 -5 -13 -17 -30z m217 -6 c17 5 18 -9 21 -217 1 -122 4 -241 5 -265 l2 -43 -70 -29 c-38 -17 -72 -27 -76 -22 -16 17 -42 177 -49 297 -7 128 -7 131 21 200 16 39 36 81 45 93 l16 23 34 -21 c18 -12 42 -19 51 -16z m-1930 4 c-3 -8 -6 -5 -6 6 -1 11 2 17 5 13 3 -3 4 -12 1 -19z m2085 -13 c50 -34 76 -82 143 -265 31 -85 64 -168 74 -185 l17 -30 -105 3 c-58 2 -108 6 -110 8 -3 2 -8 34 -11 72 l-7 67 -2 -77 c-1 -63 -4 -78 -17 -78 -13 0 -14 10 -8 73 13 124 8 327 -8 385 -8 28 -12 52 -9 52 4 0 23 -11 43 -25z m-2415 -17 c-3 -7 -5 -2 -5 12 0 14 2 19 5 13 2 -7 2 -19 0 -25z m3020 -30 c-3 -8 -6 -5 -6 6 -1 11 2 17 5 13 3 -3 4 -12 1 -19z m1690 0 c-3 -8 -6 -5 -6 6 -1 11 2 17 5 13 3 -3 4 -12 1 -19z m-2637 -18 c-6 -11 -13 -20 -16 -20 -2 0 0 9 6 20 6 11 13 20 16 20 2 0 0 -9 -6 -20z m2627 -22 c-3 -8 -6 -5 -6 6 -1 11 2 17 5 13 3 -3 4 -12 1 -19z m-2667 -48 c-6 -11 -13 -20 -16 -20 -2 0 0 9 6 20 6 11 13 20 16 20 2 0 0 -9 -6 -20z m337 -122 c-2 -29 -3 -8 -3 47 0 55 1 79 3 53 2 -26 2 -71 0 -100z m2320 120 c-3 -8 -6 -5 -6 6 -1 11 2 17 5 13 3 -3 4 -12 1 -19z m-4500 -20 c-3 -7 -5 -2 -5 12 0 14 2 19 5 13 2 -7 2 -19 0 -25z m1803 -38 c-12 -16 -24 -30 -26 -30 -3 0 4 14 16 30 12 17 24 30 26 30 3 0 -4 -13 -16 -30z m2687 8 c-3 -8 -6 -5 -6 6 -1 11 2 17 5 13 3 -3 4 -12 1 -19z m-4447 -209 c11 -81 31 -178 44 -215 19 -59 24 -97 29 -260 l6 -192 -22 -6 c-21 -7 -21 -7 -2 -16 11 -5 38 -9 59 -9 62 -1 27 -26 -36 -26 -47 0 -53 -2 -59 -25 -3 -14 -4 20 -1 75 6 131 -12 361 -48 615 -32 222 -36 265 -20 240 8 -12 10 -10 11 10 2 41 16 -28 39 -191z m3170 -22 c0 -118 -3 -216 -6 -220 -3 -3 -12 -3 -20 0 -11 4 -14 45 -14 219 0 207 1 214 20 214 19 0 20 -7 20 -213z m1267 181 c-3 -7 -5 -2 -5 12 0 14 2 19 5 13 2 -7 2 -19 0 -25z m-4640 -20 c-3 -7 -5 -2 -5 12 0 14 2 19 5 13 2 -7 2 -19 0 -25z m1977 -25 c-47 -82 -91 -147 -129 -188 -36 -40 -36 -39 6 20 23 33 64 95 92 138 57 86 73 102 31 30z m2631 -84 c-14 -52 -22 -76 -19 -54 7 49 36 156 41 151 2 -2 -8 -45 -22 -97z m-2550 -83 c19 -76 32 -143 29 -147 -3 -5 -11 -9 -18 -9 -15 0 -57 202 -55 270 1 56 1 55 44 -114z m2412 72 c-3 -7 -5 -2 -5 12 0 14 2 19 5 13 2 -7 2 -19 0 -25z m-2457 -213 c11 -47 10 -51 -12 -65 -12 -8 -47 -34 -76 -58 -30 -24 -56 -42 -58 -39 -3 2 11 23 30 46 41 49 74 144 84 241 l6 65 7 -70 c4 -38 12 -92 19 -120z m1745 71 c-102 -157 -144 -236 -182 -341 -41 -115 -43 -98 -3 23 40 118 125 269 222 395 52 65 39 40 -37 -77z m700 49 c-3 -31 -9 -55 -11 -52 -3 2 -2 30 2 61 4 31 9 54 12 52 2 -3 1 -30 -3 -61z m52 33 c-3 -8 -6 -5 -6 6 -1 11 2 17 5 13 3 -3 4 -12 1 -19z m-10 -40 c-3 -8 -6 -5 -6 6 -1 11 2 17 5 13 3 -3 4 -12 1 -19z m-2170 -24 c-3 -3 -12 -4 -19 -1 -8 3 -5 6 6 6 11 1 17 -2 13 -5z m1694 -71 c-12 -20 -14 -14 -5 12 4 9 9 14 11 11 3 -2 0 -13 -6 -23z m-1021 -20 c-11 -17 -11 -17 -6 0 3 10 6 24 7 30 0 9 2 9 5 0 3 -7 0 -20 -6 -30z m977 5 c-3 -8 -6 -5 -6 6 -1 11 2 17 5 13 3 -3 4 -12 1 -19z m-2499 -227 c2 -126 0 -231 -5 -234 -10 -7 -17 353 -8 416 4 26 8 47 9 47 0 0 2 -103 4 -229z m-1371 67 c-3 -8 -6 -5 -6 6 -1 11 2 17 5 13 3 -3 4 -12 1 -19z m10 -40 c-3 -8 -6 -5 -6 6 -1 11 2 17 5 13 3 -3 4 -12 1 -19z m10 -50 c-3 -7 -5 -2 -5 12 0 14 2 19 5 13 2 -7 2 -19 0 -25z m2022 -188 c0 -56 -5 -115 -14 -145 -14 -48 -15 -48 -10 -10 3 22 5 108 6 190 1 109 4 138 10 105 4 -25 8 -88 8 -140z m1058 148 c-3 -7 -5 -2 -5 12 0 14 2 19 5 13 2 -7 2 -19 0 -25z m-3070 -10 c-3 -7 -5 -2 -5 12 0 14 2 19 5 13 2 -7 2 -19 0 -25z m3080 -40 c-3 -7 -5 -2 -5 12 0 14 2 19 5 13 2 -7 2 -19 0 -25z m-3070 -10 c-3 -7 -5 -2 -5 12 0 14 2 19 5 13 2 -7 2 -19 0 -25z m3080 -40 c-3 -7 -5 -2 -5 12 0 14 2 19 5 13 2 -7 2 -19 0 -25z m-3070 -10 c-3 -7 -5 -2 -5 12 0 14 2 19 5 13 2 -7 2 -19 0 -25z m3040 0 c-3 -7 -5 -2 -5 12 0 14 2 19 5 13 2 -7 2 -19 0 -25z m340 10 c-3 -8 -6 -5 -6 6 -1 11 2 17 5 13 3 -3 4 -12 1 -19z m-300 -50 c-3 -7 -5 -2 -5 12 0 14 2 19 5 13 2 -7 2 -19 0 -25z m290 10 c-3 -8 -6 -5 -6 6 -1 11 2 17 5 13 3 -3 4 -12 1 -19z m-3360 -20 c-3 -8 -6 -5 -6 6 -1 11 2 17 5 13 3 -3 4 -12 1 -19z m-80 -10 c-3 -8 -6 -5 -6 6 -1 11 2 17 5 13 3 -3 4 -12 1 -19z m3427 -32 c-3 -21 -8 -35 -11 -32 -2 2 -1 20 3 40 3 21 8 35 11 32 2 -2 1 -20 -3 -40z m-267 2 c-3 -7 -5 -2 -5 12 0 14 2 19 5 13 2 -7 2 -19 0 -25z m240 10 c-3 -8 -6 -5 -6 6 -1 11 2 17 5 13 3 -3 4 -12 1 -19z m-494 -5 c-7 -2 -21 -2 -30 0 -10 3 -4 5 12 5 17 0 24 -2 18 -5z m264 -55 c-3 -7 -5 -2 -5 12 0 14 2 19 5 13 2 -7 2 -19 0 -25z m-1780 -75 c-2 -21 -4 -6 -4 32 0 39 2 55 4 38 2 -18 2 -50 0 -70z m1503 47 c0 -5 -2 -10 -4 -10 -3 0 -8 5 -11 10 -3 6 -1 10 4 10 6 0 11 -4 11 -10z m287 -47 c-3 -10 -5 -2 -5 17 0 19 2 27 5 18 2 -10 2 -26 0 -35z m-3002 -120 c5 -26 3 -33 -8 -33 -17 0 -37 76 -37 138 1 36 1 36 19 -18 11 -30 22 -70 26 -87z m1852 50 c-3 -10 -5 -2 -5 17 0 19 2 27 5 18 2 -10 2 -26 0 -35z m23 -73 c0 -19 -31 -23 -48 -6 -15 15 -14 16 16 16 18 0 32 -5 32 -10z m316 -235 c-69 -196 -84 -236 -85 -218 -1 6 28 92 63 190 75 208 78 215 81 211 2 -2 -25 -84 -59 -183z m-2176 -73 c0 -53 -5 -104 -10 -112 -7 -10 -10 23 -10 103 0 76 4 116 10 112 6 -3 10 -49 10 -103z m3017 51 c-3 -10 -5 -4 -5 12 0 17 2 24 5 18 2 -7 2 -21 0 -30z m202 -165 c-2 -96 -3 -111 -9 -68 -6 52 -2 190 6 190 2 0 3 -55 3 -122z m-212 10 c-2 -18 -4 -4 -4 32 0 36 2 50 4 33 2 -18 2 -48 0 -65z m-13 -260 c-5 -112 -10 -187 -12 -168 -5 46 9 383 15 376 3 -3 1 -96 -3 -208z m-1957 110 c-3 -8 -6 -5 -6 6 -1 11 2 17 5 13 3 -3 4 -12 1 -19z m1614 12 c10 -6 19 -17 19 -26 0 -16 -16 -10 -55 20 -18 14 -19 15 -2 16 10 0 27 -5 38 -10z m-231 -104 c0 -2 -8 -10 -17 -17 -16 -13 -17 -12 -4 4 13 16 21 21 21 13z m-30 -39 c0 -2 -10 -12 -22 -23 l-23 -19 19 23 c18 21 26 27 26 19z m-2096 -199 c-12 -141 -17 -176 -29 -203 -13 -26 -14 -27 -10 -5 5 24 25 223 25 241 0 5 4 9 9 9 5 0 7 -19 5 -42z m2863 -65 c-2 -16 -4 -3 -4 27 0 30 2 43 4 28 2 -16 2 -40 0 -55z m-400 -75 c-3 -7 -5 -2 -5 12 0 14 2 19 5 13 2 -7 2 -19 0 -25z m-2450 -90 c-3 -8 -6 -5 -6 6 -1 11 2 17 5 13 3 -3 4 -12 1 -19z"/>
<path d="M1844 3149 c-20 -37 -21 -72 -9 -276 5 -95 10 -123 21 -123 20 0 20 287 1 314 -12 16 -11 24 7 57 16 29 18 41 9 50 -9 9 -16 3 -29 -22z"/>
<path d="M1902 2705 c0 -16 2 -22 5 -12 2 9 2 23 0 30 -3 6 -5 -1 -5 -18z"/>
<path d="M4362 2613 c-7 -43 -19 -112 -27 -153 -8 -41 -14 -102 -13 -135 1 -59 1 -59 9 20 4 44 14 112 23 150 16 77 31 195 24 195 -2 0 -9 -35 -16 -77z"/>
<path d="M75 5042 c6 -5 46 -33 90 -62 93 -62 195 -161 215 -211 l15 -34 5 85 c4 68 2 87 -10 97 -27 22 -335 144 -315 125z"/>
<path d="M1344 4936 c-3 -15 5 -94 19 -179 15 -84 33 -213 42 -287 8 -74 23 -160 31 -190 9 -30 31 -136 49 -235 19 -99 34 -175 34 -170 2 24 41 365 47 414 5 37 4 52 -3 48 -6 -4 -14 4 -17 17 -3 14 -17 37 -30 53 l-24 29 47 109 c26 61 65 144 86 185 21 41 53 108 71 148 l33 73 -52 -46 c-93 -81 -163 -180 -199 -279 -18 -49 -34 -84 -36 -78 -2 6 8 39 22 73 27 66 24 67 -18 4 -14 -22 -26 -37 -26 -34 0 19 -60 363 -64 367 -3 2 -8 -8 -12 -22z"/>
<path d="M5102 4881 c-11 -7 -11 -9 2 -14 10 -4 16 -1 16 8 0 17 -1 17 -18 6z"/>
<path d="M5060 4858 c0 -14 47 -88 55 -88 3 0 5 15 5 33 0 26 -6 36 -30 50 -23 14 -30 15 -30 5z"/>
<path d="M1710 4653 c0 -16 -5 -46 -11 -68 -7 -22 -17 -78 -24 -125 -13 -84 -13 -85 -15 -30 l-2 55 -19 -95 c-16 -80 -18 -107 -9 -174 12 -93 13 -209 3 -203 -11 7 -5 -545 7 -624 5 -36 20 -90 32 -120 l23 -54 8 55 c8 55 19 1410 11 1410 -2 0 -4 -12 -4 -27z m-13 -1095 c-1 -68 -3 -13 -3 122 0 135 2 190 3 123 2 -68 2 -178 0 -245z"/>
<path d="M0 4350 c0 -180 1 -193 24 -238 30 -60 53 -134 60 -192 4 -33 -3 -19 -27 55 -51 155 -56 158 -57 35 l0 -106 42 -40 c24 -23 70 -62 103 -88 33 -26 118 -104 189 -174 71 -70 126 -122 123 -117 -3 6 -17 80 -32 165 -36 218 -88 443 -137 592 -23 70 -43 126 -45 124 -6 -5 34 -217 62 -335 14 -57 24 -106 22 -108 -2 -2 -24 69 -48 157 -35 127 -45 155 -52 137 -10 -23 -2 -315 11 -430 5 -38 5 -70 2 -72 -3 -2 -29 17 -57 43 l-51 47 -12 160 c-13 178 -39 351 -69 465 -11 41 -21 80 -21 85 0 6 -5 3 -11 -5 -9 -12 -10 -11 -6 8 3 12 1 22 -4 22 -5 0 -9 -83 -9 -190z m48 -50 c-1 -41 -1 -40 -8 15 -4 33 -10 87 -13 120 -6 56 -5 56 8 -15 8 -41 13 -95 13 -120z m289 -412 c-3 -8 -6 -5 -6 6 -1 11 2 17 5 13 3 -3 4 -12 1 -19z m10 -40 c-3 -8 -6 -5 -6 6 -1 11 2 17 5 13 3 -3 4 -12 1 -19z"/>
<path d="M1661 4514 c0 -11 3 -14 6 -6 3 7 2 16 -1 19 -3 4 -6 -2 -5 -13z"/>
<path d="M2962 4490 c0 -14 2 -19 5 -12 2 6 2 18 0 25 -3 6 -5 1 -5 -13z"/>
<path d="M1581 4399 c-7 -22 -11 -43 -8 -45 2 -2 9 14 16 37 7 22 11 43 8 45 -2 2 -9 -14 -16 -37z"/>
<path d="M912 4410 c-1 -14 -18 -58 -38 -98 -31 -61 -37 -86 -38 -143 -1 -38 2 -69 6 -69 4 0 8 7 8 17 0 9 16 66 36 126 24 75 34 123 31 151 -2 22 -4 30 -5 16z"/>
<path d="M1613 4185 c0 -22 2 -30 4 -17 2 12 2 30 0 40 -3 9 -5 -1 -4 -23z"/>
<path d="M832 4050 c0 -14 2 -19 5 -12 2 6 2 18 0 25 -3 6 -5 1 -5 -13z"/>
<path d="M1603 3940 c0 -41 2 -58 4 -37 2 20 2 54 0 75 -2 20 -4 3 -4 -38z"/>
<path d="M3692 3955 c0 -16 2 -22 5 -12 2 9 2 23 0 30 -3 6 -5 -1 -5 -18z"/>
<path d="M519 3837 c-3 -103 -1 -141 9 -149 14 -12 15 91 3 217 -7 64 -8 58 -12 -68z"/>
<path d="M2320 3905 c0 -7 81 -115 86 -115 7 0 -28 52 -58 88 -15 18 -28 30 -28 27z"/>
<path d="M19 3810 c28 -80 59 -200 65 -256 4 -34 -5 -11 -30 71 -20 66 -40 131 -44 145 -5 15 -9 -43 -9 -145 -1 -170 -1 -171 49 -390 27 -121 54 -233 60 -249 16 -45 13 -45 -41 6 -28 26 -55 48 -60 48 -13 0 -11 -57 3 -83 6 -12 42 -60 79 -108 38 -47 94 -124 125 -170 31 -46 53 -76 50 -66 -3 10 -11 80 -16 155 -6 75 -16 179 -24 230 l-12 92 35 0 c92 0 215 -53 314 -135 52 -44 69 -66 107 -143 24 -51 48 -92 52 -92 12 0 -55 131 -119 233 -53 84 -198 405 -188 416 3 2 5 2 5 0 0 -21 168 -362 212 -432 31 -48 69 -117 84 -153 25 -60 29 -64 60 -64 l32 0 -10 38 c-31 112 -200 440 -309 597 -68 99 -192 238 -285 320 l-79 70 51 -60 c58 -70 59 -70 119 -278 25 -87 54 -176 65 -197 11 -22 20 -41 20 -43 0 -2 -28 -7 -62 -10 -35 -3 -73 -9 -84 -12 -20 -6 -22 -2 -29 62 -3 37 -20 136 -36 218 -16 83 -36 189 -44 238 -15 84 -17 89 -70 145 l-55 57 19 -55z m78 -342 c-3 -7 -5 -2 -5 12 0 14 2 19 5 13 2 -7 2 -19 0 -25z m10 -50 c-3 -8 -6 -5 -6 6 -1 11 2 17 5 13 3 -3 4 -12 1 -19z"/>
<path d="M492 3785 c0 -11 3 -29 8 -40 11 -25 11 1 0 35 -6 20 -8 21 -8 5z"/>
<path d="M2393 3733 c15 -2 39 -2 55 0 15 2 2 4 -28 4 -30 0 -43 -2 -27 -4z"/>
<path d="M2283 3723 c15 -2 37 -2 50 0 12 2 0 4 -28 4 -27 0 -38 -2 -22 -4z"/>
<path d="M1902 3565 c-17 -37 -14 -45 4 -12 9 16 14 31 11 33 -2 2 -9 -7 -15 -21z"/>
<path d="M1276 3490 c2 -36 6 -148 9 -250 3 -102 11 -223 18 -270 l13 -85 7 70 c16 159 -8 517 -38 575 -12 22 -13 18 -9 -40z"/>
<path d="M2436 3430 c-25 -27 -46 -52 -46 -57 0 -4 4 -3 8 3 5 5 28 30 52 57 56 62 46 61 -14 -3z"/>
<path d="M3163 3284 c-7 -21 -14 -57 -17 -79 -4 -24 2 -12 14 30 11 39 18 74 17 79 -2 5 -8 -9 -14 -30z"/>
<path d="M1581 3154 c0 -11 3 -14 6 -6 3 7 2 16 -1 19 -3 4 -6 -2 -5 -13z"/>
<path d="M494 2917 c3 -10 9 -63 13 -118 l6 -99 37 0 37 0 -10 58 c-14 93 -15 95 -53 137 -19 22 -33 32 -30 22z"/>
<path d="M3803 2870 c-32 -19 -41 -30 -25 -30 8 1 70 50 62 50 -3 0 -20 -9 -37 -20z"/>
<path d="M1 2788 c-1 -33 3 -58 9 -58 12 0 12 67 0 95 -6 14 -9 4 -9 -37z"/>
<path d="M5090 2631 c-51 -72 -203 -422 -224 -516 -5 -23 3 -16 34 33 50 78 142 194 149 187 6 -6 71 55 71 67 0 5 -14 -7 -31 -27 -18 -20 -34 -33 -37 -31 -2 3 12 24 32 47 31 36 36 50 36 91 0 26 -3 48 -7 48 -3 0 -21 -11 -39 -25 l-33 -25 40 86 c43 90 46 116 9 65z"/>
<path d="M17 2499 c-13 -8 -17 -23 -17 -71 l0 -62 31 42 c43 59 34 119 -14 91z"/>
<path d="M1658 2294 c-16 -78 -28 -163 -28 -188 l0 -46 45 0 c42 0 44 1 51 34 3 19 1 50 -5 68 -9 31 -27 157 -33 238 -2 23 -13 -15 -30 -106z"/>
<path d="M33 2340 c-18 -11 -33 -25 -33 -30 0 -6 16 1 35 16 31 23 41 34 33 34 -2 0 -18 -9 -35 -20z"/>
<path d="M3240 2295 c0 -5 5 -17 10 -25 5 -8 10 -10 10 -5 0 6 -5 17 -10 25 -5 8 -10 11 -10 5z"/>
<path d="M5035 2286 c-32 -15 -71 -53 -101 -101 l-19 -29 33 19 c48 28 150 124 132 124 -8 0 -28 -6 -45 -13z"/>
<path d="M1766 2167 c-10 -29 -21 -59 -24 -67 -3 -10 -2 -12 5 -5 12 11 47 114 41 120 -2 2 -12 -19 -22 -48z"/>
<path d="M3911 2194 c0 -11 3 -14 6 -6 3 7 2 16 -1 19 -3 4 -6 -2 -5 -13z"/>
<path d="M656 2140 c4 -8 18 -32 31 -53 l24 -38 -20 -55 c-12 -30 -25 -94 -30 -142 -11 -104 -14 -289 -5 -304 14 -22 24 19 24 100 0 87 8 135 42 240 24 76 36 71 44 -19 6 -58 4 -68 -20 -103 -18 -26 -26 -52 -26 -80 0 -23 -16 -106 -36 -186 -70 -288 -77 -327 -109 -681 -21 -243 -30 -308 -51 -408 -8 -35 -21 -10 -29 54 -3 27 -13 84 -23 126 l-16 76 -46 -5 c-25 -2 -46 -6 -48 -7 -2 -2 20 -48 47 -104 28 -55 51 -109 50 -118 0 -10 -6 -2 -13 17 -22 59 -97 204 -121 232 -56 67 -26 -35 34 -114 42 -56 81 -132 80 -158 0 -8 -17 21 -38 65 -34 72 -47 88 -122 150 -46 38 -90 75 -97 82 -7 7 -43 22 -80 33 -37 11 -75 23 -84 26 -17 5 -18 -18 -18 -382 0 -213 2 -385 5 -382 3 3 19 69 36 147 16 78 35 154 42 169 16 37 70 122 78 122 9 0 53 -68 90 -141 18 -35 49 -116 70 -179 36 -111 39 -115 68 -118 17 -2 31 1 31 6 0 5 -11 50 -25 98 -37 127 -161 327 -295 474 l-41 45 22 -37 c19 -35 19 -39 5 -60 -9 -12 -17 -36 -17 -53 -1 -16 -5 6 -10 50 -4 44 -5 90 -2 103 5 22 48 52 75 52 15 0 190 -342 236 -460 16 -41 38 -108 48 -148 16 -63 21 -72 41 -72 13 0 23 2 23 5 0 15 -72 189 -104 253 -20 40 -47 97 -61 128 l-25 56 25 -16 c42 -27 39 -18 -10 40 -48 56 -145 208 -145 227 0 39 150 -165 189 -256 11 -26 34 -67 49 -90 16 -23 33 -55 39 -72 9 -29 13 -30 92 -40 l82 -11 -8 26 c-11 38 -9 94 15 345 34 355 51 495 82 685 37 217 60 308 99 391 35 73 35 70 -10 -61 -30 -90 -33 -105 -37 -270 -4 -189 2 -266 45 -548 l28 -182 27 0 27 0 -2 88 c-1 48 4 121 11 162 7 41 15 199 19 350 7 306 5 321 -64 550 -36 123 -126 316 -168 365 -15 17 -23 23 -19 15z m141 -822 c-3 -8 -6 -5 -6 6 -1 11 2 17 5 13 3 -3 4 -12 1 -19z m84 -291 c0 -109 -2 -201 -5 -204 -3 -4 -6 43 -6 104 0 60 -2 179 -5 264 -3 116 -2 139 5 94 5 -33 10 -149 11 -258z m-94 226 c-3 -10 -5 -4 -5 12 0 17 2 24 5 18 2 -7 2 -21 0 -30z m-10 -80 c-3 -10 -5 -2 -5 17 0 19 2 27 5 18 2 -10 2 -26 0 -35z m-642 -709 c-9 -14 -34 -49 -56 -77 -22 -29 -42 -62 -45 -74 -4 -13 -10 -20 -16 -17 -10 7 3 29 74 127 48 65 77 93 43 41z"/>
<path d="M831 2093 c-10 -35 -8 -42 25 -90 20 -29 37 -53 38 -53 1 0 -6 30 -15 68 -10 37 -18 77 -18 90 -1 35 -19 26 -30 -15z"/>
<path d="M5042 2030 c-35 -22 -68 -37 -74 -34 -6 4 -8 2 -5 -4 4 -5 -21 -32 -55 -60 -76 -60 -162 -142 -253 -242 l-68 -75 61 75 c61 76 236 251 282 283 14 10 0 5 -30 -9 -115 -56 -176 -109 -314 -278 -79 -96 -192 -254 -293 -411 -74 -116 -352 -616 -374 -675 -35 -92 -60 -203 -53 -235 3 -16 15 -44 25 -61 l18 -30 -44 -110 c-24 -60 -47 -121 -50 -136 -7 -27 -5 -28 28 -28 33 0 35 2 57 63 37 101 102 246 164 360 l58 108 23 -48 c13 -26 35 -84 50 -128 34 -100 92 -212 152 -293 l46 -62 54 0 c40 0 52 3 47 13 -6 9 -4 9 7 -1 15 -14 92 -17 87 -2 -1 5 -50 76 -107 157 -67 94 -143 186 -209 253 -93 94 -132 140 -118 140 3 0 33 -16 67 -36 134 -79 312 -282 385 -439 25 -55 45 -84 55 -85 15 0 15 6 -3 63 -45 147 -118 256 -237 353 l-65 54 3 245 3 246 83 145 83 145 17 -70 c9 -39 18 -71 20 -71 2 0 2 46 0 103 l-4 102 10 -99 c9 -84 8 -101 -5 -115 -9 -10 -16 -34 -16 -54 0 -32 3 -36 28 -39 33 -4 40 -43 7 -42 -19 0 -20 -5 -17 -120 3 -136 12 -168 49 -185 l26 -12 -6 -103 c-4 -57 -9 -111 -13 -120 -3 -9 -2 -16 4 -16 16 0 22 38 23 155 2 97 3 88 10 -70 4 -99 13 -251 20 -337 12 -156 12 -158 35 -158 22 0 24 3 19 37 -11 80 -25 247 -24 287 1 22 7 -17 14 -88 25 -249 22 -236 59 -236 l33 0 6 123 c7 130 38 324 57 354 11 17 11 17 5 -1 -15 -49 -45 -259 -51 -362 l-7 -114 47 0 46 0 0 48 c0 68 27 320 47 442 l16 105 69 71 c62 64 68 74 68 112 0 23 -4 42 -9 42 -18 0 -172 -122 -238 -188 -64 -64 -65 -65 -44 -24 20 39 21 55 19 279 -1 131 -3 220 -5 198 -1 -22 -7 -103 -13 -180 -22 -293 -31 -356 -63 -410 -16 -27 -36 -63 -44 -80 -10 -22 -12 -23 -7 -5 4 14 9 160 11 325 2 164 8 304 12 310 13 15 61 173 61 198 0 21 -4 22 -76 22 l-76 0 8 -90 c5 -49 9 -172 8 -272 -1 -177 0 -182 20 -185 11 -2 22 -11 24 -21 3 -15 -2 -18 -24 -15 -25 3 -29 9 -40 58 -14 62 -20 226 -9 253 4 10 3 23 -4 30 -6 6 -11 32 -11 58 0 26 -4 49 -9 51 -17 6 -15 238 2 308 22 87 22 88 -14 54 -85 -80 -220 -289 -356 -549 -40 -77 -73 -136 -73 -131 0 14 171 341 228 436 59 98 149 213 251 320 61 64 68 68 45 32 -29 -45 -30 -65 -22 -262 l2 -55 58 3 c52 3 57 6 48 22 -7 13 -6 21 4 29 7 6 16 33 20 59 3 26 17 83 31 127 14 44 25 85 24 90 0 18 -40 -89 -65 -175 -26 -92 -26 -77 1 69 9 52 15 119 13 148 l-3 55 158 139 c153 136 157 140 157 179 0 22 -3 40 -7 40 -5 0 -36 -18 -71 -40z m-452 -423 c0 -2 -10 -12 -22 -23 l-23 -19 19 23 c18 21 26 27 26 19z m-40 -51 c0 -2 -8 -10 -17 -17 -16 -13 -17 -12 -4 4 13 16 21 21 21 13z m167 -108 c-3 -8 -6 -5 -6 6 -1 11 2 17 5 13 3 -3 4 -12 1 -19z m-414 -941 c20 -17 18 -17 -13 1 -19 11 -57 32 -85 47 -27 16 -51 29 -52 30 -4 2 65 142 96 195 l26 45 3 -150 c2 -141 4 -151 25 -168z m-230 168 c-15 -30 -29 -53 -31 -51 -4 5 46 106 53 106 3 0 -7 -25 -22 -55z m861 -120 c-9 -14 -18 -25 -21 -25 -5 0 5 18 20 38 17 22 18 13 1 -13z m-647 -260 c101 -127 205 -265 200 -265 -7 0 -172 193 -218 255 -50 67 -100 148 -77 125 8 -8 51 -60 95 -115z m514 -190 l-9 -60 -1 66 c0 37 2 82 7 100 l7 34 3 -40 c1 -22 -2 -67 -7 -100z"/>
<path d="M47 1977 l-47 -43 2 -220 c1 -120 3 -201 5 -179 15 175 47 376 67 427 13 32 23 58 22 58 0 -1 -22 -20 -49 -43z"/>
<path d="M5100 1950 c-8 -14 -13 -32 -12 -40 2 -13 1 -13 -7 -1 -7 11 -16 4 -40 -35 -72 -113 -75 -122 -82 -334 -4 -107 -12 -235 -18 -285 -18 -155 -9 -528 12 -475 3 8 13 49 23 90 9 41 34 123 55 183 21 59 43 142 48 185 26 192 42 438 39 582 -3 141 -4 153 -18 130z m-33 -122 c-3 -8 -6 -5 -6 6 -1 11 2 17 5 13 3 -3 4 -12 1 -19z m-10 -50 c-3 -8 -6 -5 -6 6 -1 11 2 17 5 13 3 -3 4 -12 1 -19z m-60 -165 c-2 -16 -4 -5 -4 22 0 28 2 40 4 28 2 -13 2 -35 0 -50z m-11 -145 c-4 -57 -14 -146 -21 -198 -15 -101 -14 -70 7 163 7 75 14 137 17 137 2 0 1 -46 -3 -102z m-39 -330 c-3 -8 -6 -5 -6 6 -1 11 2 17 5 13 3 -3 4 -12 1 -19z"/>
<path d="M2741 1709 c1 -74 5 -179 9 -234 l7 -100 3 75 c1 41 6 107 10 145 6 58 7 48 6 -63 0 -72 0 -132 2 -132 1 0 18 32 37 72 32 65 35 81 35 159 0 79 -2 89 -29 125 -15 21 -40 50 -55 63 l-26 24 1 -134z"/>
<path d="M951 1464 c0 -11 3 -14 6 -6 3 7 2 16 -1 19 -3 4 -6 -2 -5 -13z"/>
<path d="M221 1434 c0 -11 3 -14 6 -6 3 7 2 16 -1 19 -3 4 -6 -2 -5 -13z"/>
<path d="M4338 1378 c-48 -60 -101 -139 -96 -144 2 -2 34 39 71 91 36 52 65 95 63 95 -2 0 -19 -19 -38 -42z"/>
<path d="M231 1403 c-1 -10 39 -184 72 -317 6 -27 17 -51 23 -53 6 -2 -11 79 -38 179 -52 196 -56 209 -57 191z"/>
<path d="M2901 1223 c-43 -162 -53 -299 -27 -408 l11 -50 36 35 35 35 -10 227 c-6 124 -14 229 -17 233 -4 3 -16 -29 -28 -72z"/>
<path d="M2973 1215 c0 -27 2 -38 4 -22 2 15 2 37 0 50 -2 12 -4 0 -4 -28z"/>
<path d="M1 1030 l-1 -226 48 -13 c26 -7 55 -16 65 -18 15 -5 16 -2 8 18 -5 13 -15 65 -21 114 -13 91 -55 251 -83 315 -14 33 -15 22 -16 -190z"/>
<path d="M5095 1188 c-64 -159 -134 -392 -122 -405 3 -2 22 7 44 21 21 14 53 30 71 37 l32 11 0 189 c0 104 -2 189 -4 189 -2 0 -12 -19 -21 -42z"/>
<path d="M2961 1027 c-1 -165 3 -191 30 -177 20 11 20 32 -3 195 -18 133 -26 127 -27 -18z"/>
<path d="M2822 825 c-16 -59 -34 -166 -29 -172 3 -2 17 15 31 40 26 44 32 95 17 147 -7 24 -8 23 -19 -15z"/>
<path d="M492 668 c-14 -14 -16 -78 -3 -78 9 0 26 78 19 86 -2 2 -10 -2 -16 -8z"/>
<path d="M1876 544 c-3 -43 -6 -182 -6 -311 l0 -233 40 0 40 0 0 63 c0 140 -45 536 -63 554 -2 2 -7 -31 -11 -73z"/>
<path d="M5076 593 c-3 -16 -8 -82 -11 -149 -3 -66 -10 -138 -15 -160 -5 -21 -10 -55 -11 -74 -2 -33 -2 -33 -6 -6 -4 25 -8 20 -37 -50 -18 -43 -41 -96 -50 -116 l-16 -38 84 0 84 0 11 44 c12 47 16 531 5 560 -10 25 -32 19 -38 -11z"/>
<path d="M1672 486 c-53 -106 -66 -167 -38 -183 9 -6 15 -42 19 -122 5 -83 12 -122 25 -145 22 -38 37 -33 38 14 5 213 9 260 22 265 9 3 11 12 7 22 -3 10 -9 69 -12 133 -3 63 -6 116 -7 117 -1 1 -25 -45 -54 -101z"/>
<path d="M2741 293 l-24 -19 29 -23 c27 -22 29 -22 32 -4 2 10 -1 29 -6 42 -8 22 -8 22 -31 4z"/>
<path d="M2697 243 c-15 -15 -19 -16 -26 -4 -12 18 -16 9 -44 -94 -36 -130 -39 -145 -27 -145 5 0 12 12 16 28 3 15 13 54 22 86 l16 60 12 -35 c7 -19 13 -58 13 -86 1 -53 16 -72 24 -31 l4 23 2 -22 c1 -22 4 -23 102 -23 l101 0 -32 37 c-17 21 -50 55 -73 77 l-42 38 41 -30 c22 -17 59 -51 82 -76 38 -41 72 -59 72 -38 0 18 -82 107 -155 167 -44 37 -79 71 -77 76 4 15 -12 10 -31 -8z"/>
<path d="M450 221 c0 -5 5 -22 11 -38 6 -15 16 -62 22 -103 l12 -75 43 -3 42 -3 0 108 0 108 -37 0 c-21 0 -50 4 -65 8 -17 4 -28 3 -28 -2z m90 -41 c-20 -13 -47 -13 -55 0 -4 6 9 10 32 10 28 0 34 -3 23 -10z"/>
<path d="M4177 77 c-21 -82 -22 -77 8 -77 24 0 25 3 24 53 -1 90 -13 100 -32 24z"/>
<path d="M835 45 l-49 -45 38 0 c26 0 47 8 68 25 31 27 66 31 131 16 21 -5 37 -5 37 0 0 17 -64 41 -119 45 -55 4 -57 4 -106 -41z"/>
<path d="M3554 44 c3 -9 6 -22 6 -30 0 -8 7 -14 15 -14 20 0 20 46 -1 54 -24 9 -27 8 -20 -10z"/>
</g>
</svg>